<svg width="70" height="70" viewBox="0 0 70 70" fill="none" xmlns="http://www.w3.org/2000/svg">
<g filter="url(#filter0_d_3031_1649)">
<path d="M46.3967 59.5002V58.0753C46.3967 54.9264 49.0526 52.3759 51.8738 50.9824C54.6181 49.6259 56.9235 47.3918 57.217 44.77L57.7955 39.5522L63.4949 36.7025L56.3707 26.0161C56.3717 22.1251 55.4069 18.2946 53.5629 14.8682C51.7188 11.4419 49.0532 8.52681 45.805 6.38443C42.5568 4.24205 38.8277 2.93937 34.9521 2.59322C31.0764 2.24707 27.1755 2.86827 23.5991 4.40111M19.3245 45.2402V59.5002M19.3245 45.2402C15.4082 42.4805 12.426 38.5927 10.7754 34.095M19.3245 45.2402C21.4618 46.7506 23.8669 47.9104 26.4488 48.6428" stroke="black" stroke-width="5" stroke-linecap="round" stroke-linejoin="round"/>
<path d="M8.63728 6.06745L17.8988 12.4793H29.2976M8.63728 21.7408H29.2976M10.7746 6.06745C10.7746 6.34813 10.7193 6.62605 10.6119 6.88536C10.5045 7.14466 10.347 7.38027 10.1486 7.57874C9.9501 7.7772 9.71449 7.93464 9.45518 8.04204C9.19587 8.14945 8.91795 8.20473 8.63728 8.20473C8.35661 8.20473 8.07868 8.14945 7.81938 8.04204C7.56007 7.93464 7.32446 7.7772 7.12599 7.57874C6.92753 7.38027 6.7701 7.14466 6.66269 6.88536C6.55528 6.62605 6.5 6.34813 6.5 6.06745C6.5 5.50061 6.72518 4.95699 7.12599 4.55617C7.52681 4.15535 8.07044 3.93018 8.63728 3.93018C9.20412 3.93018 9.74775 4.15535 10.1486 4.55617C10.5494 4.95699 10.7746 5.50061 10.7746 6.06745ZM10.7746 21.7408C10.7746 22.0215 10.7193 22.2994 10.6119 22.5587C10.5045 22.818 10.347 23.0537 10.1486 23.2521C9.9501 23.4506 9.71449 23.608 9.45518 23.7154C9.19587 23.8228 8.91795 23.8781 8.63728 23.8781C8.35661 23.8781 8.07868 23.8228 7.81938 23.7154C7.56007 23.608 7.32446 23.4506 7.12599 23.2521C6.92753 23.0537 6.7701 22.818 6.66269 22.5587C6.55528 22.2994 6.5 22.0215 6.5 21.7408C6.5 21.174 6.72518 20.6304 7.12599 20.2296C7.52681 19.8287 8.07044 19.6036 8.63728 19.6036C9.20412 19.6036 9.74775 19.8287 10.1486 20.2296C10.5494 20.6304 10.7746 21.174 10.7746 21.7408Z" stroke="black" stroke-width="5" stroke-linecap="round" stroke-linejoin="round"/>
</g>
<defs>
<filter id="filter0_d_3031_1649" x="0" y="0" width="69.9941" height="70" filterUnits="userSpaceOnUse" color-interpolation-filters="sRGB">
<feFlood flood-opacity="0" result="BackgroundImageFix"/>
<feColorMatrix in="SourceAlpha" type="matrix" values="0 0 0 0 0 0 0 0 0 0 0 0 0 0 0 0 0 0 127 0" result="hardAlpha"/>
<feOffset dy="4"/>
<feGaussianBlur stdDeviation="2"/>
<feComposite in2="hardAlpha" operator="out"/>
<feColorMatrix type="matrix" values="0 0 0 0 0 0 0 0 0 0 0 0 0 0 0 0 0 0 0.25 0"/>
<feBlend mode="normal" in2="BackgroundImageFix" result="effect1_dropShadow_3031_1649"/>
<feBlend mode="normal" in="SourceGraphic" in2="effect1_dropShadow_3031_1649" result="shape"/>
</filter>
</defs>
</svg>
