<svg width="81" height="38" viewBox="0 0 81 38" fill="none" xmlns="http://www.w3.org/2000/svg">
<path d="M25.0425 13.6267C24.435 13.2 23.49 13.0133 22.2075 13.0133H20.25L20.3175 19.52L20.4525 26.0533L22.3425 26C23.7262 26 24.4688 25.8133 25.1437 25.3067C25.9537 24.6667 26.0212 24.3467 26.0212 19.44C26.0212 14.3467 25.9538 14.2133 25.0425 13.6267ZM0 0V37.6533H81V0H0ZM28.89 27.6267C27.405 29.1733 25.3125 29.68 20.3513 29.68H15.8962V9.57333H20.6213C26.2575 9.57333 27.9113 10.0533 29.3962 11.9733C30.3075 13.12 30.375 13.5733 30.4762 18.8267C30.645 24.7733 30.4088 26.1067 28.89 27.6267ZM46.0687 13.04H37.7325V17.76H42.8625V21.1733L40.4325 21.28L37.9012 21.36V26.08L42.0187 26.16L46.0687 26.2667V29.68H40.6688C35.505 29.68 35.2687 29.6533 34.3575 28.88L33.345 28.1333V19.7067C33.345 11.6533 33.3787 11.2267 34.1888 10.4267C34.965 9.6 35.0325 9.6 40.5338 9.6H46.0687V13.0667V13.04ZM61.8638 27.5733C61.29 28.72 59.7038 29.68 58.4888 29.68C57.8812 29.68 56.97 29.28 56.2275 28.64C55.1475 27.7867 54.7088 26.96 53.46 23.0933L50.4225 14.0533L48.9037 9.6H51.4688C52.8187 9.6 54 9.65333 54 9.73333C54 9.89333 57.915 21.84 58.2525 22.6133C58.3875 23.0133 59.3325 20.7467 60.7162 16.48L62.9437 9.76L65.4412 9.65333C66.7912 9.6 67.905 9.65333 67.905 9.76C67.905 10.1333 62.2687 26.7733 61.83 27.5733H61.8638Z" fill="black"/>
</svg>
