<svg width="79" height="83" viewBox="0 0 79 83" fill="none" xmlns="http://www.w3.org/2000/svg">
<g filter="url(#filter0_d_3031_1667)">
<path d="M59.25 51.8438V56.7812H63.5654C60.8276 60.6072 57.2152 63.7235 53.0292 65.8706C48.8431 68.0178 44.2046 69.1335 39.5 69.125C23.1643 69.125 9.875 55.8357 9.875 39.5H4.9375C4.9375 58.5588 20.4413 74.0625 39.5 74.0625C50.2514 74.0625 60.1733 69.1225 66.6562 60.867V64.1875H71.5938V51.8438H59.25Z" fill="black"/>
<path d="M55.5592 28.7288L40.7739 20.0882C40.3965 19.8675 39.9672 19.7509 39.53 19.7505C39.0927 19.7501 38.6632 19.8657 38.2854 20.0857L23.4457 28.7264C23.0725 28.9436 22.7628 29.2548 22.5475 29.6291C22.3322 30.0034 22.2189 30.4276 22.2188 30.8594V48.1406C22.2189 48.5724 22.3322 48.9966 22.5475 49.3709C22.7628 49.7452 23.0725 50.0564 23.4457 50.2736L38.2854 58.9142C38.6525 59.1337 39.0722 59.2497 39.5 59.25C39.9296 59.25 40.3888 59.1389 40.7739 58.9118L55.5592 50.2711C55.9311 50.0536 56.2396 49.7424 56.454 49.3686C56.6684 48.9949 56.7812 48.5715 56.7812 48.1406V30.8594C56.7812 30.4285 56.6684 30.0051 56.454 29.6313C56.2396 29.2576 55.9311 28.9464 55.5592 28.7288ZM39.5272 25.0751L49.4194 30.8594L39.5272 36.6412L29.5954 30.8594L39.5272 25.0751ZM27.1562 35.155L37.0312 40.9072V52.4733L27.1562 46.7211V35.155ZM41.9688 52.498V40.9368L51.8438 35.1649V46.726L41.9688 52.498Z" fill="black"/>
<path d="M39.5 4.93754C34.2686 4.92997 29.1041 6.11433 24.3988 8.40072C19.6934 10.6871 15.5707 14.0154 12.3438 18.133V14.8125H7.40625V27.1563H19.75V22.2188H15.4346C18.1724 18.3929 21.7848 15.2765 25.9708 13.1294C30.1569 10.9823 34.7954 9.86649 39.5 9.87504C55.8357 9.87504 69.125 23.1643 69.125 39.5H74.0625C74.0625 20.4413 58.5588 4.93754 39.5 4.93754Z" fill="black"/>
</g>
<defs>
<filter id="filter0_d_3031_1667" x="-4" y="0" width="87" height="87" filterUnits="userSpaceOnUse" color-interpolation-filters="sRGB">
<feFlood flood-opacity="0" result="BackgroundImageFix"/>
<feColorMatrix in="SourceAlpha" type="matrix" values="0 0 0 0 0 0 0 0 0 0 0 0 0 0 0 0 0 0 127 0" result="hardAlpha"/>
<feOffset dy="4"/>
<feGaussianBlur stdDeviation="2"/>
<feColorMatrix type="matrix" values="0 0 0 0 0 0 0 0 0 0 0 0 0 0 0 0 0 0 0.25 0"/>
<feBlend mode="normal" in2="BackgroundImageFix" result="effect1_dropShadow_3031_1667"/>
<feBlend mode="normal" in="SourceGraphic" in2="effect1_dropShadow_3031_1667" result="shape"/>
</filter>
</defs>
</svg>
