<svg width="70" height="70" viewBox="0 0 70 70" fill="none" xmlns="http://www.w3.org/2000/svg">
<path d="M34.5833 0C15.5141 0 0 15.5141 0 34.5833V48.9112C0 52.4525 3.10212 55.3333 6.91667 55.3333H10.375C11.2922 55.3333 12.1718 54.969 12.8204 54.3204C13.469 53.6718 13.8333 52.7922 13.8333 51.875V34.0888C13.8333 33.1716 13.469 32.2919 12.8204 31.6434C12.1718 30.9948 11.2922 30.6305 10.375 30.6305H7.23483C9.15767 17.2467 20.6739 6.91667 34.5833 6.91667C48.4927 6.91667 60.009 17.2467 61.9318 30.6305H58.7917C57.8745 30.6305 56.9948 30.9948 56.3463 31.6434C55.6977 32.2919 55.3333 33.1716 55.3333 34.0888V55.3333C55.3333 59.1479 52.2312 62.25 48.4167 62.25H41.5V58.7917H27.6667V69.1667H48.4167C56.0457 69.1667 62.25 62.9624 62.25 55.3333C66.0645 55.3333 69.1667 52.4525 69.1667 48.9112V34.5833C69.1667 15.5141 53.6526 0 34.5833 0Z" fill="black"/>
</svg>
