<svg width="70" height="62" viewBox="0 0 70 62" fill="none" xmlns="http://www.w3.org/2000/svg">
<path d="M64.1875 7.40625H69.125V27.1562H64.1875V7.40625ZM51.8438 0H56.7812V27.1562H51.8438V0ZM39.5 12.3438H44.4375V27.1562H39.5V12.3438ZM34.5625 61.7188H29.625V46.9062C29.623 44.9426 28.8421 43.0599 27.4536 41.6714C26.0651 40.2829 24.1824 39.502 22.2188 39.5H12.3438C10.3801 39.502 8.49742 40.2829 7.10891 41.6714C5.72039 43.0599 4.93946 44.9426 4.9375 46.9062V61.7188H0V46.9062C0.00392002 43.6337 1.30568 40.4963 3.61973 38.1822C5.93378 35.8682 9.07119 34.5664 12.3438 34.5625H22.2188C25.4913 34.5664 28.6287 35.8682 30.9428 38.1822C33.2568 40.4963 34.5586 43.6337 34.5625 46.9062V61.7188ZM17.2812 9.875C18.7461 9.875 20.178 10.3094 21.3959 11.1232C22.6139 11.937 23.5632 13.0937 24.1237 14.447C24.6843 15.8003 24.831 17.2895 24.5452 18.7261C24.2594 20.1628 23.554 21.4825 22.5183 22.5183C21.4825 23.554 20.1628 24.2594 18.7261 24.5452C17.2895 24.831 15.8003 24.6843 14.447 24.1237C13.0937 23.5632 11.937 22.6139 11.1232 21.3959C10.3094 20.178 9.875 18.7461 9.875 17.2812C9.875 15.317 10.6553 13.4332 12.0442 12.0442C13.4332 10.6553 15.317 9.875 17.2812 9.875ZM17.2812 4.9375C14.8399 4.9375 12.4533 5.66145 10.4234 7.0178C8.39351 8.37415 6.81138 10.302 5.87711 12.5575C4.94284 14.813 4.6984 17.2949 5.17468 19.6894C5.65097 22.0838 6.8266 24.2833 8.5529 26.0096C10.2792 27.7359 12.4787 28.9115 14.8731 29.3878C17.2676 29.8641 19.7495 29.6197 22.005 28.6854C24.2605 27.7511 26.1884 26.169 27.5447 24.1391C28.9011 22.1091 29.625 19.7226 29.625 17.2812C29.625 15.6602 29.3057 14.0551 28.6854 12.5575C28.0651 11.0599 27.1558 9.69912 26.0096 8.5529C24.8634 7.40668 23.5026 6.49744 22.005 5.87711C20.5074 5.25678 18.9023 4.9375 17.2812 4.9375Z" fill="black"/>
</svg>
