<svg width="41" height="41" viewBox="0 0 41 41" fill="none" xmlns="http://www.w3.org/2000/svg">
<path d="M19.2188 7.6875H35.875V10.25H19.2188V7.6875ZM19.2188 30.75H35.875V33.3125H19.2188V30.75ZM5.125 19.2188H21.7813V21.7813H5.125V19.2188ZM8.96875 14.0938C7.95512 14.0938 6.96426 13.7932 6.12145 13.23C5.27865 12.6669 4.62177 11.8665 4.23387 10.93C3.84597 9.99353 3.74448 8.96307 3.94223 7.96891C4.13998 6.97476 4.62809 6.06157 5.34483 5.34483C6.06157 4.62809 6.97476 4.13998 7.96891 3.94223C8.96307 3.74448 9.99353 3.84597 10.93 4.23387C11.8665 4.62177 12.6669 5.27865 13.23 6.12145C13.7932 6.96426 14.0938 7.95512 14.0938 8.96875C14.0938 10.328 13.5538 11.6316 12.5927 12.5927C11.6316 13.5538 10.328 14.0938 8.96875 14.0938ZM8.96875 6.40625C8.46194 6.40625 7.9665 6.55654 7.5451 6.83811C7.1237 7.11968 6.79526 7.51989 6.60131 7.98813C6.40736 8.45636 6.35662 8.97159 6.45549 9.46867C6.55436 9.96575 6.79842 10.4223 7.15679 10.7807C7.51516 11.1391 7.97176 11.3831 8.46883 11.482C8.96591 11.5809 9.48114 11.5301 9.94938 11.3362C10.4176 11.1422 10.8178 10.8138 11.0994 10.3924C11.381 9.971 11.5313 9.47557 11.5313 8.96875C11.5313 8.28913 11.2613 7.63735 10.7807 7.15679C10.3002 6.67623 9.64837 6.40625 8.96875 6.40625ZM8.96875 37.1563C7.95512 37.1563 6.96426 36.8557 6.12145 36.2925C5.27865 35.7294 4.62177 34.929 4.23387 33.9925C3.84597 33.056 3.74448 32.0256 3.94223 31.0314C4.13998 30.0373 4.62809 29.1241 5.34483 28.4073C6.06157 27.6906 6.97476 27.2025 7.96891 27.0047C8.96307 26.807 9.99353 26.9085 10.93 27.2964C11.8665 27.6843 12.6669 28.3412 13.23 29.184C13.7932 30.0268 14.0938 31.0176 14.0938 32.0313C14.0938 33.3905 13.5538 34.694 12.5927 35.6552C11.6316 36.6163 10.328 37.1563 8.96875 37.1563ZM8.96875 29.4688C8.46194 29.4688 7.9665 29.619 7.5451 29.9006C7.1237 30.1822 6.79526 30.5824 6.60131 31.0506C6.40736 31.5189 6.35662 32.0341 6.45549 32.5312C6.55436 33.0282 6.79842 33.4848 7.15679 33.8432C7.51516 34.2016 7.97176 34.4456 8.46883 34.5445C8.96591 34.6434 9.48114 34.5926 9.94938 34.3987C10.4176 34.2047 10.8178 33.8763 11.0994 33.4549C11.381 33.0335 11.5313 32.5381 11.5313 32.0313C11.5313 31.3516 11.2613 30.6999 10.7807 30.2193C10.3002 29.7387 9.64837 29.4688 8.96875 29.4688ZM32.0313 25.625C31.0176 25.625 30.0268 25.3244 29.184 24.7613C28.3412 24.1981 27.6843 23.3977 27.2964 22.4613C26.9085 21.5248 26.807 20.4943 27.0047 19.5002C27.2025 18.506 27.6906 17.5928 28.4073 16.8761C29.1241 16.1593 30.0373 15.6712 31.0314 15.4735C32.0256 15.2757 33.056 15.3772 33.9925 15.7651C34.929 16.153 35.7294 16.8099 36.2925 17.6527C36.8557 18.4955 37.1563 19.4864 37.1563 20.5C37.1563 21.8592 36.6163 23.1628 35.6552 24.1239C34.694 25.085 33.3905 25.625 32.0313 25.625ZM32.0313 17.9375C31.5244 17.9375 31.029 18.0878 30.6076 18.3694C30.1862 18.6509 29.8578 19.0511 29.6638 19.5194C29.4699 19.9876 29.4191 20.5028 29.518 20.9999C29.6169 21.497 29.8609 21.9536 30.2193 22.312C30.5777 22.6703 31.0343 22.9144 31.5313 23.0133C32.0284 23.1121 32.5436 23.0614 33.0119 22.8674C33.4801 22.6735 33.8803 22.3451 34.1619 21.9237C34.4435 21.5023 34.5938 21.0068 34.5938 20.5C34.5938 19.8204 34.3238 19.1686 33.8432 18.688C33.3627 18.2075 32.7109 17.9375 32.0313 17.9375Z" fill="black"/>
</svg>
