<svg width="424" height="176" viewBox="0 0 424 176" fill="none" xmlns="http://www.w3.org/2000/svg">
<path d="M292.925 55.333L391.229 17.2279V93.4381L292.925 55.333Z" fill="url(#paint0_linear_2158_34)"/>
<path d="M131.072 132L32.7678 170.105L32.7678 93.8949L131.072 132Z" fill="url(#paint1_linear_2158_34)"/>
<path d="M376.337 108L278.033 146.105V69.8949L376.337 108Z" fill="url(#paint2_linear_2158_34)"/>
<path d="M156.888 79.3335L255.192 41.2284V117.439L156.888 79.3335Z" fill="url(#paint3_linear_2158_34)"/>
<path d="M0.00146484 66L98.3055 27.8949L98.3055 104.105L0.00146484 66Z" fill="url(#paint4_linear_2158_34)"/>
<path d="M213.488 44L115.184 82.1051L115.184 5.89488L213.488 44Z" fill="url(#paint5_linear_2158_34)"/>
<rect x="403" y="154" width="384" height="128" rx="43" transform="rotate(-180 403 154)" fill="black" fill-opacity="0.01"/>
<defs>
<linearGradient id="paint0_linear_2158_34" x1="292.925" y1="55.333" x2="423.997" y2="55.333" gradientUnits="userSpaceOnUse">
<stop offset="0.225962" stop-color="white"/>
<stop offset="0.653846" stop-color="#00FF9F"/>
<stop offset="0.653946" stop-color="#00FF9F"/>
</linearGradient>
<linearGradient id="paint1_linear_2158_34" x1="131.072" y1="132" x2="-0.000244141" y2="132" gradientUnits="userSpaceOnUse">
<stop offset="0.225962" stop-color="white"/>
<stop offset="0.653846" stop-color="#00FF9F"/>
<stop offset="0.653946" stop-color="#00FF9F"/>
</linearGradient>
<linearGradient id="paint2_linear_2158_34" x1="376.337" y1="108" x2="245.265" y2="108" gradientUnits="userSpaceOnUse">
<stop offset="0.225962" stop-color="white"/>
<stop offset="0.653846" stop-color="#00FF9F"/>
<stop offset="0.653946" stop-color="#00FF9F"/>
</linearGradient>
<linearGradient id="paint3_linear_2158_34" x1="156.888" y1="79.3335" x2="287.96" y2="79.3335" gradientUnits="userSpaceOnUse">
<stop offset="0.225962" stop-color="white"/>
<stop offset="0.653846" stop-color="#00FF9F"/>
<stop offset="0.653946" stop-color="#00FF9F"/>
</linearGradient>
<linearGradient id="paint4_linear_2158_34" x1="0.00146484" y1="66" x2="131.073" y2="66" gradientUnits="userSpaceOnUse">
<stop offset="0.225962" stop-color="white"/>
<stop offset="0.653846" stop-color="#00FF9F"/>
<stop offset="0.653946" stop-color="#00FF9F"/>
</linearGradient>
<linearGradient id="paint5_linear_2158_34" x1="213.488" y1="44" x2="82.4158" y2="44" gradientUnits="userSpaceOnUse">
<stop offset="0.225962" stop-color="white"/>
<stop offset="0.653846" stop-color="#00FF9F"/>
<stop offset="0.653946" stop-color="#00FF9F"/>
</linearGradient>
</defs>
</svg>
