<svg width="424" height="176" viewBox="0 0 424 176" fill="none" xmlns="http://www.w3.org/2000/svg">
<path d="M131.072 120.667L32.7682 158.772V82.5619L131.072 120.667Z" fill="url(#paint0_linear_2158_33)"/>
<path d="M292.926 44L391.23 5.89488V82.1051L292.926 44Z" fill="url(#paint1_linear_2158_33)"/>
<path d="M47.6602 68L145.964 29.8949V106.105L47.6602 68Z" fill="url(#paint2_linear_2158_33)"/>
<path d="M267.109 96.6665L168.805 134.772V58.5614L267.109 96.6665Z" fill="url(#paint3_linear_2158_33)"/>
<path d="M423.996 110L325.692 148.105V71.8949L423.996 110Z" fill="url(#paint4_linear_2158_33)"/>
<path d="M210.51 132L308.814 93.8949V170.105L210.51 132Z" fill="url(#paint5_linear_2158_33)"/>
<rect x="20.998" y="22" width="384" height="128" rx="43" fill="black" fill-opacity="0.01"/>
<defs>
<linearGradient id="paint0_linear_2158_33" x1="131.072" y1="120.667" x2="0.000244141" y2="120.667" gradientUnits="userSpaceOnUse">
<stop offset="0.225962" stop-color="white"/>
<stop offset="0.653846" stop-color="#00FF9F"/>
<stop offset="0.653946" stop-color="#00FF9F"/>
</linearGradient>
<linearGradient id="paint1_linear_2158_33" x1="292.926" y1="44" x2="423.998" y2="44" gradientUnits="userSpaceOnUse">
<stop offset="0.225962" stop-color="white"/>
<stop offset="0.653846" stop-color="#00FF9F"/>
<stop offset="0.653946" stop-color="#00FF9F"/>
</linearGradient>
<linearGradient id="paint2_linear_2158_33" x1="47.6602" y1="68" x2="178.732" y2="68" gradientUnits="userSpaceOnUse">
<stop offset="0.225962" stop-color="white"/>
<stop offset="0.653846" stop-color="#00FF9F"/>
<stop offset="0.653946" stop-color="#00FF9F"/>
</linearGradient>
<linearGradient id="paint3_linear_2158_33" x1="267.109" y1="96.6665" x2="136.037" y2="96.6665" gradientUnits="userSpaceOnUse">
<stop offset="0.225962" stop-color="white"/>
<stop offset="0.653846" stop-color="#00FF9F"/>
<stop offset="0.653946" stop-color="#00FF9F"/>
</linearGradient>
<linearGradient id="paint4_linear_2158_33" x1="423.996" y1="110" x2="292.924" y2="110" gradientUnits="userSpaceOnUse">
<stop offset="0.225962" stop-color="white"/>
<stop offset="0.653846" stop-color="#00FF9F"/>
<stop offset="0.653946" stop-color="#00FF9F"/>
</linearGradient>
<linearGradient id="paint5_linear_2158_33" x1="210.51" y1="132" x2="341.582" y2="132" gradientUnits="userSpaceOnUse">
<stop offset="0.225962" stop-color="white"/>
<stop offset="0.653846" stop-color="#00FF9F"/>
<stop offset="0.653946" stop-color="#00FF9F"/>
</linearGradient>
</defs>
</svg>
