<svg width="42" height="44" viewBox="0 0 42 44" fill="none" xmlns="http://www.w3.org/2000/svg">
<path d="M20.9997 0.5L1.0951 20.4046C0.714057 20.7857 0.5 21.3026 0.5 21.8416C0.5 22.3805 0.714057 22.8974 1.0951 23.2786L20.9997 43.1831C22.8863 41.2964 23.9461 38.7374 23.9461 36.0693C23.9461 33.4011 22.8863 30.8422 20.9997 28.9554L13.8858 21.8416L20.9997 14.7277" stroke="black" stroke-linecap="round" stroke-linejoin="round"/>
<path d="M21.0011 43.1831L40.9057 23.2786C41.2867 22.8974 41.5008 22.3805 41.5008 21.8416C41.5008 21.3026 41.2867 20.7857 40.9057 20.4046L21.0011 0.5C19.1145 2.38678 18.0547 4.94568 18.0547 7.61386C18.0547 10.282 19.1145 12.8409 21.0011 14.7277L28.115 21.8416L21.0011 28.9554" stroke="black" stroke-linecap="round" stroke-linejoin="round"/>
</svg>
