<svg width="33" height="33" viewBox="0 0 33 33" fill="none" xmlns="http://www.w3.org/2000/svg">
<mask id="mask0_2411_454" style="mask-type:luminance" maskUnits="userSpaceOnUse" x="0" y="0" width="33" height="33">
<path d="M22 1.375C22 1.01033 22.1449 0.660591 22.4027 0.402728C22.6606 0.144866 23.0103 0 23.375 0H31.625C31.9897 0 32.3394 0.144866 32.5973 0.402728C32.8551 0.660591 33 1.01033 33 1.375V31.625C33 31.9897 32.8551 32.3394 32.5973 32.5973C32.3394 32.8551 31.9897 33 31.625 33H23.375C23.0103 33 22.6606 32.8551 22.4027 32.5973C22.1449 32.3394 22 31.9897 22 31.625V1.375ZM0 1.375C0 1.01033 0.144866 0.660591 0.402728 0.402728C0.660591 0.144866 1.01033 0 1.375 0H17.875C18.2397 0 18.5894 0.144866 18.8473 0.402728C19.1051 0.660591 19.25 1.01033 19.25 1.375V6.875C19.25 7.23967 19.1051 7.58941 18.8473 7.84727C18.5894 8.10513 18.2397 8.25 17.875 8.25H1.375C1.01033 8.25 0.660591 8.10513 0.402728 7.84727C0.144866 7.58941 0 7.23967 0 6.875V1.375ZM0 13.75C0 13.3853 0.144866 13.0356 0.402728 12.7777C0.660591 12.5199 1.01033 12.375 1.375 12.375H17.875C18.2397 12.375 18.5894 12.5199 18.8473 12.7777C19.1051 13.0356 19.25 13.3853 19.25 13.75V19.25C19.25 19.6147 19.1051 19.9644 18.8473 20.2223C18.5894 20.4801 18.2397 20.625 17.875 20.625H1.375C1.01033 20.625 0.660591 20.4801 0.402728 20.2223C0.144866 19.9644 0 19.6147 0 19.25V13.75ZM0 26.125C0 25.7603 0.144866 25.4106 0.402728 25.1527C0.660591 24.8949 1.01033 24.75 1.375 24.75H17.875C18.2397 24.75 18.5894 24.8949 18.8473 25.1527C19.1051 25.4106 19.25 25.7603 19.25 26.125V31.625C19.25 31.9897 19.1051 32.3394 18.8473 32.5973C18.5894 32.8551 18.2397 33 17.875 33H1.375C1.01033 33 0.660591 32.8551 0.402728 32.5973C0.144866 32.3394 0 31.9897 0 31.625V26.125Z" fill="white"/>
</mask>
<g mask="url(#mask0_2411_454)">
<path d="M22 1.375C22 1.01033 22.1449 0.660591 22.4027 0.402728C22.6606 0.144866 23.0103 0 23.375 0H31.625C31.9897 0 32.3394 0.144866 32.5973 0.402728C32.8551 0.660591 33 1.01033 33 1.375V31.625C33 31.9897 32.8551 32.3394 32.5973 32.5973C32.3394 32.8551 31.9897 33 31.625 33H23.375C23.0103 33 22.6606 32.8551 22.4027 32.5973C22.1449 32.3394 22 31.9897 22 31.625V1.375ZM0 1.375C0 1.01033 0.144866 0.660591 0.402728 0.402728C0.660591 0.144866 1.01033 0 1.375 0H17.875C18.2397 0 18.5894 0.144866 18.8473 0.402728C19.1051 0.660591 19.25 1.01033 19.25 1.375V6.875C19.25 7.23967 19.1051 7.58941 18.8473 7.84727C18.5894 8.10513 18.2397 8.25 17.875 8.25H1.375C1.01033 8.25 0.660591 8.10513 0.402728 7.84727C0.144866 7.58941 0 7.23967 0 6.875V1.375ZM0 13.75C0 13.3853 0.144866 13.0356 0.402728 12.7777C0.660591 12.5199 1.01033 12.375 1.375 12.375H17.875C18.2397 12.375 18.5894 12.5199 18.8473 12.7777C19.1051 13.0356 19.25 13.3853 19.25 13.75V19.25C19.25 19.6147 19.1051 19.9644 18.8473 20.2223C18.5894 20.4801 18.2397 20.625 17.875 20.625H1.375C1.01033 20.625 0.660591 20.4801 0.402728 20.2223C0.144866 19.9644 0 19.6147 0 19.25V13.75ZM0 26.125C0 25.7603 0.144866 25.4106 0.402728 25.1527C0.660591 24.8949 1.01033 24.75 1.375 24.75H17.875C18.2397 24.75 18.5894 24.8949 18.8473 25.1527C19.1051 25.4106 19.25 25.7603 19.25 26.125V31.625C19.25 31.9897 19.1051 32.3394 18.8473 32.5973C18.5894 32.8551 18.2397 33 17.875 33H1.375C1.01033 33 0.660591 32.8551 0.402728 32.5973C0.144866 32.3394 0 31.9897 0 31.625V26.125Z" stroke="black" stroke-width="2"/>
</g>
</svg>
