<svg width="83" height="76" viewBox="0 0 83 76" fill="none" xmlns="http://www.w3.org/2000/svg">
<g filter="url(#filter0_d_3031_1634)">
<path d="M54.9167 2.5H27.25C17.4698 2.5 12.5763 2.5 9.53987 5.53987C6.5 8.57629 6.5 13.4698 6.5 23.25V30.1667C6.5 39.9468 6.5 44.8404 9.53987 47.8768C12.5763 50.9167 17.4698 50.9167 27.25 50.9167H54.9167C64.6968 50.9167 69.5904 50.9167 72.6268 47.8768C75.6667 44.8404 75.6667 39.9468 75.6667 30.1667V23.25C75.6667 13.4698 75.6667 8.57629 72.6268 5.53987C69.5904 2.5 64.6968 2.5 54.9167 2.5Z" stroke="black" stroke-width="5" stroke-linecap="round" stroke-linejoin="round"/>
<path d="M48.0007 64.7502H54.9173M48.0007 64.7502C46.6248 64.7502 45.3054 64.2036 44.3325 63.2308C43.3597 62.2579 42.8132 60.9385 42.8132 59.5627V50.9168H41.084M48.0007 64.7502H34.1673M41.084 50.9168H39.3548V59.5627C39.3548 60.9385 38.8083 62.2579 37.8354 63.2308C36.8626 64.2036 35.5431 64.7502 34.1673 64.7502M41.084 50.9168V64.7502M34.1673 64.7502H27.2507M48.0007 23.2502C48.0007 21.4157 47.2719 19.6565 45.9748 18.3593C44.6777 17.0622 42.9184 16.3335 41.084 16.3335C39.2496 16.3335 37.4903 17.0622 36.1932 18.3593C34.896 19.6565 34.1673 21.4157 34.1673 23.2502H32.4382C30.6037 23.2502 28.8445 23.9789 27.5473 25.276C26.2502 26.5731 25.5215 28.3324 25.5215 30.1668C25.5215 32.0012 26.2502 33.7605 27.5473 35.0577C28.8445 36.3548 30.6037 37.0835 32.4382 37.0835H49.7298C51.5642 37.0835 53.3235 36.3548 54.6206 35.0577C55.9178 33.7605 56.6465 32.0012 56.6465 30.1668C56.6465 28.3324 55.9178 26.5731 54.6206 25.276C53.3235 23.9789 51.5642 23.2502 49.7298 23.2502H48.0007Z" stroke="black" stroke-width="5" stroke-linecap="round" stroke-linejoin="round"/>
</g>
<defs>
<filter id="filter0_d_3031_1634" x="0" y="0" width="82.166" height="75.25" filterUnits="userSpaceOnUse" color-interpolation-filters="sRGB">
<feFlood flood-opacity="0" result="BackgroundImageFix"/>
<feColorMatrix in="SourceAlpha" type="matrix" values="0 0 0 0 0 0 0 0 0 0 0 0 0 0 0 0 0 0 127 0" result="hardAlpha"/>
<feOffset dy="4"/>
<feGaussianBlur stdDeviation="2"/>
<feComposite in2="hardAlpha" operator="out"/>
<feColorMatrix type="matrix" values="0 0 0 0 0 0 0 0 0 0 0 0 0 0 0 0 0 0 0.25 0"/>
<feBlend mode="normal" in2="BackgroundImageFix" result="effect1_dropShadow_3031_1634"/>
<feBlend mode="normal" in="SourceGraphic" in2="effect1_dropShadow_3031_1634" result="shape"/>
</filter>
</defs>
</svg>
