<svg width="55" height="61" viewBox="0 0 55 61" fill="none" xmlns="http://www.w3.org/2000/svg">
<path d="M46.75 5.50019H37.6805C37.4081 5.09526 37.1144 4.70513 36.8005 4.33144L36.773 4.29844C34.7518 1.94601 31.9095 0.453051 28.8255 0.123938C27.9496 -0.0413126 27.0504 -0.0413126 26.1745 0.123938C23.0905 0.453051 20.2482 1.94601 18.227 4.29844L18.1995 4.33144C17.8857 4.70424 17.592 5.09345 17.3195 5.49744V5.50019H8.25C6.06263 5.50237 3.96548 6.37227 2.41878 7.91897C0.87208 9.46567 0.00218409 11.5628 0 13.7502V52.2502C0.00218409 54.4376 0.87208 56.5347 2.41878 58.0814C3.96548 59.6281 6.06263 60.498 8.25 60.5002H46.75C48.9374 60.498 51.0345 59.6281 52.5812 58.0814C54.1279 56.5347 54.9978 54.4376 55 52.2502V13.7502C54.9978 11.5628 54.1279 9.46567 52.5812 7.91897C51.0345 6.37227 48.9374 5.50237 46.75 5.50019ZM49.5 52.2502C49.5 52.9795 49.2103 53.679 48.6945 54.1947C48.1788 54.7105 47.4793 55.0002 46.75 55.0002H8.25C7.52065 55.0002 6.82118 54.7105 6.30546 54.1947C5.78973 53.679 5.5 52.9795 5.5 52.2502V13.7502C5.5 13.0208 5.78973 12.3214 6.30546 11.8056C6.82118 11.2899 7.52065 11.0002 8.25 11.0002H20.7625C21.0781 9.44604 21.9213 8.04879 23.1491 7.04517C24.377 6.04155 25.9141 5.4933 27.5 5.4933C29.0859 5.4933 30.623 6.04155 31.8509 7.04517C33.0787 8.04879 33.9219 9.44604 34.2375 11.0002H46.75C47.4793 11.0002 48.1788 11.2899 48.6945 11.8056C49.2103 12.3214 49.5 13.0208 49.5 13.7502V52.2502Z" fill="white"/>
</svg>
