<svg width="44" height="54" viewBox="0 0 44 54" fill="none" xmlns="http://www.w3.org/2000/svg">
<path d="M24.6667 13.3333C24.6667 14.0406 24.3857 14.7189 23.8856 15.219C23.3855 15.719 22.7072 16 22 16C21.2928 16 20.6145 15.719 20.1144 15.219C19.6143 14.7189 19.3333 14.0406 19.3333 13.3333C19.3333 12.6261 19.6143 11.9478 20.1144 11.4477C20.6145 10.9476 21.2928 10.6667 22 10.6667C22.7072 10.6667 23.3855 10.9476 23.8856 11.4477C24.3857 11.9478 24.6667 12.6261 24.6667 13.3333ZM20 20.6667V34C20 34.5304 20.2107 35.0391 20.5858 35.4142C20.9609 35.7893 21.4696 36 22 36C22.5304 36 23.0391 35.7893 23.4142 35.4142C23.7893 35.0391 24 34.5304 24 34V20.6667C24 20.1362 23.7893 19.6275 23.4142 19.2525C23.0391 18.8774 22.5304 18.6667 22 18.6667C21.4696 18.6667 20.9609 18.8774 20.5858 19.2525C20.2107 19.6275 20 20.1362 20 20.6667ZM0 6.66667C0 4.89856 0.702379 3.20286 1.95262 1.95262C3.20286 0.702379 4.89856 0 6.66667 0H37.3333C38.2088 0 39.0757 0.172438 39.8846 0.50747C40.6934 0.842501 41.4283 1.33356 42.0474 1.95262C42.6664 2.57168 43.1575 3.30661 43.4925 4.11544C43.8276 4.92428 44 5.79119 44 6.66667V44.6667C44 45.1971 43.7893 45.7058 43.4142 46.0809C43.0391 46.456 42.5304 46.6667 42 46.6667H4C4 47.3739 4.28095 48.0522 4.78105 48.5523C5.28115 49.0524 5.95942 49.3333 6.66667 49.3333H42C42.5304 49.3333 43.0391 49.544 43.4142 49.9191C43.7893 50.2942 44 50.8029 44 51.3333C44 51.8638 43.7893 52.3725 43.4142 52.7475C43.0391 53.1226 42.5304 53.3333 42 53.3333H6.66667C4.89856 53.3333 3.20286 52.631 1.95262 51.3807C0.702379 50.1305 0 48.4348 0 46.6667V6.66667ZM40 42.6667V6.66667C40 5.95942 39.7191 5.28115 39.219 4.78105C38.7189 4.28095 38.0406 4 37.3333 4H6.66667C5.95942 4 5.28115 4.28095 4.78105 4.78105C4.28095 5.28115 4 5.95942 4 6.66667V42.6667H40Z" fill="white"/>
</svg>
