<svg width="64" height="68" viewBox="0 0 64 68" fill="none" xmlns="http://www.w3.org/2000/svg">
<g filter="url(#filter0_d_3253_862)">
<path d="M46 60C43.2311 60 40.5243 59.1789 38.222 57.6406C35.9197 56.1022 34.1253 53.9157 33.0657 51.3576C32.0061 48.7994 31.7288 45.9845 32.269 43.2687C32.8092 40.553 34.1426 38.0584 36.1005 36.1005C38.0584 34.1426 40.553 32.8092 43.2687 32.269C45.9845 31.7288 48.7994 32.0061 51.3576 33.0657C53.9157 34.1253 56.1022 35.9197 57.6406 38.222C59.1789 40.5243 60 43.2311 60 46C59.9947 49.7114 58.518 53.2693 55.8937 55.8937C53.2693 58.518 49.7114 59.9947 46 60ZM46 36C44.0222 36 42.0888 36.5865 40.4443 37.6853C38.7998 38.7841 37.5181 40.3459 36.7612 42.1732C36.0043 44.0004 35.8063 46.0111 36.1922 47.9509C36.578 49.8907 37.5304 51.6726 38.9289 53.0711C40.3275 54.4696 42.1093 55.422 44.0491 55.8079C45.9889 56.1937 47.9996 55.9957 49.8268 55.2388C51.6541 54.4819 53.2159 53.2002 54.3147 51.5557C55.4135 49.9112 56 47.9778 56 46C55.9968 43.3488 54.9422 40.8071 53.0676 38.9324C51.1929 37.0578 48.6512 36.0032 46 36Z" fill="white"/>
<path d="M52 49.172L48 45.172V40H44V46.828L49.172 52L52 49.172ZM16 32H28V36H16V32ZM16 20H40V24H16V20Z" fill="white"/>
<path d="M52 8C52 6.93913 51.5786 5.92172 50.8284 5.17157C50.0783 4.42143 49.0609 4 48 4H8.00002C6.93915 4 5.92173 4.42143 5.17159 5.17157C4.42144 5.92172 4.00002 6.93913 4.00002 8V34C3.99534 37.9887 5.07714 41.9034 7.12928 45.3238C9.18142 48.7441 12.1264 51.541 15.648 53.414L26 58.934V54.4L17.532 49.884C14.6513 48.3507 12.2422 46.0623 10.563 43.264C8.88377 40.4658 7.99779 37.2634 8.00002 34V8H48V26H52V8Z" fill="white"/>
</g>
<defs>
<filter id="filter0_d_3253_862" x="-4" y="0" width="72" height="72" filterUnits="userSpaceOnUse" color-interpolation-filters="sRGB">
<feFlood flood-opacity="0" result="BackgroundImageFix"/>
<feColorMatrix in="SourceAlpha" type="matrix" values="0 0 0 0 0 0 0 0 0 0 0 0 0 0 0 0 0 0 127 0" result="hardAlpha"/>
<feOffset dy="4"/>
<feGaussianBlur stdDeviation="2"/>
<feComposite in2="hardAlpha" operator="out"/>
<feColorMatrix type="matrix" values="0 0 0 0 0 0 0 0 0 0 0 0 0 0 0 0 0 0 0.25 0"/>
<feBlend mode="normal" in2="BackgroundImageFix" result="effect1_dropShadow_3253_862"/>
<feBlend mode="normal" in="SourceGraphic" in2="effect1_dropShadow_3253_862" result="shape"/>
</filter>
</defs>
</svg>
