<svg width="77" height="59" viewBox="0 0 77 59" fill="none" xmlns="http://www.w3.org/2000/svg">
<g filter="url(#filter0_d_3253_475)">
<path fill-rule="evenodd" clip-rule="evenodd" d="M10.1607 8.00893C10.1607 6.98871 10.9887 6.16071 12.0089 6.16071H64.9911C66.0113 6.16071 66.8393 6.98871 66.8393 8.00893V42.5089C66.8393 42.9991 66.6446 43.4692 66.298 43.8158C65.9513 44.1624 65.4812 44.3571 64.9911 44.3571H12.0089C11.5188 44.3571 11.0487 44.1624 10.702 43.8158C10.3554 43.4692 10.1607 42.9991 10.1607 42.5089V8.00893ZM12.0089 0C7.588 0 4 3.588 4 8.00893V42.5089C4 46.9348 7.588 50.5179 12.0089 50.5179H64.9911C69.4169 50.5179 73 46.9348 73 42.5089V8.00893C73 3.588 69.4169 0 64.9911 0H12.0089ZM16.9375 25.2589C16.9375 22.6447 17.976 20.1374 19.8246 18.2889C21.6732 16.4403 24.1804 15.4018 26.7946 15.4018C29.4089 15.4018 31.9161 16.4403 33.7647 18.2889C35.6133 20.1374 36.6518 22.6447 36.6518 25.2589C36.6518 27.8732 35.6133 30.3804 33.7647 32.229C31.9161 34.0775 29.4089 35.1161 26.7946 35.1161C24.1804 35.1161 21.6732 34.0775 19.8246 32.229C17.976 30.3804 16.9375 27.8732 16.9375 25.2589ZM42.1964 17.8661C42.1964 16.1657 43.5764 14.7857 45.2768 14.7857H57.5982C58.4152 14.7857 59.1987 15.1103 59.7764 15.6879C60.354 16.2656 60.6786 17.0491 60.6786 17.8661C60.6786 18.683 60.354 19.4665 59.7764 20.0442C59.1987 20.6219 58.4152 20.9464 57.5982 20.9464H45.2768C44.4598 20.9464 43.6763 20.6219 43.0986 20.0442C42.521 19.4665 42.1964 18.683 42.1964 17.8661ZM45.2768 29.5714C44.4598 29.5714 43.6763 29.896 43.0986 30.4736C42.521 31.0513 42.1964 31.8348 42.1964 32.6518C42.1964 33.4687 42.521 34.2523 43.0986 34.8299C43.6763 35.4076 44.4598 35.7321 45.2768 35.7321H57.5982C58.4152 35.7321 59.1987 35.4076 59.7764 34.8299C60.354 34.2523 60.6786 33.4687 60.6786 32.6518C60.6786 31.8348 60.354 31.0513 59.7764 30.4736C59.1987 29.896 58.4152 29.5714 57.5982 29.5714H45.2768Z" fill="white"/>
</g>
<defs>
<filter id="filter0_d_3253_475" x="0" y="0" width="77" height="58.5181" filterUnits="userSpaceOnUse" color-interpolation-filters="sRGB">
<feFlood flood-opacity="0" result="BackgroundImageFix"/>
<feColorMatrix in="SourceAlpha" type="matrix" values="0 0 0 0 0 0 0 0 0 0 0 0 0 0 0 0 0 0 127 0" result="hardAlpha"/>
<feOffset dy="4"/>
<feGaussianBlur stdDeviation="2"/>
<feComposite in2="hardAlpha" operator="out"/>
<feColorMatrix type="matrix" values="0 0 0 0 0 0 0 0 0 0 0 0 0 0 0 0 0 0 0.25 0"/>
<feBlend mode="normal" in2="BackgroundImageFix" result="effect1_dropShadow_3253_475"/>
<feBlend mode="normal" in="SourceGraphic" in2="effect1_dropShadow_3253_475" result="shape"/>
</filter>
</defs>
</svg>
