<svg width="67" height="67" viewBox="0 0 67 67" fill="none" xmlns="http://www.w3.org/2000/svg">
<path d="M43.8622 64.5V61.3721C43.8759 60.5539 44.2272 59.7735 44.8406 59.1989C45.454 58.6243 46.2804 58.3015 47.1418 58.3H47.3865C52.0596 58.2628 56.0734 55.1814 57.0263 50.8972L57.0589 50.736L58.7558 42.8L61.8233 41.3616C63.4713 40.5928 64.2904 40.2053 64.4666 39.5016C64.6461 38.7948 64.0946 38.1066 62.9949 36.7271L56.7685 28.9523C56.1485 28.1773 55.8385 27.7929 55.6753 27.3837C55.5121 26.9745 55.4567 26.3917 55.3555 25.2354C54.2329 12.5037 42.8506 2.5 28.9718 2.5C14.3523 2.5 2.5 13.6042 2.5 27.3C2.5 35.825 7.09145 43.3425 14.0847 47.8065M14.0847 47.8065V64.5M14.0847 47.8065C16.1265 49.1179 18.3535 50.148 20.6994 50.8662" stroke="white" stroke-width="5" stroke-linecap="round" stroke-linejoin="round"/>
</svg>
