<svg width="69" height="72" viewBox="0 0 69 72" fill="none" xmlns="http://www.w3.org/2000/svg">
<g filter="url(#filter0_d_2587_382)">
<path d="M63.25 8.625H5.75V25.875H8.625V57.5C8.625 59.025 9.2308 60.4875 10.3091 61.5659C11.3875 62.6442 12.85 63.25 14.375 63.25H54.625C56.15 63.25 57.6125 62.6442 58.6909 61.5659C59.7692 60.4875 60.375 59.025 60.375 57.5V25.875H63.25V8.625ZM11.5 14.375H57.5V20.125H11.5V14.375ZM54.625 57.5H14.375V25.875H54.625V57.5ZM48.875 31.625V48.875H43.125V41.4287L33.6663 50.8875L29.6125 46.8338L39.0713 37.375H31.625V31.625H48.875Z" fill="white"/>
</g>
<defs>
<filter id="filter0_d_2587_382" x="-4" y="0" width="77" height="77" filterUnits="userSpaceOnUse" color-interpolation-filters="sRGB">
<feFlood flood-opacity="0" result="BackgroundImageFix"/>
<feColorMatrix in="SourceAlpha" type="matrix" values="0 0 0 0 0 0 0 0 0 0 0 0 0 0 0 0 0 0 127 0" result="hardAlpha"/>
<feOffset dy="4"/>
<feGaussianBlur stdDeviation="2"/>
<feColorMatrix type="matrix" values="0 0 0 0 0 0 0 0 0 0 0 0 0 0 0 0 0 0 0.25 0"/>
<feBlend mode="normal" in2="BackgroundImageFix" result="effect1_dropShadow_2587_382"/>
<feBlend mode="normal" in="SourceGraphic" in2="effect1_dropShadow_2587_382" result="shape"/>
</filter>
</defs>
</svg>
