<svg width="80" height="80" viewBox="0 0 80 80" fill="none" xmlns="http://www.w3.org/2000/svg">
<g filter="url(#filter0_d_2587_226)">
<path d="M31.2472 21.3597C28.3472 21.4714 25.7255 22.5064 24.3239 23.9097C24.169 24.0644 23.9852 24.1872 23.7829 24.2709C23.5806 24.3546 23.3638 24.3976 23.1449 24.3975C22.926 24.3974 22.7093 24.3543 22.507 24.2704C22.3048 24.1866 22.1211 24.0637 21.9664 23.9089C21.8116 23.754 21.6889 23.5702 21.6052 23.3679C21.5215 23.1656 21.4784 22.9488 21.4785 22.7299C21.4786 22.511 21.5218 22.2943 21.6056 22.092C21.6895 21.8898 21.8123 21.7061 21.9672 21.5514C24.1289 19.3897 27.6489 18.163 31.1172 18.028C34.6089 17.893 38.4205 18.848 41.0905 21.518C41.403 21.8308 41.5785 22.2548 41.5784 22.6969C41.5782 23.1391 41.4024 23.563 41.0897 23.8755C40.777 24.188 40.3529 24.3635 39.9108 24.3634C39.4686 24.3632 39.0447 24.1874 38.7322 23.8747C36.9155 22.0564 34.1255 21.2464 31.2472 21.358" fill="white"/>
<path fill-rule="evenodd" clip-rule="evenodd" d="M48.2267 45.64C51.5311 41.7346 53.3409 36.7825 53.3333 31.6667C53.3333 19.7 43.6333 10 31.6667 10C19.7 10 10 19.7 10 31.6667C10 43.6333 19.7 53.3333 31.6667 53.3333C36.9917 53.3333 41.8667 51.4133 45.64 48.2267L45 51.9067L57.5233 64.43L64.43 57.5233L51.9067 45L48.2267 45.64ZM31.6667 48.3333C40.8717 48.3333 48.3333 40.8717 48.3333 31.6667C48.3333 22.4617 40.8717 15 31.6667 15C22.4617 15 15 22.4617 15 31.6667C15 40.8717 22.4617 48.3333 31.6667 48.3333Z" fill="white"/>
<path d="M59.8809 66.7865L66.7875 59.8799L69.0475 62.1399C70.3192 63.4115 70.3192 65.4732 69.0475 66.7432L66.7442 69.0465C65.4725 70.3182 63.4109 70.3182 62.1409 69.0465L59.8809 66.7865Z" fill="white"/>
</g>
<defs>
<filter id="filter0_d_2587_226" x="-4" y="0" width="88" height="88" filterUnits="userSpaceOnUse" color-interpolation-filters="sRGB">
<feFlood flood-opacity="0" result="BackgroundImageFix"/>
<feColorMatrix in="SourceAlpha" type="matrix" values="0 0 0 0 0 0 0 0 0 0 0 0 0 0 0 0 0 0 127 0" result="hardAlpha"/>
<feOffset dy="4"/>
<feGaussianBlur stdDeviation="2"/>
<feColorMatrix type="matrix" values="0 0 0 0 0 0 0 0 0 0 0 0 0 0 0 0 0 0 0.25 0"/>
<feBlend mode="normal" in2="BackgroundImageFix" result="effect1_dropShadow_2587_226"/>
<feBlend mode="normal" in="SourceGraphic" in2="effect1_dropShadow_2587_226" result="shape"/>
</filter>
</defs>
</svg>
