<svg width="77" height="73" viewBox="0 0 77 73" fill="none" xmlns="http://www.w3.org/2000/svg">
<g filter="url(#filter0_d_2587_465)">
<path d="M12.625 21.5625H21.25C22.3937 21.5625 23.4906 21.1081 24.2994 20.2994C25.1081 19.4906 25.5625 18.3937 25.5625 17.25V8.625C25.5625 7.48125 25.1081 6.38435 24.2994 5.5756C23.4906 4.76685 22.3937 4.3125 21.25 4.3125H12.625C11.4813 4.3125 10.3844 4.76685 9.5756 5.5756C8.76685 6.38435 8.3125 7.48125 8.3125 8.625V17.25C8.3125 18.3937 8.76685 19.4906 9.5756 20.2994C10.3844 21.1081 11.4813 21.5625 12.625 21.5625ZM12.625 8.625H21.25V17.25H12.625V8.625ZM64.375 47.4375H55.75C54.6063 47.4375 53.5094 47.8919 52.7006 48.7006C51.8919 49.5094 51.4375 50.6063 51.4375 51.75V60.375C51.4375 61.5187 51.8919 62.6156 52.7006 63.4244C53.5094 64.2331 54.6063 64.6875 55.75 64.6875H64.375C65.5187 64.6875 66.6156 64.2331 67.4244 63.4244C68.2331 62.6156 68.6875 61.5187 68.6875 60.375V51.75C68.6875 50.6063 68.2331 49.5094 67.4244 48.7006C66.6156 47.8919 65.5187 47.4375 64.375 47.4375ZM64.375 60.375H55.75V51.75H64.375V60.375ZM50.1739 27.1386L47.125 30.1875L60.0625 43.125L73 30.1875L69.9511 27.1386L62.2188 34.8709V15.0938C62.2188 13.95 61.7644 12.8531 60.9556 12.0444C60.1469 11.2356 59.05 10.7812 57.9062 10.7812H29.875V15.0938H57.9062V34.8709L50.1739 27.1386ZM19.0938 34.1291L26.8261 41.8614L29.875 38.8125L16.9375 25.875L4 38.8125L7.04894 41.8614L14.7812 34.1291V53.9062C14.7812 55.05 15.2356 56.1469 16.0444 56.9556C16.8531 57.7644 17.95 58.2188 19.0938 58.2188H47.125V53.9062H19.0938V34.1291Z" fill="white"/>
</g>
<defs>
<filter id="filter0_d_2587_465" x="0" y="0" width="77" height="77" filterUnits="userSpaceOnUse" color-interpolation-filters="sRGB">
<feFlood flood-opacity="0" result="BackgroundImageFix"/>
<feColorMatrix in="SourceAlpha" type="matrix" values="0 0 0 0 0 0 0 0 0 0 0 0 0 0 0 0 0 0 127 0" result="hardAlpha"/>
<feOffset dy="4"/>
<feGaussianBlur stdDeviation="2"/>
<feColorMatrix type="matrix" values="0 0 0 0 0 0 0 0 0 0 0 0 0 0 0 0 0 0 0.25 0"/>
<feBlend mode="normal" in2="BackgroundImageFix" result="effect1_dropShadow_2587_465"/>
<feBlend mode="normal" in="SourceGraphic" in2="effect1_dropShadow_2587_465" result="shape"/>
</filter>
</defs>
</svg>
