<svg width="72" height="63" viewBox="0 0 72 63" fill="none" xmlns="http://www.w3.org/2000/svg">
<g filter="url(#filter0_d_2587_317)">
<path d="M39.75 44.88C36.7506 43.4303 34.1747 41.2332 32.27 38.5H9.5V5.5H59V11.715C61.2253 13.281 63.0987 15.2949 64.5 17.6275V5.5C64.5 4.04131 63.9205 2.64236 62.8891 1.61091C61.8576 0.579462 60.4587 0 59 0H9.5C8.04131 0 6.64236 0.579462 5.61091 1.61091C4.57946 2.64236 4 4.04131 4 5.5V38.5C4 39.9587 4.57946 41.3576 5.61091 42.3891C6.64236 43.4205 8.04131 44 9.5 44H28.75V49.5H23.25V55H45.25V49.5H39.75V44.88Z" fill="white"/>
<path d="M50.75 14.7256C47.4866 14.7256 44.2965 15.6933 41.5831 17.5063C38.8697 19.3194 36.7548 21.8963 35.506 24.9113C34.2571 27.9263 33.9304 31.2439 34.5671 34.4446C35.2037 37.6453 36.7752 40.5853 39.0827 42.8928C41.3903 45.2004 44.3303 46.7719 47.531 47.4085C50.7317 48.0452 54.0493 47.7184 57.0643 46.4696C60.0793 45.2207 62.6562 43.1059 64.4692 40.3925C66.2823 37.6791 67.25 34.489 67.25 31.2256C67.25 26.8495 65.5116 22.6527 62.4173 19.5583C59.3229 16.464 55.1261 14.7256 50.75 14.7256ZM50.75 35.3506C49.9342 35.3506 49.1366 35.1087 48.4583 34.6554C47.7799 34.2021 47.2512 33.5579 46.939 32.8041C46.6268 32.0504 46.5451 31.221 46.7043 30.4208C46.8634 29.6207 47.2563 28.8857 47.8332 28.3088C48.4101 27.7319 49.1451 27.339 49.9453 27.1798C50.7454 27.0207 51.5748 27.1024 52.3286 27.4146C53.0823 27.7268 53.7266 28.2555 54.1798 28.9339C54.6331 29.6122 54.875 30.4097 54.875 31.2256C54.875 32.3196 54.4404 33.3688 53.6668 34.1424C52.8932 34.916 51.844 35.3506 50.75 35.3506Z" fill="white"/>
</g>
<defs>
<filter id="filter0_d_2587_317" x="0" y="0" width="71.25" height="63" filterUnits="userSpaceOnUse" color-interpolation-filters="sRGB">
<feFlood flood-opacity="0" result="BackgroundImageFix"/>
<feColorMatrix in="SourceAlpha" type="matrix" values="0 0 0 0 0 0 0 0 0 0 0 0 0 0 0 0 0 0 127 0" result="hardAlpha"/>
<feOffset dy="4"/>
<feGaussianBlur stdDeviation="2"/>
<feComposite in2="hardAlpha" operator="out"/>
<feColorMatrix type="matrix" values="0 0 0 0 0 0 0 0 0 0 0 0 0 0 0 0 0 0 0.25 0"/>
<feBlend mode="normal" in2="BackgroundImageFix" result="effect1_dropShadow_2587_317"/>
<feBlend mode="normal" in="SourceGraphic" in2="effect1_dropShadow_2587_317" result="shape"/>
</filter>
</defs>
</svg>
