<svg width="33" height="43" viewBox="0 0 33 43" fill="none" xmlns="http://www.w3.org/2000/svg">
<path d="M16.4393 0.00304111C15.2965 -0.0143381 14.1309 0.0424578 13.3494 0.181491C10.0206 0.759662 7.21486 2.17078 4.89179 4.4401C2.50457 6.77357 1.02824 9.49404 0.311212 12.8873L0.0627085 14.042C0.0415668 23.6941 0.0209625 33.3461 0 42.9984C0.522092 43.0129 1.05887 42.9282 1.50787 42.8898C5.7147 42.376 9.29123 39.8291 11.2393 35.9648C11.7318 34.98 12.085 33.8471 12.3311 32.434C12.5345 31.2352 12.5452 30.8367 12.5132 24.5852L12.4816 18.0032L12.737 17.3629C13.0903 16.4849 14.0673 15.5081 14.945 15.1548L15.5853 14.8993L21.5797 14.8889C24.8766 14.8889 27.769 14.8441 27.9939 14.8013C29.0427 14.598 30.165 13.7215 30.6147 12.7473C30.7432 12.4797 30.9141 11.9563 30.9892 11.603C31.1069 11.0143 31.0974 10.853 30.9261 10.1894C30.391 8.2198 28.5069 5.48912 26.5801 3.89418C24.3964 2.08514 21.9868 0.875583 19.3857 0.26552C18.7005 0.110362 17.582 0.0204203 16.4393 0.00304111ZM31.7345 12.1874C31.6439 12.5096 31.559 12.8436 31.4264 13.1218C30.8247 14.4258 29.5663 15.4108 28.1618 15.6832C21.5797 15.7846 23.6124 15.7837 21.5797 15.7846L15.7604 15.7951L15.2775 15.9876C14.7159 16.2137 13.7958 17.1337 13.5699 17.6952L13.3775 18.1747L13.4088 24.5817C13.4355 29.7574 13.4214 30.9996 13.3004 31.9723C14.228 32.1371 15.1682 32.2202 16.1103 32.2206C25.0081 32.2208 32.221 25.0077 32.221 16.1099C32.2204 14.7874 32.0571 13.47 31.7345 12.1874Z" fill="black"/>
</svg>
