<svg width="71" height="71" viewBox="0 0 71 71" fill="none" xmlns="http://www.w3.org/2000/svg">
<path d="M64.3438 71H6.65625C4.8909 71 3.19786 70.2987 1.94957 69.0504C0.701281 67.8021 0 66.1091 0 64.3438L0 6.65625C0 4.8909 0.701281 3.19786 1.94957 1.94957C3.19786 0.701281 4.8909 0 6.65625 0L64.3438 0C66.1091 0 67.8021 0.701281 69.0504 1.94957C70.2987 3.19786 71 4.8909 71 6.65625V64.3438C71 66.1091 70.2987 67.8021 69.0504 69.0504C67.8021 70.2987 66.1091 71 64.3438 71ZM6.65625 4.4375C6.0678 4.4375 5.50345 4.67126 5.08736 5.08736C4.67126 5.50345 4.4375 6.0678 4.4375 6.65625V64.3438C4.4375 64.9322 4.67126 65.4966 5.08736 65.9126C5.50345 66.3287 6.0678 66.5625 6.65625 66.5625H64.3438C64.9322 66.5625 65.4966 66.3287 65.9126 65.9126C66.3287 65.4966 66.5625 64.9322 66.5625 64.3438V6.65625C66.5625 6.0678 66.3287 5.50345 65.9126 5.08736C65.4966 4.67126 64.9322 4.4375 64.3438 4.4375H6.65625Z" fill="black"/>
</svg>
