<svg width="54" height="56" viewBox="0 0 54 56" fill="none" xmlns="http://www.w3.org/2000/svg">
<path d="M22.125 7.75L27.875 2M16.375 39.375L39.375 16.375M27.875 53.75L33.625 48M40.8125 48C42.7187 48 44.5469 47.2427 45.8948 45.8948C47.2427 44.5469 48 42.7187 48 40.8125C48 38.9063 47.2427 37.0781 45.8948 35.7302C44.5469 34.3823 42.7187 33.625 40.8125 33.625C38.9063 33.625 37.0781 34.3823 35.7302 35.7302C34.3823 37.0781 33.625 38.9063 33.625 40.8125C33.625 42.7187 34.3823 44.5469 35.7302 45.8948C37.0781 47.2427 38.9063 48 40.8125 48ZM14.9375 22.125C16.8437 22.125 18.6719 21.3677 20.0198 20.0198C21.3677 18.6719 22.125 16.8437 22.125 14.9375C22.125 13.0313 21.3677 11.2031 20.0198 9.85517C18.6719 8.50725 16.8437 7.75 14.9375 7.75C13.0313 7.75 11.2031 8.50725 9.85517 9.85517C8.50725 11.2031 7.75 13.0313 7.75 14.9375C7.75 16.8437 8.50725 18.6719 9.85517 20.0198C11.2031 21.3677 13.0313 22.125 14.9375 22.125ZM9.1875 53.75C11.0937 53.75 12.9219 52.9927 14.2698 51.6448C15.6177 50.2969 16.375 48.4687 16.375 46.5625C16.375 44.6563 15.6177 42.8281 14.2698 41.4802C12.9219 40.1323 11.0937 39.375 9.1875 39.375C7.28126 39.375 5.45309 40.1323 4.10517 41.4802C2.75725 42.8281 2 44.6563 2 46.5625C2 48.4687 2.75725 50.2969 4.10517 51.6448C5.45309 52.9927 7.28126 53.75 9.1875 53.75ZM46.5625 16.375C48.4687 16.375 50.2969 15.6177 51.6448 14.2698C52.9927 12.9219 53.75 11.0937 53.75 9.1875C53.75 7.28126 52.9927 5.45309 51.6448 4.10517C50.2969 2.75725 48.4687 2 46.5625 2C44.6563 2 42.8281 2.75725 41.4802 4.10517C40.1323 5.45309 39.375 7.28126 39.375 9.1875C39.375 11.0937 40.1323 12.9219 41.4802 14.2698C42.8281 15.6177 44.6563 16.375 46.5625 16.375Z" stroke="black" stroke-width="4" stroke-linecap="round" stroke-linejoin="round"/>
</svg>
