<svg width="48" height="55" viewBox="0 0 48 55" fill="none" xmlns="http://www.w3.org/2000/svg">
<path d="M48 4C48 2.93913 47.5786 1.92172 46.8284 1.17157C46.0783 0.421427 45.0609 0 44 0H4.00002C2.93915 0 1.92173 0.421427 1.17159 1.17157C0.421442 1.92172 1.50921e-05 2.93913 1.50921e-05 4V30C-0.00466051 33.9887 1.07714 37.9034 3.12928 41.3238C5.18142 44.7441 8.12639 47.541 11.648 49.414L22 54.934V50.4L13.532 45.884C10.6513 44.3507 8.24218 42.0623 6.56297 39.264C4.88377 36.4658 3.99779 33.2634 4.00002 30V4H44V22H48V4Z" fill="black"/>
</svg>
