<svg width="233" height="204" viewBox="0 0 233 204" fill="none" xmlns="http://www.w3.org/2000/svg">
<path opacity="0.15" d="M84.1177 26.0645L115.924 44.428V81.1551L84.1177 99.5187L52.3111 81.1551V44.428L84.1177 26.0645Z" fill="#00FF9F"/>
<path opacity="0.15" d="M130.718 89.251L180.309 117.882V175.145L130.718 203.776L81.1268 175.145V117.882L130.718 89.251Z" fill="#00FF9F"/>
<path opacity="0.15" d="M36.7271 86.8813L68.5337 105.245V141.972L36.7271 160.336L4.9205 141.972V105.245L36.7271 86.8813Z" fill="#A0A0A0"/>
<path opacity="0.15" d="M207.726 86.8813L229.614 99.5186V124.793L207.726 137.431L185.837 124.793V99.5186L207.726 86.8813Z" fill="#A0A0A0"/>
<path opacity="0.15" d="M169.813 0L212.222 24.4847V73.4542L169.813 97.939L127.404 73.4542V24.4847L169.813 0Z" fill="#A0A0A0"/>
</svg>
