<svg width="436" height="446" viewBox="0 0 436 446" fill="none" xmlns="http://www.w3.org/2000/svg">
<path d="M0.0125503 0.685124C243.852 -5.34848 371.431 137.519 371.43 222.636" stroke="#00FF9F" stroke-opacity="0.1"/>
<path d="M0.0125503 444.401C243.852 450.434 371.431 307.567 371.43 222.45" stroke="#00FF9F" stroke-opacity="0.1"/>
<path d="M15.5204 0.685124C259.36 -5.34848 386.939 137.519 386.937 222.636" stroke="#00FF9F" stroke-opacity="0.3"/>
<path d="M15.5204 444.401C259.36 450.434 386.939 307.567 386.937 222.45" stroke="#00FF9F" stroke-opacity="0.3"/>
<path d="M31.0301 0.685124C274.87 -5.34848 402.449 137.519 402.447 222.636" stroke="#00FF9F" stroke-opacity="0.5"/>
<path d="M31.0301 444.401C274.87 450.434 402.449 307.567 402.447 222.45" stroke="#00FF9F" stroke-opacity="0.5"/>
<path d="M46.536 0.685124C290.375 -5.34848 417.955 137.519 417.953 222.636" stroke="#00FF9F" stroke-opacity="0.65"/>
<path d="M46.536 444.401C290.375 450.434 417.955 307.567 417.953 222.45" stroke="#00FF9F" stroke-opacity="0.65"/>
<path d="M63.5946 0.685124C307.434 -5.34848 435.014 137.519 435.012 222.636" stroke="#00FF9F" stroke-opacity="0.99"/>
<path d="M63.5946 444.401C307.434 450.434 435.014 307.567 435.012 222.45" stroke="#00FF9F" stroke-opacity="0.99"/>
</svg>
