<svg width="810" height="183" viewBox="0 0 810 183" fill="none" xmlns="http://www.w3.org/2000/svg">
<path opacity="0.15" d="M53.8109 77.0098L84.5737 94.7707V130.293L53.8109 148.053L23.0481 130.293V94.7707L53.8109 77.0098Z" fill="#00FF9F"/>
<path opacity="0.15" d="M89.6839 13L120.447 30.7609V66.2827L89.6839 84.0436L58.9211 66.2827V30.7609L89.6839 13Z" fill="#00FF9F"/>
<path opacity="0.15" d="M93.2007 135.392L113.608 147.174V170.738L93.2007 182.52L72.7937 170.738V147.174L93.2007 135.392Z" fill="#00FF9F"/>
<path opacity="0.15" d="M296.564 42L316.971 53.782V77.346L296.564 89.128L276.157 77.346V53.782L296.564 42Z" fill="#00FF9F"/>
<path opacity="0.15" d="M785.564 54L805.971 65.782V89.346L785.564 101.128L765.157 89.346V65.782L785.564 54Z" fill="#00FF9F"/>
<path opacity="0.15" d="M25.8339 32.6953L48.2068 45.6123V71.4462L25.8339 84.3632L3.46109 71.4462V45.6123L25.8339 32.6953Z" fill="#A0A0A0"/>
<path opacity="0.15" d="M115.166 84.0435L137.539 96.9604V122.794L115.166 135.711L92.7931 122.794V96.9604L115.166 84.0435Z" fill="#A0A0A0"/>
<path opacity="0.15" d="M325.834 0L348.207 12.917V38.7509L325.834 51.6679L303.461 38.7509V12.917L325.834 0Z" fill="#A0A0A0"/>
<path opacity="0.15" d="M325.834 0L348.207 12.917V38.7509L325.834 51.6679L303.461 38.7509V12.917L325.834 0Z" fill="#A0A0A0"/>
<path opacity="0.15" d="M731.834 54L754.207 66.917V92.7509L731.834 105.668L709.461 92.7509V66.917L731.834 54Z" fill="#A0A0A0"/>
<path opacity="0.15" d="M758.564 12L778.971 23.782V47.346L758.564 59.128L738.157 47.346V23.782L758.564 12Z" fill="#00FF9F"/>
</svg>
