<svg width="405" height="446" viewBox="0 0 405 446" fill="none" xmlns="http://www.w3.org/2000/svg">
<path d="M404.499 0.685124C178.037 -5.34848 59.5491 137.519 59.5508 222.636" stroke="#00FF9F" stroke-opacity="0.1"/>
<path d="M404.499 444.401C178.037 450.434 59.5491 307.567 59.5508 222.45" stroke="#00FF9F" stroke-opacity="0.1"/>
<path d="M390.097 0.685124C163.634 -5.34848 45.1468 137.519 45.1484 222.636" stroke="#00FF9F" stroke-opacity="0.3"/>
<path d="M390.097 444.401C163.634 450.434 45.1468 307.567 45.1484 222.45" stroke="#00FF9F" stroke-opacity="0.3"/>
<path d="M375.695 0.685124C149.232 -5.34848 30.7444 137.519 30.7461 222.636" stroke="#00FF9F" stroke-opacity="0.5"/>
<path d="M375.695 444.401C149.232 450.434 30.7444 307.567 30.7461 222.45" stroke="#00FF9F" stroke-opacity="0.5"/>
<path d="M361.29 0.685124C134.828 -5.34848 16.3401 137.519 16.3418 222.636" stroke="#00FF9F" stroke-opacity="0.65"/>
<path d="M361.29 444.401C134.828 450.434 16.3401 307.567 16.3418 222.45" stroke="#00FF9F" stroke-opacity="0.65"/>
<path d="M345.449 0.685124C118.986 -5.34848 0.498345 137.519 0.5 222.636" stroke="#00FF9F" stroke-opacity="0.99"/>
<path d="M345.449 444.401C118.986 450.434 0.498345 307.567 0.5 222.45" stroke="#00FF9F" stroke-opacity="0.99"/>
</svg>
