<svg width="43" height="43" viewBox="0 0 43 43" fill="none" xmlns="http://www.w3.org/2000/svg">
<path d="M11.3564 41.2585C11.1467 40.2552 10.7239 38.2521 10.672 38.2521C1.75483 32.9219 2.81012 23.6894 5.76458 18.413C6.39704 25.06 18.1629 29.6521 11.3044 37.7773C11.2507 37.883 11.6215 39.1479 11.9369 40.3089C13.3093 37.9869 15.3679 35.1919 15.2622 34.9268C6.81987 14.3512 33.2004 12.7674 38.6865 0C41.1679 12.3446 37.4215 31.4438 16.2118 36.2992C16.1043 36.3529 12.3597 42.9463 12.202 43C12.202 42.8943 10.6182 42.9463 10.8296 42.4195C10.9353 42.1024 11.1467 41.6813 11.3564 41.2585ZM11.093 36.2992C13.7841 33.187 10.6182 27.8568 8.71904 26.1171C11.9369 31.657 11.7272 34.8748 11.093 36.2992Z" fill="black"/>
</svg>
