<svg width="43" height="43" viewBox="0 0 43 43" fill="none" xmlns="http://www.w3.org/2000/svg">
<g clip-path="url(#clip0_2460_203)">
<path d="M32.7693 10.2232C32.5356 9.9894 32.2581 9.80398 31.9526 9.67747C31.6472 9.55095 31.3199 9.48584 30.9893 9.48584C30.6587 9.48584 30.3314 9.55095 30.026 9.67747C29.7205 9.80398 29.443 9.9894 29.2093 10.2232L8.44924 30.9886L10.8214 26.2407L6.07349 21.4945L12.0075 15.5623L16.7554 20.3102L20.3137 16.7484L13.7884 10.2232C13.5547 9.9894 13.2771 9.80398 12.9717 9.67747C12.6663 9.55095 12.339 9.48584 12.0084 9.48584C11.6778 9.48584 11.3505 9.55095 11.045 9.67747C10.7396 9.80398 10.4621 9.9894 10.2284 10.2232L0.736114 19.7154C0.502141 19.949 0.316523 20.2265 0.189878 20.5319C0.0632336 20.8374 -0.00195312 21.1648 -0.00195312 21.4954C-0.00195312 21.8261 0.0632336 22.1535 0.189878 22.4589C0.316523 22.7644 0.502141 23.0418 0.736114 23.2755L8.44924 30.9886L10.2284 32.7659C10.4621 32.9997 10.7396 33.1851 11.045 33.3116C11.3505 33.4381 11.6778 33.5032 12.0084 33.5032C12.339 33.5032 12.6663 33.4381 12.9717 33.3116C13.2771 33.1851 13.5547 32.9997 13.7884 32.7659L34.552 12.0041L32.7729 10.2232H32.7693ZM32.1745 16.7574L36.9224 21.5053L29.2075 29.2184C28.9739 29.4521 28.7885 29.7294 28.6621 30.0347C28.5356 30.3399 28.4706 30.6671 28.4706 30.9975C28.4706 31.328 28.5356 31.6551 28.6621 31.9604C28.7885 32.2657 28.9739 32.543 29.2075 32.7767C29.4411 33.0103 29.7185 33.1956 30.0238 33.3221C30.329 33.4485 30.6562 33.5136 30.9866 33.5136C31.317 33.5136 31.6442 33.4485 31.9495 33.3221C32.2547 33.1956 32.5321 33.0103 32.7657 32.7767L42.2598 23.2844C42.4938 23.0508 42.6794 22.7733 42.806 22.4679C42.9327 22.1624 42.9978 21.835 42.9978 21.5044C42.9978 21.1737 42.9327 20.8463 42.806 20.5409C42.6794 20.2355 42.4938 19.958 42.2598 19.7244L34.5467 12.013L32.1745 16.7574Z" fill="black"/>
</g>
<defs>
<clipPath id="clip0_2460_203">
<rect width="43" height="43" fill="white"/>
</clipPath>
</defs>
</svg>
