<svg width="43" height="43" viewBox="0 0 43 43" fill="none" xmlns="http://www.w3.org/2000/svg">
<path d="M13.2942 18.0065C12.9717 17.7198 12.47 17.5944 11.7892 17.5944H10.75L10.7858 21.9661L10.8575 26.3557L11.8608 26.3198C12.5954 26.3198 12.9896 26.1944 13.3479 25.854C13.7779 25.424 13.8137 25.209 13.8137 21.9123C13.8137 18.4902 13.7779 18.4007 13.2942 18.0065ZM0 8.85107V34.1494H43V8.85107H0ZM15.3367 27.4127C14.5483 28.4519 13.4375 28.7923 10.8038 28.7923H8.43875V15.2832H10.9471C13.9392 15.2832 14.8171 15.6057 15.6054 16.8957C16.0892 17.6661 16.125 17.9707 16.1787 21.5002C16.2683 25.4957 16.1429 26.3915 15.3367 27.4127ZM24.4562 17.6123H20.0308V20.7836H22.7542V23.0769L21.4642 23.1486L20.1204 23.2023V26.3736L22.3062 26.4273L24.4562 26.499V28.7923H21.5896C18.8483 28.7923 18.7229 28.7744 18.2392 28.2548L17.7017 27.7532V22.0915C17.7017 16.6807 17.7196 16.394 18.1496 15.8565C18.5617 15.3011 18.5975 15.3011 21.5179 15.3011H24.4562V17.6302V17.6123ZM32.8412 27.3769C32.5367 28.1473 31.6946 28.7923 31.0496 28.7923C30.7271 28.7923 30.2433 28.5236 29.8492 28.0936C29.2758 27.5202 29.0429 26.9648 28.38 24.3669L26.7675 18.2932L25.9612 15.3011H27.3229C28.0396 15.3011 28.6667 15.3369 28.6667 15.3907C28.6667 15.4982 30.745 23.5248 30.9242 24.0444C30.9958 24.3132 31.4975 22.7902 32.2321 19.9236L33.4146 15.4086L34.7404 15.3369C35.4571 15.3011 36.0483 15.3369 36.0483 15.4086C36.0483 15.6594 33.0562 26.8394 32.8233 27.3769H32.8412Z" fill="black"/>
</svg>
