<svg width="43" height="43" viewBox="0 0 43 43" fill="none" xmlns="http://www.w3.org/2000/svg">
<path d="M6.04705 23.4325C4.50192 21.8874 4.50192 18.1908 5.91304 16.7799C7.32415 15.369 11.7583 11.0018 14.9826 7.7773C18.2083 4.55302 21.0304 4.08217 21.9037 4.08217H28.4875C28.8858 4.08217 29.4778 4.13986 30.1423 4.24055L28.1947 8.12202C26.6292 8.00932 25.1828 8.04641 24.1205 8.04641C19.7535 8.04641 19.4166 9.05369 18.6778 9.79275C17.9387 10.5318 9.60817 18.4599 9.0033 19.065C7.12134 20.9468 10.0104 21.8198 13.1693 21.8198C14.5802 21.8198 14.7814 23.298 14.4448 24.6419C14.2624 25.3727 13.7847 27.204 13.3843 29.1721H9.55191C9.70134 28.413 9.84718 27.7904 9.94321 27.4629C10.28 26.3216 10.3469 25.3129 9.675 25.3129C9.00313 25.3129 7.59201 24.9777 6.04705 23.4325ZM38.3732 5.66009C38.0211 5.30803 34.4602 3.24188 33.4056 2.75741C33.1165 2.62501 32.8694 2.56982 32.6581 2.56982C32.0981 2.56982 31.7886 2.95718 31.6061 3.32107L26.0198 14.4538C23.2177 15.2552 21.1637 17.835 21.1637 20.8948C21.1637 23.4667 22.6128 25.6992 24.7399 26.8236C23.9202 27.7974 22.7087 28.7953 22.4252 29.1261C22.0214 29.5969 21.0143 30.0678 19.2665 30.0678H7.82457C7.77117 27.9529 6.04168 26.2539 3.913 26.2539C1.75225 26.2539 0 28.0061 0 30.1669C0 32.3291 1.75225 34.0815 3.913 34.0815C5.55865 34.0815 6.96528 33.0667 7.54417 31.6282H20.1564C21.9028 31.6282 22.9115 31.1587 23.3137 30.6879C23.696 30.2416 25.7608 28.5866 26.285 27.4072C26.791 27.5306 27.3213 27.5976 27.8667 27.5976C31.5681 27.5976 34.5682 24.5973 34.5682 20.8946C34.5693 19.6815 34.24 18.491 33.6158 17.4509C35.2585 14.1354 36.9026 10.8207 38.5482 7.50676C39.0329 6.53944 38.7253 6.01215 38.3732 5.66009ZM38.8869 8.83887C38.461 9.69636 37.8086 11.0118 37.1077 12.4247C38.3565 14.2273 39.171 16.746 39.171 20.3417C39.171 29.4783 34.333 30.487 33.3257 30.487H29.495C28.6889 30.487 28.084 30.6211 26.6059 32.0992C25.1278 33.5773 23.045 35.3905 22.4399 35.9953C21.8365 36.6002 20.9618 37.004 19.4168 37.004H14.6474C13.9754 37.004 12.7656 36.6672 12.7656 33.8452C12.7656 33.4492 12.8036 32.9943 12.8531 32.524H9.06422C8.96012 33.6723 8.93003 34.813 9.07031 35.7261C9.47398 38.3469 11.6242 40.4299 13.4373 40.4299H20.5596C23.8523 40.4299 29.8988 34.3165 29.8988 34.3165C29.8988 34.3165 31.8827 34.4386 33.0575 34.4065C36.7068 34.3078 43 31.2936 43 21.2155C43 15.2772 41.2169 11.4017 38.8869 8.83887Z" fill="black"/>
</svg>
