<svg width="43" height="43" viewBox="0 0 43 43" fill="none" xmlns="http://www.w3.org/2000/svg">
<g clip-path="url(#clip0_2460_201)">
<path d="M21.8279 0.00304111C20.6852 -0.0143381 19.5195 0.0424578 18.738 0.181491C15.4093 0.759662 12.6035 2.17078 10.2805 4.4401C7.89324 6.77357 6.41691 9.49404 5.69988 12.8873L5.45138 14.042C5.43024 23.6941 5.40963 33.3461 5.38867 42.9984C5.91076 43.0129 6.44755 42.9282 6.89654 42.8898C11.1034 42.376 14.6799 39.8291 16.628 35.9648C17.1205 34.98 17.4736 33.8471 17.7198 32.434C17.9232 31.2352 17.9339 30.8367 17.9019 24.5852L17.8703 18.0032L18.1256 17.3629C18.4789 16.4849 19.4559 15.5081 20.3337 15.1548L20.974 14.8993L26.9684 14.8889C30.2652 14.8889 33.1577 14.8441 33.3826 14.8013C34.4314 14.598 35.5537 13.7215 36.0034 12.7473C36.1319 12.4797 36.3028 11.9563 36.3779 11.603C36.4956 11.0143 36.4861 10.853 36.3148 10.1894C35.7796 8.2198 33.8955 5.48912 31.9688 3.89418C29.7851 2.08514 27.3755 0.875583 24.7743 0.26552C24.0892 0.110362 22.9707 0.0204203 21.8279 0.00304111ZM37.1232 12.1874C37.0326 12.5096 36.9476 12.8436 36.815 13.1218C36.2134 14.4258 34.9549 15.4108 33.5504 15.6832C26.9684 15.7846 29.001 15.7837 26.9684 15.7846L21.1491 15.7951L20.6662 15.9876C20.1045 16.2137 19.1845 17.1337 18.9586 17.6952L18.7662 18.1747L18.7975 24.5817C18.8242 29.7574 18.81 30.9996 18.6891 31.9723C19.6167 32.1371 20.5569 32.2202 21.499 32.2206C30.3968 32.2208 37.6096 25.0077 37.6096 16.1099C37.6091 14.7874 37.4457 13.47 37.1232 12.1874Z" fill="black"/>
</g>
<defs>
<clipPath id="clip0_2460_201">
<rect width="43" height="43" fill="white"/>
</clipPath>
</defs>
</svg>
