<svg width="69" height="61" viewBox="0 0 69 61" fill="none" xmlns="http://www.w3.org/2000/svg">
<path d="M8.625 17.25H17.25C18.3937 17.25 19.4906 16.7956 20.2994 15.9869C21.1081 15.1781 21.5625 14.0812 21.5625 12.9375V4.3125C21.5625 3.16875 21.1081 2.07185 20.2994 1.2631C19.4906 0.454351 18.3937 0 17.25 0H8.625C7.48125 0 6.38435 0.454351 5.5756 1.2631C4.76685 2.07185 4.3125 3.16875 4.3125 4.3125V12.9375C4.3125 14.0812 4.76685 15.1781 5.5756 15.9869C6.38435 16.7956 7.48125 17.25 8.625 17.25ZM8.625 4.3125H17.25V12.9375H8.625V4.3125ZM60.375 43.125H51.75C50.6063 43.125 49.5094 43.5794 48.7006 44.3881C47.8919 45.1969 47.4375 46.2938 47.4375 47.4375V56.0625C47.4375 57.2062 47.8919 58.3031 48.7006 59.1119C49.5094 59.9206 50.6063 60.375 51.75 60.375H60.375C61.5187 60.375 62.6156 59.9206 63.4244 59.1119C64.2331 58.3031 64.6875 57.2062 64.6875 56.0625V47.4375C64.6875 46.2938 64.2331 45.1969 63.4244 44.3881C62.6156 43.5794 61.5187 43.125 60.375 43.125ZM60.375 56.0625H51.75V47.4375H60.375V56.0625ZM46.1739 22.8261L43.125 25.875L56.0625 38.8125L69 25.875L65.9511 22.8261L58.2188 30.5584V10.7812C58.2188 9.6375 57.7644 8.5406 56.9556 7.73185C56.1469 6.9231 55.05 6.46875 53.9062 6.46875H25.875V10.7812H53.9062V30.5584L46.1739 22.8261ZM15.0938 29.8166L22.8261 37.5489L25.875 34.5L12.9375 21.5625L0 34.5L3.04894 37.5489L10.7812 29.8166V49.5938C10.7812 50.7375 11.2356 51.8344 12.0444 52.6431C12.8531 53.4519 13.95 53.9062 15.0938 53.9062H43.125V49.5938H15.0938V29.8166Z" fill="black"/>
</svg>
