<svg width="54" height="59" viewBox="0 0 54 59" fill="none" xmlns="http://www.w3.org/2000/svg">
<path d="M19.3667 1.5H3.175C2.24992 1.5 1.5 2.24992 1.5 3.175V13.7833C1.5 14.7084 2.24992 15.4583 3.175 15.4583H19.3667C20.2917 15.4583 21.0417 14.7084 21.0417 13.7833V3.175C21.0417 2.24992 20.2917 1.5 19.3667 1.5Z" stroke="black" stroke-width="3"/>
<path d="M34.7202 43.375H18.5285C17.6034 43.375 16.8535 44.1249 16.8535 45.05V55.6583C16.8535 56.5834 17.6034 57.3333 18.5285 57.3333H34.7202C35.6453 57.3333 36.3952 56.5834 36.3952 55.6583V45.05C36.3952 44.1249 35.6453 43.375 34.7202 43.375Z" stroke="black" stroke-width="3"/>
<path d="M50.0756 1.5H33.884C32.9589 1.5 32.209 2.24992 32.209 3.175V13.7833C32.209 14.7084 32.9589 15.4583 33.884 15.4583H50.0756C51.0007 15.4583 51.7507 14.7084 51.7507 13.7833V3.175C51.7507 2.24992 51.0007 1.5 50.0756 1.5Z" stroke="black" stroke-width="3"/>
<path d="M11.2715 15.4585V25.2293C11.2715 26.7101 11.8597 28.1303 12.9068 29.1773C13.9539 30.2244 15.374 30.8127 16.8548 30.8127H36.3965C37.8773 30.8127 39.2974 30.2244 40.3445 29.1773C41.3916 28.1303 41.9798 26.7101 41.9798 25.2293V15.4585M26.6257 30.8127V43.3752" stroke="black" stroke-width="3"/>
</svg>
