<svg width="69" height="44" viewBox="0 0 69 44" fill="none" xmlns="http://www.w3.org/2000/svg">
<path d="M64.2236 5.77637C66.0921 7.64486 67.5163 9.764 68.4961 12.1338C69.4759 14.5036 69.9772 17.0215 70 19.6875C70 20.485 69.9772 21.4421 69.9316 22.5586C69.8861 23.6751 69.7949 24.8828 69.6582 26.1816C69.5215 27.4805 69.305 28.8135 69.0088 30.1807C68.7126 31.5479 68.3366 32.9036 67.8809 34.248C67.1973 36.2077 66.3997 37.8027 65.4883 39.0332C64.5768 40.2637 63.6312 41.2321 62.6514 41.9385C61.6716 42.6449 60.6803 43.1234 59.6777 43.374C58.6751 43.6247 57.7409 43.75 56.875 43.75C56.123 43.75 55.4395 43.6247 54.8242 43.374C54.209 43.1234 53.6165 42.7816 53.0469 42.3486C52.4772 41.9157 51.9531 41.4486 51.4746 40.9473C50.9961 40.446 50.5062 39.8991 50.0049 39.3066C49.5264 38.7598 49.0592 38.2357 48.6035 37.7344C48.1478 37.2331 47.6579 36.7887 47.1338 36.4014C46.6097 36.014 46.0856 35.6836 45.5615 35.4102C45.0374 35.1367 44.4222 35 43.7158 35H26.2842C25.6234 35.0228 25.0195 35.1595 24.4727 35.4102C23.9258 35.6608 23.3903 35.9798 22.8662 36.3672C22.3421 36.7546 21.8636 37.2103 21.4307 37.7344C20.9977 38.2585 20.5192 38.7826 19.9951 39.3066C19.5166 39.8535 19.0381 40.389 18.5596 40.9131C18.0811 41.4372 17.557 41.9157 16.9873 42.3486C16.4176 42.7816 15.8252 43.112 15.21 43.3398C14.5947 43.5677 13.8997 43.7044 13.125 43.75C12.2591 43.75 11.3249 43.6247 10.3223 43.374C9.31966 43.1234 8.32845 42.6562 7.34863 41.9727C6.36881 41.2891 5.42318 40.3206 4.51172 39.0674C3.60026 37.8141 2.80273 36.2077 2.11914 34.248C1.66341 32.9264 1.29883 31.582 1.02539 30.2148C0.751953 28.8477 0.535482 27.5033 0.375977 26.1816C0.216471 24.86 0.113932 23.6523 0.0683594 22.5586C0.0227865 21.4648 0 20.5078 0 19.6875C0 17.0443 0.489909 14.5378 1.46973 12.168C2.44954 9.79818 3.88509 7.66764 5.77637 5.77637C7.62207 3.90788 9.74121 2.48372 12.1338 1.50391C14.5264 0.524089 17.0443 0.0227865 19.6875 0H50.3125C52.9557 0 55.4622 0.489909 57.832 1.46973C60.2018 2.44954 62.3324 3.88509 64.2236 5.77637ZM63.7451 32.8125C64.1781 31.6048 64.5199 30.3516 64.7705 29.0527C65.0212 27.7539 65.2035 26.512 65.3174 25.3271C65.4313 24.1423 65.5111 23.0485 65.5566 22.0459C65.6022 21.0433 65.625 20.2572 65.625 19.6875C65.625 17.5684 65.2262 15.5859 64.4287 13.7402C63.6312 11.8945 62.5374 10.2767 61.1475 8.88672C59.7575 7.49674 58.1396 6.40299 56.2939 5.60547C54.4482 4.80794 52.4544 4.39779 50.3125 4.375H19.6875C17.5684 4.375 15.5859 4.77376 13.7402 5.57129C11.8945 6.36881 10.2767 7.46256 8.88672 8.85254C7.49674 10.2425 6.40299 11.8604 5.60547 13.7061C4.80794 15.5518 4.39779 17.5456 4.375 19.6875C4.375 20.2799 4.38639 21.0661 4.40918 22.0459C4.43197 23.0257 4.51172 24.1081 4.64844 25.293C4.78516 26.4779 4.97884 27.7311 5.22949 29.0527C5.48014 30.3743 5.82194 31.6276 6.25488 32.8125C6.82454 34.4531 7.45117 35.7178 8.13477 36.6064C8.81836 37.4951 9.47917 38.1445 10.1172 38.5547C10.7552 38.9648 11.3477 39.2041 11.8945 39.2725C12.4414 39.3408 12.8516 39.375 13.125 39.375C13.6263 39.375 14.1732 39.0788 14.7656 38.4863C15.3581 37.8939 15.9961 37.2103 16.6797 36.4355C17.2266 35.7975 17.8076 35.1481 18.4229 34.4873C19.0381 33.8265 19.7331 33.2113 20.5078 32.6416C21.2826 32.0719 22.137 31.6048 23.0713 31.2402C24.0055 30.8757 25.0423 30.6706 26.1816 30.625H43.8184C44.9577 30.6706 45.9945 30.8757 46.9287 31.2402C47.863 31.6048 48.7061 32.0605 49.458 32.6074C50.21 33.1543 50.9049 33.7695 51.543 34.4531C52.181 35.1367 52.7734 35.7975 53.3203 36.4355C53.9811 37.1875 54.6077 37.8597 55.2002 38.4521C55.7926 39.0446 56.3509 39.3522 56.875 39.375C57.1484 39.375 57.5472 39.3408 58.0713 39.2725C58.5954 39.2041 59.1878 38.9648 59.8486 38.5547C60.5094 38.1445 61.1816 37.4951 61.8652 36.6064C62.5488 35.7178 63.1755 34.4531 63.7451 32.8125ZM17.5 17.5H21.875V21.875H17.5V26.25H13.125V21.875H8.75V17.5H13.125V13.125H17.5V17.5ZM56.875 21.875C57.4902 21.875 58.0599 21.9889 58.584 22.2168C59.1081 22.4447 59.5638 22.7523 59.9512 23.1396C60.3385 23.527 60.6576 23.9941 60.9082 24.541C61.1589 25.0879 61.2728 25.6576 61.25 26.25C61.25 26.8652 61.1361 27.4349 60.9082 27.959C60.6803 28.4831 60.3727 28.9388 59.9854 29.3262C59.598 29.7135 59.1309 30.0326 58.584 30.2832C58.0371 30.5339 57.4674 30.6478 56.875 30.625C56.2598 30.625 55.6901 30.5111 55.166 30.2832C54.6419 30.0553 54.1862 29.7477 53.7988 29.3604C53.4115 28.973 53.0924 28.5059 52.8418 27.959C52.5911 27.4121 52.4772 26.8424 52.5 26.25C52.5 25.6348 52.6139 25.0651 52.8418 24.541C53.0697 24.0169 53.3773 23.5612 53.7646 23.1738C54.152 22.7865 54.6191 22.4674 55.166 22.2168C55.7129 21.9661 56.2826 21.8522 56.875 21.875ZM48.125 13.125C48.7402 13.125 49.3099 13.2389 49.834 13.4668C50.3581 13.6947 50.8138 14.0023 51.2012 14.3896C51.5885 14.777 51.9076 15.2441 52.1582 15.791C52.4089 16.3379 52.5228 16.9076 52.5 17.5C52.5 18.1152 52.3861 18.6849 52.1582 19.209C51.9303 19.7331 51.6227 20.1888 51.2354 20.5762C50.848 20.9635 50.3809 21.2826 49.834 21.5332C49.2871 21.7839 48.7174 21.8978 48.125 21.875C47.5098 21.875 46.9401 21.7611 46.416 21.5332C45.8919 21.3053 45.4362 20.9977 45.0488 20.6104C44.6615 20.223 44.3424 19.7559 44.0918 19.209C43.8411 18.6621 43.7272 18.0924 43.75 17.5C43.75 16.8848 43.8639 16.3151 44.0918 15.791C44.3197 15.2669 44.6273 14.8112 45.0146 14.4238C45.402 14.0365 45.8691 13.7174 46.416 13.4668C46.9629 13.2161 47.5326 13.1022 48.125 13.125Z" fill="#2A2A2A"/>
</svg>
