<svg width="58" height="55" viewBox="0 0 58 55" fill="none" xmlns="http://www.w3.org/2000/svg">
<path d="M57.5 0H0V17.25H2.875V48.875C2.875 50.4 3.4808 51.8625 4.55914 52.9409C5.63747 54.0192 7.10001 54.625 8.625 54.625H48.875C50.4 54.625 51.8625 54.0192 52.9409 52.9409C54.0192 51.8625 54.625 50.4 54.625 48.875V17.25H57.5V0ZM5.75 5.75H51.75V11.5H5.75V5.75ZM48.875 48.875H8.625V17.25H48.875V48.875ZM43.125 23V40.25H37.375V32.8037L27.9163 42.2625L23.8625 38.2088L33.3213 28.75H25.875V23H43.125Z" fill="black"/>
</svg>
