<svg width="69" height="69" viewBox="0 0 69 69" fill="none" xmlns="http://www.w3.org/2000/svg">
<g clip-path="url(#clip0_3031_1628)">
<g filter="url(#filter0_d_3031_1628)">
<path d="M30.1878 69L29.4115 68.6982C20.7436 65.4318 13.2812 59.594 8.02452 51.9671C2.76781 44.3403 -0.0320192 35.2888 0.000276275 26.026V11.73L30.1878 0.129395L60.3753 11.73V26.026C60.4032 35.2852 57.6013 44.3318 52.3449 51.9544C47.0885 59.577 39.6285 65.4115 30.964 68.6766L30.1878 69ZM4.31278 14.7056V26.026C4.29023 34.27 6.74496 42.3307 11.3587 49.1628C15.9724 55.995 22.5323 61.2834 30.1878 64.3425C37.8433 61.2834 44.4032 55.995 49.0169 49.1628C53.6306 42.3307 56.0853 34.27 56.0628 26.026V14.7056L30.1878 4.74377L4.31278 14.7056Z" fill="black"/>
<path d="M22.0613 39.3431H25.5035V48.1905H22.0613V39.3431ZM25.5035 26.2515V20.8096H22.0613V26.2515C20.913 26.6552 19.9452 27.4496 19.3289 28.4942C18.7126 29.5388 18.4875 30.7664 18.6935 31.96C18.8995 33.1536 19.5232 34.2364 20.4544 35.017C21.3856 35.7976 22.5644 36.2258 23.7824 36.2258C25.0004 36.2258 26.1792 35.7976 27.1104 35.017C28.0416 34.2364 28.6653 33.1536 28.8713 31.96C29.0773 30.7664 28.8522 29.5388 28.2359 28.4942C27.6197 27.4496 26.6518 26.6552 25.5035 26.2515ZM23.7824 32.7887C23.3259 32.7887 22.8882 32.6084 22.5654 32.2875C22.2427 31.9666 22.0613 31.5313 22.0613 31.0774C22.0613 30.6236 22.2427 30.1883 22.5654 29.8673C22.8882 29.5464 23.3259 29.3661 23.7824 29.3661C24.2389 29.3661 24.6766 29.5464 24.9994 29.8673C25.3222 30.1883 25.5035 30.6236 25.5035 31.0774C25.5035 31.5313 25.3222 31.9666 24.9994 32.2875C24.6766 32.6084 24.2389 32.7887 23.7824 32.7887ZM35.83 20.8096H39.2722V29.657H35.83V20.8096ZM42.7144 37.9227C42.717 36.9808 42.4591 36.0564 41.9687 35.2506C41.4784 34.4448 40.7746 33.7886 39.9343 33.3539C39.0941 32.9192 38.1497 32.7227 37.2046 32.7859C36.2596 32.8491 35.3502 33.1696 34.576 33.7123C33.8019 34.2549 33.1928 34.9989 32.8154 35.8627C32.438 36.7266 32.3069 37.677 32.4363 38.61C32.5658 39.543 32.9509 40.4226 33.5494 41.1525C34.148 41.8825 34.937 42.4346 35.83 42.7486V48.1905H39.2722V42.7486C40.2765 42.3955 41.1465 41.7422 41.7627 40.8782C42.379 40.0142 42.7114 38.9819 42.7144 37.9227ZM37.5511 39.634C37.0946 39.634 36.6569 39.4537 36.3341 39.1327C36.0113 38.8118 35.83 38.3765 35.83 37.9227C35.83 37.4688 36.0113 37.0335 36.3341 36.7126C36.6569 36.3917 37.0946 36.2114 37.5511 36.2114C38.0076 36.2114 38.4453 36.3917 38.7681 36.7126C39.0909 37.0335 39.2722 37.4688 39.2722 37.9227C39.2722 38.3765 39.0909 38.8118 38.7681 39.1327C38.4453 39.4537 38.0076 39.634 37.5511 39.634Z" fill="black"/>
</g>
</g>
<defs>
<filter id="filter0_d_3031_1628" x="-4" y="0.129395" width="68.375" height="76.8706" filterUnits="userSpaceOnUse" color-interpolation-filters="sRGB">
<feFlood flood-opacity="0" result="BackgroundImageFix"/>
<feColorMatrix in="SourceAlpha" type="matrix" values="0 0 0 0 0 0 0 0 0 0 0 0 0 0 0 0 0 0 127 0" result="hardAlpha"/>
<feOffset dy="4"/>
<feGaussianBlur stdDeviation="2"/>
<feComposite in2="hardAlpha" operator="out"/>
<feColorMatrix type="matrix" values="0 0 0 0 0 0 0 0 0 0 0 0 0 0 0 0 0 0 0.25 0"/>
<feBlend mode="normal" in2="BackgroundImageFix" result="effect1_dropShadow_3031_1628"/>
<feBlend mode="normal" in="SourceGraphic" in2="effect1_dropShadow_3031_1628" result="shape"/>
</filter>
<clipPath id="clip0_3031_1628">
<rect width="69" height="69" fill="white"/>
</clipPath>
</defs>
</svg>
