<svg width="63" height="64" viewBox="0 0 63 64" fill="none" xmlns="http://www.w3.org/2000/svg">
<path d="M20.9583 29.0833C24.5498 29.0833 27.9942 27.6566 30.5337 25.1171C33.0733 22.5775 34.5 19.1331 34.5 15.5417C34.5 11.9502 33.0733 8.50582 30.5337 5.96626C27.9942 3.42671 24.5498 2 20.9583 2C17.3669 2 13.9225 3.42671 11.3829 5.96626C8.84337 8.50582 7.41667 11.9502 7.41667 15.5417C7.41667 19.1331 8.84337 22.5775 11.3829 25.1171C13.9225 27.6566 17.3669 29.0833 20.9583 29.0833ZM20.9583 29.0833C26.4102 29.0833 31.1742 31.1417 34.5623 34.5623M20.9583 29.0833C10.125 29.0833 2 37.2083 2 48.0417V61.5833H20.9583M61.5833 39.9167L53.4583 31.7917L37.2083 48.0417M46.6875 38.5625L54.8125 46.6875M26.375 52.1042C26.3757 53.9006 27.09 55.6232 28.3608 56.893C29.6316 58.1628 31.3548 58.8757 33.1512 58.875C34.9477 58.8743 36.6703 58.16 37.9401 56.8892C39.2098 55.6184 39.9228 53.8952 39.9221 52.0987C39.9214 50.3023 39.207 48.5797 37.9362 47.3099C36.6655 46.0401 34.9423 45.3272 33.1458 45.3279C31.3494 45.3286 29.6268 46.043 28.357 47.3138C27.0872 48.5845 26.3743 50.3077 26.375 52.1042Z" stroke="black" stroke-width="4"/>
</svg>
