<svg width="200" height="30" viewBox="0 0 200 30" fill="none" xmlns="http://www.w3.org/2000/svg">
<path d="M0 28.3984C0.078125 28.125 0.14974 27.7865 0.214844 27.3828C0.279948 26.9792 0.338542 26.4779 0.390625 25.8789C0.442708 25.2799 0.481771 24.5703 0.507812 23.75C0.533854 22.9167 0.546875 21.9466 0.546875 20.8398V8.125C0.546875 7.01823 0.533854 6.05469 0.507812 5.23438C0.481771 4.40104 0.442708 3.6849 0.390625 3.08594C0.338542 2.47396 0.279948 1.96615 0.214844 1.5625C0.14974 1.15885 0.078125 0.820312 0 0.546875V0.46875H4.66797V0.546875C4.58984 0.820312 4.51172 1.15885 4.43359 1.5625C4.36849 1.96615 4.3099 2.47396 4.25781 3.08594C4.21875 3.6849 4.17969 4.40104 4.14062 5.23438C4.11458 6.05469 4.10156 7.01823 4.10156 8.125V20.8398C4.10156 21.9466 4.11458 22.9167 4.14062 23.75C4.17969 24.5703 4.21875 25.2799 4.25781 25.8789C4.3099 26.4779 4.36849 26.9792 4.43359 27.3828C4.51172 27.7865 4.58984 28.125 4.66797 28.3984V28.4766H0V28.3984ZM11.543 0.46875L31.6602 21.875V8.125C31.6602 7.01823 31.6471 6.05469 31.6211 5.23438C31.5951 4.40104 31.556 3.6849 31.5039 3.08594C31.4518 2.47396 31.3867 1.96615 31.3086 1.5625C31.2435 1.15885 31.1719 0.820312 31.0938 0.546875V0.46875H34.5703V0.546875C34.4922 0.820312 34.4206 1.15885 34.3555 1.5625C34.2904 1.96615 34.2318 2.47396 34.1797 3.08594C34.1276 3.6849 34.0885 4.40104 34.0625 5.23438C34.0365 6.05469 34.0234 7.01823 34.0234 8.125V28.8672H33.3398L13.2227 7.48047V20.8398C13.2227 21.9466 13.2357 22.9167 13.2617 23.75C13.2878 24.5703 13.3268 25.2799 13.3789 25.8789C13.431 26.4779 13.4896 26.9792 13.5547 27.3828C13.6198 27.7865 13.6914 28.125 13.7695 28.3984V28.4766H10.293V28.3984C10.3711 28.125 10.4427 27.7865 10.5078 27.3828C10.5859 26.9792 10.651 26.4779 10.7031 25.8789C10.7552 25.2799 10.7943 24.5703 10.8203 23.75C10.8464 22.9167 10.8594 21.9466 10.8594 20.8398V8.125C10.8594 7.01823 10.8464 6.05469 10.8203 5.23438C10.7943 4.40104 10.7552 3.6849 10.7031 3.08594C10.651 2.47396 10.5859 1.96615 10.5078 1.5625C10.4427 1.15885 10.3711 0.820312 10.293 0.546875V0.46875H11.543ZM41.7773 0.46875V0.546875C41.7513 0.611979 41.7318 0.709635 41.7188 0.839844C41.7057 0.970052 41.6992 1.08724 41.6992 1.19141C41.6992 1.59505 41.7513 2.04427 41.8555 2.53906C41.9727 3.02083 42.1875 3.6263 42.5 4.35547L51.1523 23.8672L59.5117 4.51172C59.707 4.02995 59.9154 3.5026 60.1367 2.92969C60.3581 2.35677 60.4688 1.77734 60.4688 1.19141C60.4688 1.03516 60.4557 0.904948 60.4297 0.800781C60.4036 0.683594 60.3776 0.598958 60.3516 0.546875V0.46875H64.3555V0.546875C64.1081 0.794271 63.8086 1.23698 63.457 1.875C63.1055 2.51302 62.7214 3.30078 62.3047 4.23828L51.1133 29.082H49.5508L38.9453 5.19531C38.6979 4.63542 38.4375 4.09505 38.1641 3.57422C37.9036 3.05339 37.6562 2.58464 37.4219 2.16797C37.1875 1.73828 36.9792 1.38021 36.7969 1.09375C36.6146 0.807292 36.4909 0.625 36.4258 0.546875V0.46875H41.7773ZM66.5234 28.3984C66.6016 28.125 66.6732 27.7865 66.7383 27.3828C66.8034 26.9792 66.862 26.4779 66.9141 25.8789C66.9661 25.2799 67.0052 24.5703 67.0312 23.75C67.0573 22.9167 67.0703 21.9466 67.0703 20.8398V8.125C67.0703 7.01823 67.0573 6.05469 67.0312 5.23438C67.0052 4.40104 66.9661 3.6849 66.9141 3.08594C66.862 2.47396 66.8034 1.96615 66.7383 1.5625C66.6732 1.15885 66.6016 0.820312 66.5234 0.546875V0.46875H71.1914V0.546875C71.1133 0.820312 71.0352 1.15885 70.957 1.5625C70.8919 1.96615 70.8333 2.47396 70.7812 3.08594C70.7422 3.6849 70.7031 4.40104 70.6641 5.23438C70.638 6.05469 70.625 7.01823 70.625 8.125V20.8398C70.625 21.9466 70.638 22.9167 70.6641 23.75C70.7031 24.5703 70.7422 25.2799 70.7812 25.8789C70.8333 26.4779 70.8919 26.9792 70.957 27.3828C71.0352 27.7865 71.1133 28.125 71.1914 28.3984V28.4766H66.5234V28.3984ZM78.0664 0.46875L98.1836 21.875V8.125C98.1836 7.01823 98.1706 6.05469 98.1445 5.23438C98.1185 4.40104 98.0794 3.6849 98.0273 3.08594C97.9753 2.47396 97.9102 1.96615 97.832 1.5625C97.7669 1.15885 97.6953 0.820312 97.6172 0.546875V0.46875H101.094V0.546875C101.016 0.820312 100.944 1.15885 100.879 1.5625C100.814 1.96615 100.755 2.47396 100.703 3.08594C100.651 3.6849 100.612 4.40104 100.586 5.23438C100.56 6.05469 100.547 7.01823 100.547 8.125V28.8672H99.8633L79.7461 7.48047V20.8398C79.7461 21.9466 79.7591 22.9167 79.7852 23.75C79.8112 24.5703 79.8503 25.2799 79.9023 25.8789C79.9544 26.4779 80.013 26.9792 80.0781 27.3828C80.1432 27.7865 80.2148 28.125 80.293 28.3984V28.4766H76.8164V28.3984C76.8945 28.125 76.9661 27.7865 77.0312 27.3828C77.1094 26.9792 77.1745 26.4779 77.2266 25.8789C77.2786 25.2799 77.3177 24.5703 77.3438 23.75C77.3698 22.9167 77.3828 21.9466 77.3828 20.8398V8.125C77.3828 7.01823 77.3698 6.05469 77.3438 5.23438C77.3177 4.40104 77.2786 3.6849 77.2266 3.08594C77.1745 2.47396 77.1094 1.96615 77.0312 1.5625C76.9661 1.15885 76.8945 0.820312 76.8164 0.546875V0.46875H78.0664ZM129.199 4.76562L129.023 4.84375C128.008 3.90625 126.784 3.15755 125.352 2.59766C123.932 2.03776 122.37 1.75781 120.664 1.75781C119.023 1.75781 117.52 2.01823 116.152 2.53906C114.785 3.04688 113.607 3.78906 112.617 4.76562C111.641 5.74219 110.879 6.9401 110.332 8.35938C109.785 9.77865 109.512 11.3932 109.512 13.2031C109.512 15.1953 109.772 17.0573 110.293 18.7891C110.814 20.5078 111.589 21.9987 112.617 23.2617C113.646 24.5247 114.928 25.5208 116.465 26.25C118.014 26.9661 119.818 27.3242 121.875 27.3242C122.617 27.3242 123.359 27.2461 124.102 27.0898C124.844 26.9336 125.553 26.7057 126.23 26.4062C126.921 26.0938 127.565 25.7227 128.164 25.293C128.776 24.8503 129.329 24.349 129.824 23.7891L130.039 23.9258L128.477 27.9102C127.5 28.2878 126.419 28.5742 125.234 28.7695C124.062 28.9779 122.878 29.082 121.68 29.082C119.271 29.082 117.064 28.737 115.059 28.0469C113.066 27.3438 111.348 26.3542 109.902 25.0781C108.47 23.8021 107.35 22.2721 106.543 20.4883C105.749 18.6914 105.352 16.6992 105.352 14.5117C105.352 13.2747 105.508 12.0573 105.82 10.8594C106.146 9.66146 106.615 8.52214 107.227 7.44141C107.839 6.36068 108.594 5.37109 109.492 4.47266C110.391 3.5612 111.413 2.77344 112.559 2.10938C113.717 1.44531 114.987 0.93099 116.367 0.566406C117.76 0.188802 119.264 0 120.879 0C123.392 0 125.723 0.384115 127.871 1.15234L129.199 4.76562ZM133.613 26.7578C133.613 26.4714 133.665 26.2044 133.77 25.957C133.887 25.6966 134.036 25.4753 134.219 25.293C134.401 25.0977 134.616 24.9479 134.863 24.8438C135.124 24.7266 135.404 24.668 135.703 24.668C136.003 24.668 136.276 24.7266 136.523 24.8438C136.784 24.9479 137.005 25.0977 137.188 25.293C137.383 25.4753 137.533 25.6966 137.637 25.957C137.754 26.2044 137.812 26.4714 137.812 26.7578C137.812 27.3568 137.611 27.8581 137.207 28.2617C136.803 28.6654 136.302 28.8672 135.703 28.8672C135.404 28.8672 135.124 28.8086 134.863 28.6914C134.616 28.5872 134.401 28.444 134.219 28.2617C134.036 28.0664 133.887 27.8451 133.77 27.5977C133.665 27.3372 133.613 27.0573 133.613 26.7578ZM135.332 22.0703C135.085 19.1406 134.87 16.6016 134.688 14.4531C134.518 12.3047 134.368 10.4622 134.238 8.92578C134.121 7.38932 134.017 6.1263 133.926 5.13672C133.835 4.13411 133.757 3.32682 133.691 2.71484C133.639 2.08984 133.587 1.62109 133.535 1.30859C133.483 0.983073 133.431 0.729167 133.379 0.546875V0.46875H138.027V0.546875C137.975 0.729167 137.923 0.983073 137.871 1.30859C137.819 1.62109 137.76 2.08984 137.695 2.71484C137.63 3.32682 137.552 4.13411 137.461 5.13672C137.383 6.1263 137.279 7.38932 137.148 8.92578C137.018 10.4622 136.862 12.3047 136.68 14.4531C136.51 16.6016 136.302 19.1406 136.055 22.0703H135.332ZM143.984 8.125C143.984 7.01823 143.971 6.05469 143.945 5.23438C143.919 4.40104 143.88 3.6849 143.828 3.08594C143.776 2.47396 143.711 1.96615 143.633 1.5625C143.568 1.15885 143.496 0.820312 143.418 0.546875V0.46875C143.678 0.481771 143.952 0.488281 144.238 0.488281C144.486 0.501302 144.759 0.507812 145.059 0.507812C145.371 0.507812 145.69 0.507812 146.016 0.507812C146.484 0.507812 147.116 0.46224 147.91 0.371094C148.717 0.279948 149.753 0.234375 151.016 0.234375C152.188 0.234375 153.268 0.390625 154.258 0.703125C155.247 1.0026 156.1 1.4388 156.816 2.01172C157.546 2.58464 158.112 3.29427 158.516 4.14062C158.932 4.97396 159.141 5.92448 159.141 6.99219C159.141 7.89062 159.017 8.69792 158.77 9.41406C158.522 10.1172 158.171 10.7357 157.715 11.2695C157.272 11.7904 156.732 12.2331 156.094 12.5977C155.469 12.9492 154.779 13.2292 154.023 13.4375C155.13 13.6068 156.139 13.8932 157.051 14.2969C157.962 14.6875 158.743 15.1823 159.395 15.7812C160.059 16.3802 160.566 17.0833 160.918 17.8906C161.283 18.6849 161.465 19.5703 161.465 20.5469C161.465 23.2943 160.56 25.3581 158.75 26.7383C156.94 28.1055 154.232 28.7891 150.625 28.7891C150.234 28.7891 149.779 28.7695 149.258 28.7305C148.737 28.7044 148.203 28.6719 147.656 28.6328C147.122 28.5938 146.595 28.5547 146.074 28.5156C145.553 28.4896 145.098 28.4766 144.707 28.4766H143.418V28.3984C143.496 28.125 143.568 27.7865 143.633 27.3828C143.711 26.9792 143.776 26.4779 143.828 25.8789C143.88 25.2799 143.919 24.5703 143.945 23.75C143.971 22.9167 143.984 21.9466 143.984 20.8398V8.125ZM151.152 14.6289C150.267 14.6289 149.525 14.6615 148.926 14.7266C148.327 14.7917 147.865 14.8568 147.539 14.9219V20.8398C147.539 22.3633 147.565 23.6198 147.617 24.6094C147.669 25.599 147.741 26.4062 147.832 27.0312C148.327 27.0964 148.822 27.1549 149.316 27.207C149.811 27.2591 150.208 27.2852 150.508 27.2852C152.943 27.2852 154.72 26.7448 155.84 25.6641C156.973 24.5703 157.539 22.8971 157.539 20.6445C157.539 19.7591 157.402 18.9518 157.129 18.2227C156.868 17.4805 156.471 16.8424 155.938 16.3086C155.417 15.7747 154.753 15.3646 153.945 15.0781C153.151 14.7786 152.22 14.6289 151.152 14.6289ZM147.539 13.1641C147.904 13.2031 148.229 13.2292 148.516 13.2422C148.802 13.2422 149.108 13.2422 149.434 13.2422C150.319 13.2422 151.126 13.1185 151.855 12.8711C152.585 12.6107 153.203 12.2266 153.711 11.7188C154.232 11.2109 154.635 10.5794 154.922 9.82422C155.208 9.05599 155.352 8.16406 155.352 7.14844C155.352 6.30208 155.247 5.53385 155.039 4.84375C154.831 4.15365 154.518 3.56771 154.102 3.08594C153.698 2.59115 153.197 2.21354 152.598 1.95312C151.999 1.69271 151.315 1.5625 150.547 1.5625C150.052 1.5625 149.616 1.58203 149.238 1.62109C148.874 1.66016 148.561 1.70573 148.301 1.75781C148.001 1.8099 147.747 1.875 147.539 1.95312V13.1641ZM170 26.7578C171.536 26.7578 172.949 26.6927 174.238 26.5625C175.527 26.4323 176.654 26.2826 177.617 26.1133C178.737 25.931 179.759 25.7161 180.684 25.4688L180.117 28.6328C179.961 28.6198 179.727 28.6068 179.414 28.5938C179.102 28.5807 178.75 28.5677 178.359 28.5547C177.982 28.5417 177.578 28.5286 177.148 28.5156C176.732 28.5156 176.335 28.5091 175.957 28.4961C175.579 28.4961 175.241 28.4896 174.941 28.4766C174.655 28.4766 174.447 28.4766 174.316 28.4766H165.879V28.3984C165.957 28.125 166.029 27.7865 166.094 27.3828C166.172 26.9792 166.237 26.4779 166.289 25.8789C166.341 25.2799 166.38 24.5703 166.406 23.75C166.432 22.9167 166.445 21.9466 166.445 20.8398V8.125C166.445 7.01823 166.432 6.05469 166.406 5.23438C166.38 4.40104 166.341 3.6849 166.289 3.08594C166.237 2.47396 166.172 1.96615 166.094 1.5625C166.029 1.15885 165.957 0.820312 165.879 0.546875V0.46875H170.566V0.546875C170.488 0.820312 170.41 1.15885 170.332 1.5625C170.267 1.96615 170.208 2.47396 170.156 3.08594C170.117 3.6849 170.078 4.40104 170.039 5.23438C170.013 6.05469 170 7.01823 170 8.125V26.7578ZM184.277 0.46875C185.905 0.46875 187.52 0.46224 189.121 0.449219C190.736 0.436198 192.214 0.423177 193.555 0.410156C194.896 0.384115 196.042 0.351562 196.992 0.3125C197.943 0.273438 198.587 0.221354 198.926 0.15625L197.969 2.75391C197.539 2.63672 197.038 2.53255 196.465 2.44141C195.97 2.36328 195.365 2.29167 194.648 2.22656C193.945 2.14844 193.132 2.10938 192.207 2.10938C191.895 2.10938 191.517 2.1224 191.074 2.14844C190.645 2.16146 190.228 2.18099 189.824 2.20703C189.355 2.23307 188.88 2.25911 188.398 2.28516V12.9492C189.74 12.9362 190.951 12.8971 192.031 12.832C193.112 12.7669 194.03 12.7018 194.785 12.6367C195.671 12.5586 196.452 12.4674 197.129 12.3633L196.523 15.1953C195.625 15.0781 194.707 14.9674 193.77 14.8633C192.962 14.7721 192.083 14.694 191.133 14.6289C190.182 14.5508 189.271 14.5117 188.398 14.5117V26.7578C189.935 26.7578 191.348 26.6927 192.637 26.5625C193.926 26.4323 195.052 26.2826 196.016 26.1133C197.135 25.931 198.158 25.7161 199.082 25.4688L198.516 28.6328C198.359 28.6198 198.125 28.6068 197.812 28.5938C197.5 28.5807 197.148 28.5677 196.758 28.5547C196.38 28.5417 195.977 28.5286 195.547 28.5156C195.13 28.5156 194.733 28.5091 194.355 28.4961C193.978 28.4961 193.639 28.4896 193.34 28.4766C193.053 28.4766 192.845 28.4766 192.715 28.4766H184.277V28.3984C184.355 28.125 184.427 27.7865 184.492 27.3828C184.57 26.9792 184.635 26.4779 184.688 25.8789C184.74 25.2799 184.779 24.5703 184.805 23.75C184.831 22.9167 184.844 21.9466 184.844 20.8398V8.125C184.844 7.01823 184.831 6.05469 184.805 5.23438C184.779 4.40104 184.74 3.6849 184.688 3.08594C184.635 2.47396 184.57 1.96615 184.492 1.5625C184.427 1.15885 184.355 0.820312 184.277 0.546875V0.46875Z" fill="#F5F7FA"/>
</svg>
