<svg width="83" height="76" viewBox="0 0 83 76" fill="none" xmlns="http://www.w3.org/2000/svg">
<g filter="url(#filter0_d_2469_415)">
<path d="M54.9167 2.5H27.25C17.4698 2.5 12.5763 2.5 9.53987 5.53987C6.5 8.57629 6.5 13.4698 6.5 23.25V30.1667C6.5 39.9468 6.5 44.8404 9.53987 47.8768C12.5763 50.9167 17.4698 50.9167 27.25 50.9167H54.9167C64.6968 50.9167 69.5904 50.9167 72.6268 47.8768C75.6667 44.8404 75.6667 39.9468 75.6667 30.1667V23.25C75.6667 13.4698 75.6667 8.57629 72.6268 5.53987C69.5904 2.5 64.6968 2.5 54.9167 2.5Z" stroke="white" stroke-width="5" stroke-linecap="round" stroke-linejoin="round"/>
<path d="M47.9997 64.7497H54.9163M47.9997 64.7497C46.6239 64.7497 45.3044 64.2031 44.3316 63.2303C43.3587 62.2574 42.8122 60.938 42.8122 59.5622V50.9163H41.083M47.9997 64.7497H34.1663M41.083 50.9163H39.3538V59.5622C39.3538 60.938 38.8073 62.2574 37.8345 63.2303C36.8616 64.2031 35.5422 64.7497 34.1663 64.7497M41.083 50.9163V64.7497M34.1663 64.7497H27.2497M47.9997 23.2497C47.9997 21.4153 47.271 19.656 45.9738 18.3589C44.6767 17.0617 42.9174 16.333 41.083 16.333C39.2486 16.333 37.4893 17.0617 36.1922 18.3589C34.8951 19.656 34.1663 21.4153 34.1663 23.2497H32.4372C30.6028 23.2497 28.8435 23.9784 27.5464 25.2755C26.2492 26.5726 25.5205 28.3319 25.5205 30.1663C25.5205 32.0008 26.2492 33.76 27.5464 35.0572C28.8435 36.3543 30.6028 37.083 32.4372 37.083H49.7288C51.5633 37.083 53.3225 36.3543 54.6197 35.0572C55.9168 33.76 56.6455 32.0008 56.6455 30.1663C56.6455 28.3319 55.9168 26.5726 54.6197 25.2755C53.3225 23.9784 51.5633 23.2497 49.7288 23.2497H47.9997Z" stroke="white" stroke-width="5" stroke-linecap="round" stroke-linejoin="round"/>
</g>
<defs>
<filter id="filter0_d_2469_415" x="0" y="0" width="82.167" height="75.25" filterUnits="userSpaceOnUse" color-interpolation-filters="sRGB">
<feFlood flood-opacity="0" result="BackgroundImageFix"/>
<feColorMatrix in="SourceAlpha" type="matrix" values="0 0 0 0 0 0 0 0 0 0 0 0 0 0 0 0 0 0 127 0" result="hardAlpha"/>
<feOffset dy="4"/>
<feGaussianBlur stdDeviation="2"/>
<feComposite in2="hardAlpha" operator="out"/>
<feColorMatrix type="matrix" values="0 0 0 0 0 0 0 0 0 0 0 0 0 0 0 0 0 0 0.25 0"/>
<feBlend mode="normal" in2="BackgroundImageFix" result="effect1_dropShadow_2469_415"/>
<feBlend mode="normal" in="SourceGraphic" in2="effect1_dropShadow_2469_415" result="shape"/>
</filter>
</defs>
</svg>
