<svg width="77" height="70" viewBox="0 0 77 70" fill="none" xmlns="http://www.w3.org/2000/svg">
<g clip-path="url(#clip0_2465_481)" filter="url(#filter0_d_2465_481)">
<path d="M68.2236 16.9014C70.0921 18.7699 71.5163 20.889 72.4961 23.2588C73.4759 25.6286 73.9772 28.1465 74 30.8125C74 31.61 73.9772 32.5671 73.9316 33.6836C73.8861 34.8001 73.7949 36.0078 73.6582 37.3066C73.5215 38.6055 73.305 39.9385 73.0088 41.3057C72.7126 42.6729 72.3366 44.0286 71.8809 45.373C71.1973 47.3327 70.3997 48.9277 69.4883 50.1582C68.5768 51.3887 67.6312 52.3571 66.6514 53.0635C65.6716 53.7699 64.6803 54.2484 63.6777 54.499C62.6751 54.7497 61.7409 54.875 60.875 54.875C60.123 54.875 59.4395 54.7497 58.8242 54.499C58.209 54.2484 57.6165 53.9066 57.0469 53.4736C56.4772 53.0407 55.9531 52.5736 55.4746 52.0723C54.9961 51.571 54.5062 51.0241 54.0049 50.4316C53.5264 49.8848 53.0592 49.3607 52.6035 48.8594C52.1478 48.3581 51.6579 47.9137 51.1338 47.5264C50.6097 47.139 50.0856 46.8086 49.5615 46.5352C49.0374 46.2617 48.4222 46.125 47.7158 46.125H30.2842C29.6234 46.1478 29.0195 46.2845 28.4727 46.5352C27.9258 46.7858 27.3903 47.1048 26.8662 47.4922C26.3421 47.8796 25.8636 48.3353 25.4307 48.8594C24.9977 49.3835 24.5192 49.9076 23.9951 50.4316C23.5166 50.9785 23.0381 51.514 22.5596 52.0381C22.0811 52.5622 21.557 53.0407 20.9873 53.4736C20.4176 53.9066 19.8252 54.237 19.21 54.4648C18.5947 54.6927 17.8997 54.8294 17.125 54.875C16.2591 54.875 15.3249 54.7497 14.3223 54.499C13.3197 54.2484 12.3285 53.7812 11.3486 53.0977C10.3688 52.4141 9.42318 51.4456 8.51172 50.1924C7.60026 48.9391 6.80273 47.3327 6.11914 45.373C5.66341 44.0514 5.29883 42.707 5.02539 41.3398C4.75195 39.9727 4.53548 38.6283 4.37598 37.3066C4.21647 35.985 4.11393 34.7773 4.06836 33.6836C4.02279 32.5898 4 31.6328 4 30.8125C4 28.1693 4.48991 25.6628 5.46973 23.293C6.44954 20.9232 7.88509 18.7926 9.77637 16.9014C11.6221 15.0329 13.7412 13.6087 16.1338 12.6289C18.5264 11.6491 21.0443 11.1478 23.6875 11.125H54.3125C56.9557 11.125 59.4622 11.6149 61.832 12.5947C64.2018 13.5745 66.3324 15.0101 68.2236 16.9014ZM67.7451 43.9375C68.1781 42.7298 68.5199 41.4766 68.7705 40.1777C69.0212 38.8789 69.2035 37.637 69.3174 36.4521C69.4313 35.2673 69.5111 34.1735 69.5566 33.1709C69.6022 32.1683 69.625 31.3822 69.625 30.8125C69.625 28.6934 69.2262 26.7109 68.4287 24.8652C67.6312 23.0195 66.5374 21.4017 65.1475 20.0117C63.7575 18.6217 62.1396 17.528 60.2939 16.7305C58.4482 15.9329 56.4544 15.5228 54.3125 15.5H23.6875C21.5684 15.5 19.5859 15.8988 17.7402 16.6963C15.8945 17.4938 14.2767 18.5876 12.8867 19.9775C11.4967 21.3675 10.403 22.9854 9.60547 24.8311C8.80794 26.6768 8.39779 28.6706 8.375 30.8125C8.375 31.4049 8.38639 32.1911 8.40918 33.1709C8.43197 34.1507 8.51172 35.2331 8.64844 36.418C8.78516 37.6029 8.97884 38.8561 9.22949 40.1777C9.48014 41.4993 9.82194 42.7526 10.2549 43.9375C10.8245 45.5781 11.4512 46.8428 12.1348 47.7314C12.8184 48.6201 13.4792 49.2695 14.1172 49.6797C14.7552 50.0898 15.3477 50.3291 15.8945 50.3975C16.4414 50.4658 16.8516 50.5 17.125 50.5C17.6263 50.5 18.1732 50.2038 18.7656 49.6113C19.3581 49.0189 19.9961 48.3353 20.6797 47.5605C21.2266 46.9225 21.8076 46.2731 22.4229 45.6123C23.0381 44.9515 23.7331 44.3363 24.5078 43.7666C25.2826 43.1969 26.137 42.7298 27.0713 42.3652C28.0055 42.0007 29.0423 41.7956 30.1816 41.75H47.8184C48.9577 41.7956 49.9945 42.0007 50.9287 42.3652C51.863 42.7298 52.7061 43.1855 53.458 43.7324C54.21 44.2793 54.9049 44.8945 55.543 45.5781C56.181 46.2617 56.7734 46.9225 57.3203 47.5605C57.9811 48.3125 58.6077 48.9847 59.2002 49.5771C59.7926 50.1696 60.3509 50.4772 60.875 50.5C61.1484 50.5 61.5472 50.4658 62.0713 50.3975C62.5954 50.3291 63.1878 50.0898 63.8486 49.6797C64.5094 49.2695 65.1816 48.6201 65.8652 47.7314C66.5488 46.8428 67.1755 45.5781 67.7451 43.9375ZM21.5 28.625H25.875V33H21.5V37.375H17.125V33H12.75V28.625H17.125V24.25H21.5V28.625ZM60.875 33C61.4902 33 62.0599 33.1139 62.584 33.3418C63.1081 33.5697 63.5638 33.8773 63.9512 34.2646C64.3385 34.652 64.6576 35.1191 64.9082 35.666C65.1589 36.2129 65.2728 36.7826 65.25 37.375C65.25 37.9902 65.1361 38.5599 64.9082 39.084C64.6803 39.6081 64.3727 40.0638 63.9854 40.4512C63.598 40.8385 63.1309 41.1576 62.584 41.4082C62.0371 41.6589 61.4674 41.7728 60.875 41.75C60.2598 41.75 59.6901 41.6361 59.166 41.4082C58.6419 41.1803 58.1862 40.8727 57.7988 40.4854C57.4115 40.098 57.0924 39.6309 56.8418 39.084C56.5911 38.5371 56.4772 37.9674 56.5 37.375C56.5 36.7598 56.6139 36.1901 56.8418 35.666C57.0697 35.1419 57.3773 34.6862 57.7646 34.2988C58.152 33.9115 58.6191 33.5924 59.166 33.3418C59.7129 33.0911 60.2826 32.9772 60.875 33ZM52.125 24.25C52.7402 24.25 53.3099 24.3639 53.834 24.5918C54.3581 24.8197 54.8138 25.1273 55.2012 25.5146C55.5885 25.902 55.9076 26.3691 56.1582 26.916C56.4089 27.4629 56.5228 28.0326 56.5 28.625C56.5 29.2402 56.3861 29.8099 56.1582 30.334C55.9303 30.8581 55.6227 31.3138 55.2354 31.7012C54.848 32.0885 54.3809 32.4076 53.834 32.6582C53.2871 32.9089 52.7174 33.0228 52.125 33C51.5098 33 50.9401 32.8861 50.416 32.6582C49.8919 32.4303 49.4362 32.1227 49.0488 31.7354C48.6615 31.348 48.3424 30.8809 48.0918 30.334C47.8411 29.7871 47.7272 29.2174 47.75 28.625C47.75 28.0098 47.8639 27.4401 48.0918 26.916C48.3197 26.3919 48.6273 25.9362 49.0146 25.5488C49.402 25.1615 49.8691 24.8424 50.416 24.5918C50.9629 24.3411 51.5326 24.2272 52.125 24.25Z" fill="#F5F7FA"/>
</g>
<defs>
<filter id="filter0_d_2465_481" x="-1" y="0" width="78" height="78" filterUnits="userSpaceOnUse" color-interpolation-filters="sRGB">
<feFlood flood-opacity="0" result="BackgroundImageFix"/>
<feColorMatrix in="SourceAlpha" type="matrix" values="0 0 0 0 0 0 0 0 0 0 0 0 0 0 0 0 0 0 127 0" result="hardAlpha"/>
<feOffset dy="4"/>
<feGaussianBlur stdDeviation="2"/>
<feColorMatrix type="matrix" values="0 0 0 0 0 0 0 0 0 0 0 0 0 0 0 0 0 0 0.25 0"/>
<feBlend mode="normal" in2="BackgroundImageFix" result="effect1_dropShadow_2465_481"/>
<feBlend mode="normal" in="SourceGraphic" in2="effect1_dropShadow_2465_481" result="shape"/>
</filter>
<clipPath id="clip0_2465_481">
<rect width="70" height="70" fill="white" transform="translate(3)"/>
</clipPath>
</defs>
</svg>
