<svg width="70" height="70" viewBox="0 0 70 70" fill="none" xmlns="http://www.w3.org/2000/svg">
<g filter="url(#filter0_d_2465_441)">
<path d="M61.2308 0H42.1538C39.5236 0 37.3846 2.14138 37.3846 4.76923V57.2308C37.3846 59.861 39.5236 62 42.1538 62H61.2308C63.861 62 66 59.861 66 57.2308V4.76923C66 2.14138 63.861 0 61.2308 0ZM61.2308 16.5015L46.5654 4.76923H61.2308V16.5015ZM59.8 21.4615L42.1538 35.5785V7.34462L59.8 21.4615ZM61.2308 26.4215L61.2332 54.6554L43.587 40.5385L61.2308 26.4215ZM42.1538 45.4985L56.8192 57.2308H42.1538V45.4985ZM27.8462 0H8.76923C6.139 0 4 2.14138 4 4.76923V57.2308C4 59.861 6.139 62 8.76923 62H27.8462C30.4764 62 32.6154 59.861 32.6154 57.2308V4.76923C32.6154 2.14138 30.4764 0 27.8462 0ZM27.8462 16.5015L13.1808 4.76923H27.8462V16.5015ZM26.4154 21.4615L8.76923 35.5785V7.34462L26.4154 21.4615ZM27.8462 26.4215L27.8485 54.6554L10.2024 40.5385L27.8462 26.4215ZM8.76923 45.4985L23.4346 57.2308H8.76923V45.4985Z" fill="#F5F7FA"/>
</g>
<defs>
<filter id="filter0_d_2465_441" x="0" y="0" width="70" height="70" filterUnits="userSpaceOnUse" color-interpolation-filters="sRGB">
<feFlood flood-opacity="0" result="BackgroundImageFix"/>
<feColorMatrix in="SourceAlpha" type="matrix" values="0 0 0 0 0 0 0 0 0 0 0 0 0 0 0 0 0 0 127 0" result="hardAlpha"/>
<feOffset dy="4"/>
<feGaussianBlur stdDeviation="2"/>
<feComposite in2="hardAlpha" operator="out"/>
<feColorMatrix type="matrix" values="0 0 0 0 0 0 0 0 0 0 0 0 0 0 0 0 0 0 0.25 0"/>
<feBlend mode="normal" in2="BackgroundImageFix" result="effect1_dropShadow_2465_441"/>
<feBlend mode="normal" in="SourceGraphic" in2="effect1_dropShadow_2465_441" result="shape"/>
</filter>
</defs>
</svg>
