<svg width="75" height="77" viewBox="0 0 75 77" fill="none" xmlns="http://www.w3.org/2000/svg">
<g filter="url(#filter0_d_2465_434)">
<path fill-rule="evenodd" clip-rule="evenodd" d="M65.083 2.95801H70.9997V32.5413H65.083V2.95801ZM59.1486 68.0413L59.1663 32.4881H53.2497L53.2319 62.1247L17.7497 62.1424V14.7736L47.333 14.7913V8.87467L11.833 8.85692V68.0591L59.1486 68.0413ZM50.2913 56.4062V56.4092V56.3589C50.315 56.3648 50.3032 56.3825 50.2973 56.3973L50.2913 56.4062ZM35.4997 28.1038C36.6766 28.1038 37.8053 27.6363 38.6375 26.8041C39.4697 25.9719 39.9372 24.8432 39.9372 23.6663C39.9372 22.4894 39.4697 21.3607 38.6375 20.5286C37.8053 19.6964 36.6766 19.2288 35.4997 19.2288C34.3228 19.2288 33.1941 19.6964 32.3619 20.5286C31.5297 21.3607 31.0622 22.4894 31.0622 23.6663C31.0622 24.8432 31.5297 25.9719 32.3619 26.8041C33.1941 27.6363 34.3228 28.1038 35.4997 28.1038ZM59.1663 8.87467H53.2497V26.6247H59.1663V8.87467ZM35.4997 50.2913C33.9305 50.2913 32.4256 49.668 31.316 48.5584C30.2064 47.4488 29.583 45.9439 29.583 44.3747C29.583 42.8055 30.2064 41.3006 31.316 40.191C32.4256 39.0814 33.9305 38.458 35.4997 38.458C37.0689 38.458 38.5738 39.0814 39.6834 40.191C40.793 41.3006 41.4163 42.8055 41.4163 44.3747C41.4163 45.9439 40.793 47.4488 39.6834 48.5584C38.5738 49.668 37.0689 50.2913 35.4997 50.2913ZM35.4997 56.208C32.3613 56.208 29.3514 54.9613 27.1322 52.7421C24.9131 50.5229 23.6663 47.5131 23.6663 44.3747C23.6663 41.2363 24.9131 38.2264 27.1322 36.0072C29.3514 33.7881 32.3613 32.5413 35.4997 32.5413C38.6381 32.5413 41.6479 33.7881 43.8671 36.0072C46.0863 38.2264 47.333 41.2363 47.333 44.3747C47.333 47.5131 46.0863 50.5229 43.8671 52.7421C41.6479 54.9613 38.6381 56.208 35.4997 56.208Z" fill="#F5F7FA"/>
</g>
<defs>
<filter id="filter0_d_2465_434" x="-4" y="0" width="79" height="79" filterUnits="userSpaceOnUse" color-interpolation-filters="sRGB">
<feFlood flood-opacity="0" result="BackgroundImageFix"/>
<feColorMatrix in="SourceAlpha" type="matrix" values="0 0 0 0 0 0 0 0 0 0 0 0 0 0 0 0 0 0 127 0" result="hardAlpha"/>
<feOffset dy="4"/>
<feGaussianBlur stdDeviation="2"/>
<feColorMatrix type="matrix" values="0 0 0 0 0 0 0 0 0 0 0 0 0 0 0 0 0 0 0.25 0"/>
<feBlend mode="normal" in2="BackgroundImageFix" result="effect1_dropShadow_2465_434"/>
<feBlend mode="normal" in="SourceGraphic" in2="effect1_dropShadow_2465_434" result="shape"/>
</filter>
</defs>
</svg>
