<svg width="68" height="49" viewBox="0 0 68 49" fill="none" xmlns="http://www.w3.org/2000/svg">
<path d="M66.5 24.25C66.5 24.25 56.75 47 34 47C11.25 47 1.5 24.25 1.5 24.25C1.5 24.25 11.25 1.5 34 1.5C55.125 1.5 66.5 24.25 66.5 24.25Z" stroke="white" stroke-width="3" stroke-linejoin="round"/>
<path d="M32.9499 13.4504C33.0623 13.2739 33.2175 13.1286 33.401 13.0279C33.5844 12.9273 33.7903 12.8745 33.9996 12.8745C34.2089 12.8745 34.4148 12.9273 34.5983 13.0279C34.7818 13.1286 34.9369 13.2739 35.0494 13.4504L36.4664 15.6766C38.029 18.1378 40.1152 20.224 42.5764 21.7866L44.7994 23.2004C44.9759 23.3128 45.1212 23.468 45.2218 23.6515C45.3225 23.8349 45.3752 24.0408 45.3752 24.2501C45.3752 24.4594 45.3225 24.6653 45.2218 24.8488C45.1212 25.0323 44.9759 25.1874 44.7994 25.2999L42.5731 26.7169C40.112 28.2795 38.0258 30.3657 36.4631 32.8269L35.0494 35.0499C34.9369 35.2264 34.7818 35.3716 34.5983 35.4723C34.4148 35.5729 34.2089 35.6257 33.9996 35.6257C33.7903 35.6257 33.5844 35.5729 33.401 35.4723C33.2175 35.3716 33.0623 35.2264 32.9499 35.0499L31.5329 32.8236C29.9702 30.3625 27.884 28.2763 25.4229 26.7136L23.1999 25.2999C23.0234 25.1874 22.8781 25.0323 22.7774 24.8488C22.6768 24.6653 22.624 24.4594 22.624 24.2501C22.624 24.0408 22.6768 23.8349 22.7774 23.6515C22.8781 23.468 23.0234 23.3128 23.1999 23.2004L25.4261 21.7834C27.8873 20.2207 29.9735 18.1345 31.5361 15.6734L32.9499 13.4504Z" stroke="white" stroke-width="3" stroke-linejoin="round"/>
</svg>
