<svg width="70" height="70" viewBox="0 0 70 70" fill="none" xmlns="http://www.w3.org/2000/svg">
<g filter="url(#filter0_d_2464_381)">
<path d="M46.3957 59.5002V58.0753C46.3957 54.9264 49.0517 52.3759 51.8729 50.9824C54.6171 49.6259 56.9226 47.3918 57.2161 44.77L57.7946 39.5522L63.494 36.7025L56.3697 26.0161C56.3707 22.1251 55.4059 18.2946 53.5619 14.8682C51.7178 11.4419 49.0522 8.52681 45.804 6.38443C42.5559 4.24205 38.8267 2.93937 34.9511 2.59322C31.0755 2.24707 27.1745 2.86827 23.5981 4.40111M19.3235 45.2402V59.5002M19.3235 45.2402C15.4072 42.4805 12.425 38.5927 10.7744 34.095M19.3235 45.2402C21.4608 46.7506 23.866 47.9104 26.4478 48.6428" stroke="white" stroke-width="5" stroke-linecap="round" stroke-linejoin="round"/>
<path d="M8.63728 6.06794L17.8988 12.4798H29.2976M8.63728 21.7413H29.2976M10.7746 6.06794C10.7746 6.34861 10.7193 6.62654 10.6119 6.88584C10.5045 7.14515 10.347 7.38076 10.1486 7.57923C9.9501 7.77769 9.71449 7.93512 9.45518 8.04253C9.19587 8.14994 8.91795 8.20522 8.63728 8.20522C8.35661 8.20522 8.07868 8.14994 7.81938 8.04253C7.56007 7.93512 7.32446 7.77769 7.12599 7.57923C6.92753 7.38076 6.7701 7.14515 6.66269 6.88584C6.55528 6.62654 6.5 6.34861 6.5 6.06794C6.5 5.5011 6.72518 4.95748 7.12599 4.55666C7.52681 4.15584 8.07044 3.93066 8.63728 3.93066C9.20412 3.93066 9.74775 4.15584 10.1486 4.55666C10.5494 4.95748 10.7746 5.5011 10.7746 6.06794ZM10.7746 21.7413C10.7746 22.022 10.7193 22.2999 10.6119 22.5592C10.5045 22.8185 10.347 23.0541 10.1486 23.2526C9.9501 23.4511 9.71449 23.6085 9.45518 23.7159C9.19587 23.8233 8.91795 23.8786 8.63728 23.8786C8.35661 23.8786 8.07868 23.8233 7.81938 23.7159C7.56007 23.6085 7.32446 23.4511 7.12599 23.2526C6.92753 23.0541 6.7701 22.8185 6.66269 22.5592C6.55528 22.2999 6.5 22.022 6.5 21.7413C6.5 21.1745 6.72518 20.6309 7.12599 20.23C7.52681 19.8292 8.07044 19.604 8.63728 19.604C9.20412 19.604 9.74775 19.8292 10.1486 20.23C10.5494 20.6309 10.7746 21.1745 10.7746 21.7413Z" stroke="white" stroke-width="5" stroke-linecap="round" stroke-linejoin="round"/>
</g>
<defs>
<filter id="filter0_d_2464_381" x="0" y="0" width="69.9941" height="70" filterUnits="userSpaceOnUse" color-interpolation-filters="sRGB">
<feFlood flood-opacity="0" result="BackgroundImageFix"/>
<feColorMatrix in="SourceAlpha" type="matrix" values="0 0 0 0 0 0 0 0 0 0 0 0 0 0 0 0 0 0 127 0" result="hardAlpha"/>
<feOffset dy="4"/>
<feGaussianBlur stdDeviation="2"/>
<feComposite in2="hardAlpha" operator="out"/>
<feColorMatrix type="matrix" values="0 0 0 0 0 0 0 0 0 0 0 0 0 0 0 0 0 0 0.25 0"/>
<feBlend mode="normal" in2="BackgroundImageFix" result="effect1_dropShadow_2464_381"/>
<feBlend mode="normal" in="SourceGraphic" in2="effect1_dropShadow_2464_381" result="shape"/>
</filter>
</defs>
</svg>
