<svg width="44" height="63" viewBox="0 0 44 63" fill="none" xmlns="http://www.w3.org/2000/svg">
<path d="M24.6667 15.75C24.6667 16.5854 24.3857 17.3866 23.8856 17.9774C23.3855 18.5681 22.7072 18.9 22 18.9C21.2928 18.9 20.6145 18.5681 20.1144 17.9774C19.6143 17.3866 19.3333 16.5854 19.3333 15.75C19.3333 14.9146 19.6143 14.1134 20.1144 13.5226C20.6145 12.9319 21.2928 12.6 22 12.6C22.7072 12.6 23.3855 12.9319 23.8856 13.5226C24.3857 14.1134 24.6667 14.9146 24.6667 15.75ZM20 24.4125V40.1625C20 40.7891 20.2107 41.39 20.5858 41.833C20.9609 42.2761 21.4696 42.525 22 42.525C22.5304 42.525 23.0391 42.2761 23.4142 41.833C23.7893 41.39 24 40.7891 24 40.1625V24.4125C24 23.7859 23.7893 23.185 23.4142 22.742C23.0391 22.2989 22.5304 22.05 22 22.05C21.4696 22.05 20.9609 22.2989 20.5858 22.742C20.2107 23.185 20 23.7859 20 24.4125ZM0 7.875C0 5.78642 0.702379 3.78338 1.95262 2.30653C3.20286 0.829685 4.89856 0 6.66667 0H37.3333C38.2088 0 39.0757 0.203693 39.8846 0.599449C40.6934 0.995205 41.4283 1.57527 42.0474 2.30653C42.6664 3.0378 43.1575 3.90593 43.4925 4.86137C43.8276 5.81681 44 6.84084 44 7.875V52.7625C44 53.3891 43.7893 53.99 43.4142 54.433C43.0391 54.8761 42.5304 55.125 42 55.125H4C4 55.9604 4.28095 56.7617 4.78105 57.3524C5.28115 57.9431 5.95942 58.275 6.66667 58.275H42C42.5304 58.275 43.0391 58.5239 43.4142 58.967C43.7893 59.41 44 60.0109 44 60.6375C44 61.2641 43.7893 61.865 43.4142 62.308C43.0391 62.7511 42.5304 63 42 63H6.66667C4.89856 63 3.20286 62.1703 1.95262 60.6935C0.702379 59.2166 0 57.2136 0 55.125V7.875ZM40 50.4V7.875C40 7.03957 39.7191 6.23835 39.219 5.64761C38.7189 5.05687 38.0406 4.725 37.3333 4.725H6.66667C5.95942 4.725 5.28115 5.05687 4.78105 5.64761C4.28095 6.23835 4 7.03957 4 7.875V50.4H40Z" fill="black"/>
</svg>
