<svg width="90" height="90" viewBox="0 0 90 90" fill="none" xmlns="http://www.w3.org/2000/svg">
<g filter="url(#filter0_d_3031_1664)">
<path d="M14.0625 11.25C14.0625 10.5041 13.7662 9.78871 13.2387 9.26126C12.7113 8.73382 11.9959 8.4375 11.25 8.4375C10.5041 8.4375 9.78871 8.73382 9.26126 9.26126C8.73382 9.78871 8.4375 10.5041 8.4375 11.25V68.9062C8.4375 72.2629 9.77092 75.4821 12.1444 77.8556C14.5179 80.2291 17.7371 81.5625 21.0938 81.5625H78.75C79.4959 81.5625 80.2113 81.2662 80.7387 80.7387C81.2662 80.2113 81.5625 79.4959 81.5625 78.75C81.5625 78.0041 81.2662 77.2887 80.7387 76.7613C80.2113 76.2338 79.4959 75.9375 78.75 75.9375H73.125V25.3125C73.125 24.7902 72.9796 24.2782 72.705 23.8339C72.4304 23.3896 72.0375 23.0305 71.5703 22.7969C71.1031 22.5633 70.5801 22.4645 70.0599 22.5114C69.5397 22.5583 69.0429 22.7491 68.625 23.0625L47.5144 38.8969L32.1947 31.2356C31.8296 31.0532 31.4291 30.9524 31.0212 30.9403C30.6132 30.9281 30.2075 31.0049 29.8322 31.1653L14.0625 37.9237V11.25ZM14.0625 44.0438L30.8475 36.8494L46.5553 44.7019C47.0223 44.9355 47.5451 45.0345 48.0652 44.9878C48.5853 44.9411 49.0821 44.7506 49.5 44.4375L67.5 30.9375V75.9375H21.0938C19.2289 75.9375 17.4405 75.1967 16.1219 73.8781C14.8033 72.5595 14.0625 70.7711 14.0625 68.9062V44.0438Z" fill="black"/>
</g>
<defs>
<filter id="filter0_d_3031_1664" x="4.4375" y="8.4375" width="81.125" height="81.125" filterUnits="userSpaceOnUse" color-interpolation-filters="sRGB">
<feFlood flood-opacity="0" result="BackgroundImageFix"/>
<feColorMatrix in="SourceAlpha" type="matrix" values="0 0 0 0 0 0 0 0 0 0 0 0 0 0 0 0 0 0 127 0" result="hardAlpha"/>
<feOffset dy="4"/>
<feGaussianBlur stdDeviation="2"/>
<feColorMatrix type="matrix" values="0 0 0 0 0 0 0 0 0 0 0 0 0 0 0 0 0 0 0.25 0"/>
<feBlend mode="normal" in2="BackgroundImageFix" result="effect1_dropShadow_3031_1664"/>
<feBlend mode="normal" in="SourceGraphic" in2="effect1_dropShadow_3031_1664" result="shape"/>
</filter>
</defs>
</svg>
