<svg width="77" height="68" viewBox="0 0 77 68" fill="none" xmlns="http://www.w3.org/2000/svg">
<g filter="url(#filter0_d_3031_1724)">
<path fill-rule="evenodd" clip-rule="evenodd" d="M10.1607 9.5122C10.1607 8.30049 10.9887 7.31707 12.0089 7.31707H64.9911C66.0113 7.31707 66.8393 8.30049 66.8393 9.5122V50.4878C66.8393 51.07 66.6446 51.6283 66.298 52.04C65.9513 52.4517 65.4812 52.6829 64.9911 52.6829H12.0089C11.5188 52.6829 11.0487 52.4517 10.702 52.04C10.3554 51.6283 10.1607 51.07 10.1607 50.4878V9.5122ZM12.0089 0C7.588 0 4 4.26146 4 9.5122V50.4878C4 55.7444 7.588 60 12.0089 60H64.9911C69.4169 60 73 55.7444 73 50.4878V9.5122C73 4.26146 69.4169 0 64.9911 0H12.0089ZM16.9375 30C16.9375 26.895 17.976 23.9172 19.8246 21.7217C21.6732 19.5261 24.1804 18.2927 26.7946 18.2927C29.4089 18.2927 31.9161 19.5261 33.7647 21.7217C35.6133 23.9172 36.6518 26.895 36.6518 30C36.6518 33.105 35.6133 36.0828 33.7647 38.2783C31.9161 40.4739 29.4089 41.7073 26.7946 41.7073C24.1804 41.7073 21.6732 40.4739 19.8246 38.2783C17.976 36.0828 16.9375 33.105 16.9375 30ZM42.1964 21.2195C42.1964 19.2 43.5764 17.561 45.2768 17.561H57.5982C58.4152 17.561 59.1987 17.9464 59.7764 18.6325C60.354 19.3186 60.6786 20.2492 60.6786 21.2195C60.6786 22.1898 60.354 23.1204 59.7764 23.8065C59.1987 24.4926 58.4152 24.878 57.5982 24.878H45.2768C44.4598 24.878 43.6763 24.4926 43.0986 23.8065C42.521 23.1204 42.1964 22.1898 42.1964 21.2195ZM45.2768 35.122C44.4598 35.122 43.6763 35.5074 43.0986 36.1935C42.521 36.8796 42.1964 37.8102 42.1964 38.7805C42.1964 39.7508 42.521 40.6814 43.0986 41.3675C43.6763 42.0536 44.4598 42.439 45.2768 42.439H57.5982C58.4152 42.439 59.1987 42.0536 59.7764 41.3675C60.354 40.6814 60.6786 39.7508 60.6786 38.7805C60.6786 37.8102 60.354 36.8796 59.7764 36.1935C59.1987 35.5074 58.4152 35.122 57.5982 35.122H45.2768Z" fill="black"/>
</g>
<defs>
<filter id="filter0_d_3031_1724" x="0" y="0" width="77" height="68" filterUnits="userSpaceOnUse" color-interpolation-filters="sRGB">
<feFlood flood-opacity="0" result="BackgroundImageFix"/>
<feColorMatrix in="SourceAlpha" type="matrix" values="0 0 0 0 0 0 0 0 0 0 0 0 0 0 0 0 0 0 127 0" result="hardAlpha"/>
<feOffset dy="4"/>
<feGaussianBlur stdDeviation="2"/>
<feComposite in2="hardAlpha" operator="out"/>
<feColorMatrix type="matrix" values="0 0 0 0 0 0 0 0 0 0 0 0 0 0 0 0 0 0 0.25 0"/>
<feBlend mode="normal" in2="BackgroundImageFix" result="effect1_dropShadow_3031_1724"/>
<feBlend mode="normal" in="SourceGraphic" in2="effect1_dropShadow_3031_1724" result="shape"/>
</filter>
</defs>
</svg>
