<svg width="68" height="52" viewBox="0 0 68 52" fill="none" xmlns="http://www.w3.org/2000/svg">
<path d="M9.56278 28.6256C7.11932 26.5055 7.11932 21.4335 9.35085 19.4975C11.5824 17.5616 18.5946 11.5694 23.6935 7.14515C28.7946 2.72113 33.2574 2.07508 34.6383 2.07508H45.05C45.6798 2.07508 46.616 2.15424 47.6669 2.2924L44.587 7.61813C42.1113 7.4635 39.8239 7.51439 38.144 7.51439C31.2381 7.51439 30.7054 8.89646 29.5369 9.91053C28.3682 10.9246 15.1943 21.8027 14.2378 22.6329C11.2617 25.2149 15.8304 26.4128 20.8258 26.4128C23.0571 26.4128 23.3753 28.441 22.8429 30.2849C22.5545 31.2877 21.7991 33.8004 21.1658 36.5008H15.1053C15.3416 35.4593 15.5723 34.605 15.7241 34.1556C16.2568 32.5896 16.3625 31.2056 15.3 31.2056C14.2375 31.2056 12.006 30.7456 9.56278 28.6256ZM60.6832 4.24013C60.1264 3.75707 54.4952 0.922121 52.8275 0.257388C52.3702 0.0757169 51.9795 0 51.6454 0C50.7597 0 50.2704 0.531492 49.9817 1.03078L41.1476 16.3059C36.7163 17.4055 33.4682 20.9452 33.4682 25.1436C33.4682 28.6725 35.7598 31.7356 39.1235 33.2785C37.8273 34.6146 35.9114 35.9839 35.4631 36.4377C34.8245 37.0837 33.2319 37.7298 30.468 37.7298H12.3737C12.2893 34.8279 9.55428 32.4967 6.188 32.4967C2.771 32.4967 0 34.901 0 37.8657C0 40.8324 2.771 43.2369 6.188 43.2369C8.79042 43.2369 11.0149 41.8445 11.9303 39.8707H31.8753C34.6369 39.8707 36.2321 39.2266 36.8682 38.5806C37.4728 37.9682 40.7379 35.6975 41.567 34.0791C42.3671 34.2485 43.2058 34.3405 44.0682 34.3405C49.9216 34.3405 54.666 30.2237 54.666 25.1433C54.6677 23.4789 54.147 21.8454 53.1599 20.4182C55.7576 15.8691 58.3576 11.321 60.96 6.77394C61.7264 5.44668 61.2399 4.7232 60.6832 4.24013ZM61.4955 8.60171C60.822 9.77827 59.7904 11.5832 58.682 13.5218C60.6568 15.9951 61.9449 19.4511 61.9449 24.3847C61.9449 36.921 54.294 38.305 52.7011 38.305H46.6432C45.3685 38.305 44.4119 38.4889 42.0744 40.517C39.7369 42.5452 36.4432 45.033 35.4864 45.8629C34.5321 46.6929 33.1489 47.247 30.7057 47.247H23.1633C22.1006 47.247 20.1875 46.7848 20.1875 42.9127C20.1875 42.3694 20.2476 41.7452 20.3258 41.0999H14.3341C14.1695 42.6754 14.1219 44.2407 14.3438 45.4934C14.9821 49.0895 18.3824 51.9475 21.2497 51.9475H32.5128C37.7199 51.9475 47.2818 43.5595 47.2818 43.5595C47.2818 43.5595 50.4192 43.7269 52.277 43.6829C58.0479 43.5474 68 39.4118 68 25.5836C68 17.4357 65.1803 12.1181 61.4955 8.60171Z" fill="black"/>
</svg>
