<svg width="88" height="77" viewBox="0 0 88 77" fill="none" xmlns="http://www.w3.org/2000/svg">
<g filter="url(#filter0_d_3031_1673)">
<path d="M46.8577 0C46.1 0 45.3733 0.259644 44.8374 0.721813C44.3016 1.18398 44.0006 1.81082 44.0006 2.46442V32.0375C44.0006 32.6911 44.3016 33.3179 44.8374 33.7801C45.3733 34.2423 46.1 34.5019 46.8577 34.5019H81.1429C81.9007 34.5019 82.6274 34.2423 83.1632 33.7801C83.699 33.3179 84 32.6911 84 32.0375C84 27.8303 83.0393 23.6642 81.1727 19.7773C79.3061 15.8903 76.5703 12.3585 73.1213 9.38357C69.6723 6.40861 65.5778 4.04875 61.0715 2.43871C56.5651 0.828675 51.7353 0 46.8577 0ZM49.7148 29.5731V5.03728C57.034 5.61277 63.8879 8.38264 69.0848 12.8653C74.2817 17.3479 77.4929 23.2598 78.1601 29.5731H49.7148ZM38.2864 12.4306C38.2864 12.0882 38.2038 11.7496 38.0437 11.4364C37.8836 11.1231 37.6496 10.842 37.3566 10.6111C37.0636 10.3802 36.7181 10.2044 36.342 10.0951C35.9659 9.98574 35.5675 9.94517 35.1722 9.97599C28.6834 10.4863 22.4975 12.5809 17.3392 16.0145C12.1808 19.448 8.26358 24.0784 6.04627 29.3631C3.82897 34.6479 3.40343 40.3682 4.8195 45.8541C6.23557 51.3399 9.43461 56.3642 14.0419 60.3382C18.6492 64.3123 24.474 67.0717 30.8339 68.2931C37.1939 69.5146 43.8257 69.1475 49.9525 67.235C56.0793 65.3224 61.4475 61.9435 65.4281 57.4941C69.4088 53.0447 71.8371 47.709 72.4288 42.1121C72.4636 41.7719 72.4161 41.4292 72.2893 41.1058C72.1625 40.7823 71.9591 40.4851 71.6921 40.233C71.4251 39.9808 71.1002 39.7794 70.7381 39.6413C70.3761 39.5032 69.9847 39.4315 69.5888 39.4308H38.2864V12.4306ZM9.71544 39.4308C9.7141 33.7495 11.9885 28.2424 16.1536 23.8413C20.3187 19.4403 26.1188 16.4157 32.5722 15.2794V41.8952C32.5722 42.5488 32.8732 43.1756 33.4091 43.6378C33.9449 44.1 34.6716 44.3596 35.4293 44.3596H66.286C64.8522 50.3302 60.9042 55.6307 55.2047 59.2373C49.5051 62.844 42.4583 64.5009 35.4252 63.8881C28.3922 63.2754 21.8719 60.4363 17.1236 55.9194C12.3754 51.4025 9.73606 45.5281 9.71544 39.4308Z" fill="black"/>
</g>
<defs>
<filter id="filter0_d_3031_1673" x="0" y="0" width="88" height="77" filterUnits="userSpaceOnUse" color-interpolation-filters="sRGB">
<feFlood flood-opacity="0" result="BackgroundImageFix"/>
<feColorMatrix in="SourceAlpha" type="matrix" values="0 0 0 0 0 0 0 0 0 0 0 0 0 0 0 0 0 0 127 0" result="hardAlpha"/>
<feOffset dy="4"/>
<feGaussianBlur stdDeviation="2"/>
<feComposite in2="hardAlpha" operator="out"/>
<feColorMatrix type="matrix" values="0 0 0 0 0 0 0 0 0 0 0 0 0 0 0 0 0 0 0.25 0"/>
<feBlend mode="normal" in2="BackgroundImageFix" result="effect1_dropShadow_3031_1673"/>
<feBlend mode="normal" in="SourceGraphic" in2="effect1_dropShadow_3031_1673" result="shape"/>
</filter>
</defs>
</svg>
