<svg width="91" height="91" viewBox="0 0 91 91" fill="none" xmlns="http://www.w3.org/2000/svg">
<g filter="url(#filter0_d_3040_160)">
<path d="M45.5 27.6667L35.125 33.7188V45.8229L45.5 51.875L55.875 45.8229V33.7188L45.5 27.6667ZM50.7463 34.7217L45.455 37.8065L40.2088 34.7459L45.5 31.661L50.7463 34.7217ZM38.5487 37.7719L43.6809 40.7668V46.8189L38.5487 43.8275V37.7719ZM47.1047 46.9469V40.836L52.4512 37.7166V43.8275L47.1047 46.9469ZM14.375 0L4 6.05208V18.1562L14.375 24.2083L24.75 18.1562V6.05208L14.375 0ZM19.6213 7.055L14.33 10.1398L9.08375 7.07921L14.375 3.99437L19.6213 7.055ZM7.42375 10.1018L12.5559 13.0967V19.1488L7.42375 16.1642V10.1018ZM15.9797 19.2767V13.1693L21.3263 10.0499V16.1608L15.9797 19.2767ZM14.375 58.7917L4 64.8438V76.9479L14.375 83L24.75 76.9479V64.8438L14.375 58.7917ZM19.6213 65.8467L14.33 68.9315L9.08375 65.8709L14.375 62.786L19.6213 65.8467ZM7.42375 68.8969L12.5559 71.8918V77.9439L7.42375 74.9559V68.8969ZM15.9797 78.0719V71.961L21.3263 68.8416V74.9525L15.9797 78.0719ZM76.625 0L66.25 6.05208V18.1562L76.625 24.2083L87 18.1562V6.05208L76.625 0ZM81.8713 7.055L76.58 10.1398L71.3337 7.07921L76.625 3.99437L81.8713 7.055ZM69.6737 10.1052L74.8059 13.1002V19.1523L69.6737 16.1608V10.1052ZM78.2297 19.2802V13.1693L83.5762 10.0499V16.1608L78.2297 19.2802ZM76.625 58.7917L66.25 64.8438V76.9479L76.625 83L87 76.9479V64.8438L76.625 58.7917ZM81.8713 65.8467L76.58 68.9315L71.3337 65.8709L76.625 62.786L81.8713 65.8467ZM69.6737 68.8969L74.8059 71.8918V77.9439L69.6737 74.9525V68.8969ZM78.2297 78.0719V71.961L83.5762 68.8416V74.9525L78.2297 78.0719ZM35.125 10.375H55.875V13.8333H35.125V10.375ZM35.125 69.1667H55.875V72.625H35.125V69.1667ZM16.1042 31.125V51.875H12.6458V31.125H16.1042ZM29.2216 30.5302L21.8865 23.195L24.3315 20.75L31.6667 28.0817L29.2216 30.5302ZM59.3333 28.68L66.6685 21.3448L69.1135 23.7899L61.7784 31.125L59.3333 28.68ZM32.1093 51.4565L24.7742 58.7917L22.3292 56.3466L29.6643 49.0115L32.1093 51.4565ZM62.3732 48.8628L69.7083 56.1979L67.2633 58.643L59.9282 51.3078L62.3732 48.8628ZM78.3542 31.125V51.875H74.8958V31.125H78.3542Z" fill="black"/>
</g>
<defs>
<filter id="filter0_d_3040_160" x="0" y="0" width="91" height="91" filterUnits="userSpaceOnUse" color-interpolation-filters="sRGB">
<feFlood flood-opacity="0" result="BackgroundImageFix"/>
<feColorMatrix in="SourceAlpha" type="matrix" values="0 0 0 0 0 0 0 0 0 0 0 0 0 0 0 0 0 0 127 0" result="hardAlpha"/>
<feOffset dy="4"/>
<feGaussianBlur stdDeviation="2"/>
<feComposite in2="hardAlpha" operator="out"/>
<feColorMatrix type="matrix" values="0 0 0 0 0 0 0 0 0 0 0 0 0 0 0 0 0 0 0.25 0"/>
<feBlend mode="normal" in2="BackgroundImageFix" result="effect1_dropShadow_3040_160"/>
<feBlend mode="normal" in="SourceGraphic" in2="effect1_dropShadow_3040_160" result="shape"/>
</filter>
</defs>
</svg>
