<svg width="54" height="70" viewBox="0 0 54 70" fill="none" xmlns="http://www.w3.org/2000/svg">
<path d="M11.6609 67.165C11.3439 65.5317 10.7046 62.2708 10.626 62.2708C-2.85738 53.5938 -1.26169 38.5642 3.20568 29.9746C4.162 40.7954 21.9529 48.2708 11.5823 61.4979C11.5011 61.67 12.0619 63.7292 12.5387 65.6192C14.6139 61.8392 17.7267 57.2892 17.5668 56.8575C4.80136 23.3625 44.6907 20.7842 52.9861 0C56.7383 20.0958 51.0735 51.1875 19.0027 59.0917C18.8401 59.1792 13.178 69.9125 12.9396 70C12.9396 69.8279 10.5447 69.9125 10.8644 69.055C11.0243 68.5388 11.3439 67.8533 11.6609 67.165ZM11.2627 59.0917C15.3318 54.0254 10.5447 45.3483 7.67305 42.5163C12.5387 51.5346 12.2217 56.7729 11.2627 59.0917Z" fill="black"/>
</svg>
