<svg width="65" height="65" viewBox="0 0 65 65" fill="none" xmlns="http://www.w3.org/2000/svg">
<path d="M13.6172 51.875H20.1016C20.4582 51.875 20.75 51.5832 20.75 51.2266V13.6172C20.75 13.2605 20.4582 12.9688 20.1016 12.9688H13.6172C13.2605 12.9688 12.9688 13.2605 12.9688 13.6172V51.2266C12.9688 51.5832 13.2605 51.875 13.6172 51.875ZM29.1797 29.1797H35.6641C36.0207 29.1797 36.3125 28.8879 36.3125 28.5312V13.6172C36.3125 13.2605 36.0207 12.9688 35.6641 12.9688H29.1797C28.823 12.9688 28.5312 13.2605 28.5312 13.6172V28.5312C28.5312 28.8879 28.823 29.1797 29.1797 29.1797ZM44.7422 35.0156H51.2266C51.5832 35.0156 51.875 34.7238 51.875 34.3672V13.6172C51.875 13.2605 51.5832 12.9688 51.2266 12.9688H44.7422C44.3855 12.9688 44.0938 13.2605 44.0938 13.6172V34.3672C44.0938 34.7238 44.3855 35.0156 44.7422 35.0156ZM62.25 0H2.59375C1.15908 0 0 1.15908 0 2.59375V62.25C0 63.6847 1.15908 64.8438 2.59375 64.8438H62.25C63.6847 64.8438 64.8438 63.6847 64.8438 62.25V2.59375C64.8438 1.15908 63.6847 0 62.25 0ZM59.0078 59.0078H5.83594V5.83594H59.0078V59.0078Z" fill="black"/>
</svg>
