<svg width="79" height="83" viewBox="0 0 79 83" fill="none" xmlns="http://www.w3.org/2000/svg">
<g filter="url(#filter0_d_2469_427)">
<path d="M59.25 51.8438V56.7812H63.5654C60.8276 60.6072 57.2152 63.7235 53.0292 65.8706C48.8431 68.0178 44.2046 69.1335 39.5 69.125C23.1643 69.125 9.875 55.8357 9.875 39.5H4.9375C4.9375 58.5588 20.4413 74.0625 39.5 74.0625C50.2514 74.0625 60.1733 69.1225 66.6562 60.867V64.1875H71.5938V51.8438H59.25Z" fill="white"/>
<path d="M55.5592 28.7293L40.7739 20.0887C40.3965 19.868 39.9672 19.7514 39.53 19.751C39.0927 19.7505 38.6632 19.8662 38.2854 20.0862L23.4457 28.7269C23.0725 28.944 22.7628 29.2553 22.5475 29.6296C22.3322 30.0039 22.2189 30.4281 22.2188 30.8599V48.1411C22.2189 48.5729 22.3322 48.9971 22.5475 49.3714C22.7628 49.7456 23.0725 50.0569 23.4457 50.2741L38.2854 58.9147C38.6525 59.1342 39.0722 59.2502 39.5 59.2505C39.9296 59.2505 40.3888 59.1394 40.7739 58.9123L55.5592 50.2716C55.9311 50.054 56.2396 49.7429 56.454 49.3691C56.6684 48.9954 56.7812 48.572 56.7812 48.1411V30.8599C56.7812 30.429 56.6684 30.0056 56.454 29.6318C56.2396 29.2581 55.9311 28.9469 55.5592 28.7293ZM39.5272 25.0756L49.4194 30.8599L39.5272 36.6417L29.5954 30.8599L39.5272 25.0756ZM27.1562 35.1555L37.0312 40.9077V52.4738L27.1562 46.7216V35.1555ZM41.9688 52.4984V40.9373L51.8438 35.1654V46.7265L41.9688 52.4984Z" fill="white"/>
<path d="M39.5 4.93754C34.2686 4.92997 29.1041 6.11433 24.3988 8.40072C19.6934 10.6871 15.5707 14.0154 12.3438 18.133V14.8125H7.40625V27.1563H19.75V22.2188H15.4346C18.1724 18.3929 21.7848 15.2765 25.9708 13.1294C30.1569 10.9823 34.7954 9.86649 39.5 9.87504C55.8357 9.87504 69.125 23.1643 69.125 39.5H74.0625C74.0625 20.4413 58.5588 4.93754 39.5 4.93754Z" fill="white"/>
</g>
<defs>
<filter id="filter0_d_2469_427" x="-4" y="0" width="87" height="87" filterUnits="userSpaceOnUse" color-interpolation-filters="sRGB">
<feFlood flood-opacity="0" result="BackgroundImageFix"/>
<feColorMatrix in="SourceAlpha" type="matrix" values="0 0 0 0 0 0 0 0 0 0 0 0 0 0 0 0 0 0 127 0" result="hardAlpha"/>
<feOffset dy="4"/>
<feGaussianBlur stdDeviation="2"/>
<feColorMatrix type="matrix" values="0 0 0 0 0 0 0 0 0 0 0 0 0 0 0 0 0 0 0.25 0"/>
<feBlend mode="normal" in2="BackgroundImageFix" result="effect1_dropShadow_2469_427"/>
<feBlend mode="normal" in="SourceGraphic" in2="effect1_dropShadow_2469_427" result="shape"/>
</filter>
</defs>
</svg>
