<svg width="79" height="83" viewBox="0 0 79 83" fill="none" xmlns="http://www.w3.org/2000/svg">
<g filter="url(#filter0_d_2469_441)">
<path d="M69.125 19.75H74.0625V39.5H69.125V19.75ZM56.7812 12.3438H61.7188V39.5H56.7812V12.3438ZM44.4375 24.6875H49.375V39.5H44.4375V24.6875ZM39.5 74.0625H34.5625V59.25C34.5605 57.2863 33.7796 55.4037 32.3911 54.0152C31.0026 52.6266 29.1199 51.8457 27.1562 51.8438H17.2812C15.3176 51.8457 13.4349 52.6266 12.0464 54.0152C10.6579 55.4037 9.87696 57.2863 9.875 59.25V74.0625H4.9375V59.25C4.94142 55.9774 6.24318 52.84 8.55723 50.526C10.8713 48.2119 14.0087 46.9102 17.2812 46.9062H27.1562C30.4288 46.9102 33.5662 48.2119 35.8803 50.526C38.1943 52.84 39.4961 55.9774 39.5 59.25V74.0625ZM22.2188 22.2188C23.6836 22.2188 25.1155 22.6531 26.3334 23.4669C27.5514 24.2807 28.5007 25.4374 29.0612 26.7908C29.6218 28.1441 29.7685 29.6332 29.4827 31.0699C29.1969 32.5066 28.4915 33.8262 27.4558 34.862C26.42 35.8978 25.1003 36.6032 23.6636 36.8889C22.227 37.1747 20.7378 37.028 19.3845 36.4675C18.0312 35.9069 16.8745 34.9576 16.0607 33.7397C15.2469 32.5217 14.8125 31.0898 14.8125 29.625C14.8125 27.6607 15.5928 25.7769 16.9817 24.388C18.3707 22.999 20.2545 22.2188 22.2188 22.2188ZM22.2188 17.2812C19.7774 17.2812 17.3908 18.0052 15.3609 19.3615C13.331 20.7179 11.7489 22.6457 10.8146 24.9013C9.88034 27.1568 9.6359 29.6387 10.1122 32.0331C10.5885 34.4276 11.7641 36.627 13.4904 38.3533C15.2167 40.0797 17.4162 41.2553 19.8106 41.7316C22.2051 42.2079 24.687 41.9634 26.9425 41.0291C29.198 40.0949 31.1259 38.5127 32.4822 36.4828C33.8386 34.4529 34.5625 32.0664 34.5625 29.625C34.5625 28.004 34.2432 26.3989 33.6229 24.9013C33.0026 23.4036 32.0933 22.0429 30.9471 20.8967C29.8009 19.7504 28.4401 18.8412 26.9425 18.2209C25.4449 17.6005 23.8398 17.2812 22.2188 17.2812Z" fill="white"/>
</g>
<defs>
<filter id="filter0_d_2469_441" x="-4" y="0" width="87" height="87" filterUnits="userSpaceOnUse" color-interpolation-filters="sRGB">
<feFlood flood-opacity="0" result="BackgroundImageFix"/>
<feColorMatrix in="SourceAlpha" type="matrix" values="0 0 0 0 0 0 0 0 0 0 0 0 0 0 0 0 0 0 127 0" result="hardAlpha"/>
<feOffset dy="4"/>
<feGaussianBlur stdDeviation="2"/>
<feColorMatrix type="matrix" values="0 0 0 0 0 0 0 0 0 0 0 0 0 0 0 0 0 0 0.25 0"/>
<feBlend mode="normal" in2="BackgroundImageFix" result="effect1_dropShadow_2469_441"/>
<feBlend mode="normal" in="SourceGraphic" in2="effect1_dropShadow_2469_441" result="shape"/>
</filter>
</defs>
</svg>
