<svg width="73" height="72" viewBox="0 0 73 72" fill="none" xmlns="http://www.w3.org/2000/svg">
<g filter="url(#filter0_d_2469_440)">
<path d="M8.9375 2.46875C8.9375 1.814 8.6774 1.18606 8.21442 0.72308C7.75144 0.2601 7.1235 0 6.46875 0C5.814 0 5.18606 0.2601 4.72308 0.72308C4.2601 1.18606 4 1.814 4 2.46875V53.0781C4 56.0245 5.17045 58.8502 7.25386 60.9336C9.33727 63.0171 12.163 64.1875 15.1094 64.1875H65.7188C66.3735 64.1875 67.0014 63.9274 67.4644 63.4644C67.9274 63.0014 68.1875 62.3735 68.1875 61.7188C68.1875 61.064 67.9274 60.4361 67.4644 59.9731C67.0014 59.5101 66.3735 59.25 65.7188 59.25H60.7812V14.8125C60.7812 14.354 60.6536 13.9046 60.4125 13.5146C60.1715 13.1246 59.8266 12.8094 59.4166 12.6044C59.0065 12.3993 58.5474 12.3126 58.0908 12.3537C57.6342 12.3949 57.198 12.5624 56.8312 12.8375L38.3008 26.7366L24.8535 20.0117C24.5331 19.8515 24.1816 19.7631 23.8235 19.7524C23.4654 19.7418 23.1092 19.8092 22.7798 19.95L8.9375 25.8824V2.46875ZM8.9375 31.2544L23.671 24.9393L37.459 31.8321C37.8689 32.0371 38.3278 32.1241 38.7843 32.0831C39.2408 32.0421 39.6769 31.8748 40.0438 31.6L55.8438 19.75V59.25H15.1094C13.4725 59.25 11.9027 58.5998 10.7452 57.4423C9.58775 56.2848 8.9375 54.715 8.9375 53.0781V31.2544Z" fill="white"/>
</g>
<defs>
<filter id="filter0_d_2469_440" x="0" y="0" width="72.1875" height="72.1875" filterUnits="userSpaceOnUse" color-interpolation-filters="sRGB">
<feFlood flood-opacity="0" result="BackgroundImageFix"/>
<feColorMatrix in="SourceAlpha" type="matrix" values="0 0 0 0 0 0 0 0 0 0 0 0 0 0 0 0 0 0 127 0" result="hardAlpha"/>
<feOffset dy="4"/>
<feGaussianBlur stdDeviation="2"/>
<feColorMatrix type="matrix" values="0 0 0 0 0 0 0 0 0 0 0 0 0 0 0 0 0 0 0.25 0"/>
<feBlend mode="normal" in2="BackgroundImageFix" result="effect1_dropShadow_2469_440"/>
<feBlend mode="normal" in="SourceGraphic" in2="effect1_dropShadow_2469_440" result="shape"/>
</filter>
</defs>
</svg>
