<svg width="97" height="93" viewBox="0 0 97 93" fill="none" xmlns="http://www.w3.org/2000/svg">
<g filter="url(#filter0_d_2465_483)">
<path d="M55.8049 0C55.0481 0 54.3223 0.300665 53.7871 0.835853C53.252 1.37104 52.9513 2.09691 52.9513 2.85378V37.0992C52.9513 37.856 53.252 38.5819 53.7871 39.1171C54.3223 39.6523 55.0481 39.9529 55.8049 39.9529H90.0478C90.8046 39.9529 91.5305 39.6523 92.0656 39.1171C92.6008 38.5819 92.9014 37.856 92.9014 37.0992C92.9014 32.2272 91.9419 27.403 90.0776 22.9019C88.2133 18.4008 85.4808 14.3111 82.0361 10.8661C78.5914 7.42112 74.5019 4.68841 70.0011 2.824C65.5004 0.959598 60.6765 0 55.8049 0ZM58.6585 34.2454V5.83313C65.9686 6.49954 72.8141 9.70703 78.0046 14.8979C83.1951 20.0888 86.4023 26.9347 87.0687 34.2454H58.6585ZM47.2442 14.3945C47.2442 13.998 47.1616 13.606 47.0017 13.2432C46.8418 12.8805 46.6081 12.555 46.3155 12.2876C46.0229 12.0202 45.6777 11.8167 45.3021 11.69C44.9265 11.5634 44.5286 11.5164 44.1338 11.5521C37.653 12.143 31.4747 14.5686 26.3227 18.5446C21.1707 22.5207 17.2583 27.8826 15.0438 34.0023C12.8292 40.122 12.4042 46.7461 13.8185 53.0986C15.2328 59.4512 18.4279 65.2692 23.0295 69.8712C27.6311 74.4731 33.4487 77.6684 39.8009 79.0829C46.153 80.4973 52.7766 80.0722 58.8959 77.8575C65.0151 75.6428 70.3767 71.7301 74.3524 66.5777C78.3282 61.4253 80.7535 55.2467 81.3444 48.7654C81.3792 48.3715 81.3318 47.9747 81.2051 47.6001C81.0785 47.2255 80.8753 46.8813 80.6087 46.5894C80.342 46.2975 80.0175 46.0642 79.6559 45.9042C79.2943 45.7443 78.9034 45.6613 78.508 45.6605H47.2442V14.3945ZM18.7084 45.6605C18.7071 39.0817 20.9786 32.7044 25.1386 27.608C29.2986 22.5117 35.0916 19.0092 41.537 17.6934V48.5143C41.537 49.2711 41.8377 49.997 42.3728 50.5322C42.908 51.0674 43.6338 51.3681 44.3906 51.3681H75.2092C73.7772 58.2819 69.8341 64.4198 64.1416 68.5963C58.449 72.7728 51.4109 74.6915 44.3865 73.9819C37.3621 73.2723 30.8498 69.9848 26.1074 64.7542C21.365 59.5236 18.729 52.7211 18.7084 45.6605Z" fill="white"/>
</g>
<defs>
<filter id="filter0_d_2465_483" x="-4" y="0" width="101" height="101" filterUnits="userSpaceOnUse" color-interpolation-filters="sRGB">
<feFlood flood-opacity="0" result="BackgroundImageFix"/>
<feColorMatrix in="SourceAlpha" type="matrix" values="0 0 0 0 0 0 0 0 0 0 0 0 0 0 0 0 0 0 127 0" result="hardAlpha"/>
<feOffset dy="4"/>
<feGaussianBlur stdDeviation="2"/>
<feColorMatrix type="matrix" values="0 0 0 0 0 0 0 0 0 0 0 0 0 0 0 0 0 0 0.25 0"/>
<feBlend mode="normal" in2="BackgroundImageFix" result="effect1_dropShadow_2465_483"/>
<feBlend mode="normal" in="SourceGraphic" in2="effect1_dropShadow_2465_483" result="shape"/>
</filter>
</defs>
</svg>
