<svg width="82" height="85" viewBox="0 0 82 85" fill="none" xmlns="http://www.w3.org/2000/svg">
<g filter="url(#filter0_d_2469_448)">
<path d="M56.375 66.625C59.2055 66.625 61.5 64.3305 61.5 61.5C61.5 58.6695 59.2055 56.375 56.375 56.375C53.5445 56.375 51.25 58.6695 51.25 61.5C51.25 64.3305 53.5445 66.625 56.375 66.625Z" fill="white"/>
<path d="M76.3036 60.1649C74.7202 56.1313 71.9881 52.6509 68.4456 50.1552C64.9032 47.6595 60.7062 46.2582 56.375 46.125C52.0438 46.2582 47.8468 47.6595 44.3044 50.1552C40.7619 52.6509 38.0297 56.1313 36.4464 60.1649L35.875 61.5L36.4464 62.8376C38.0301 66.8708 40.7625 70.3506 44.3049 72.8459C47.8473 75.3411 52.0441 76.742 56.375 76.875C60.7059 76.742 64.9027 75.3411 68.4451 72.8459C71.9875 70.3506 74.7199 66.8708 76.3036 62.8376L76.875 61.5L76.3036 60.1649ZM56.375 71.75C54.3477 71.75 52.366 71.1488 50.6804 70.0226C48.9948 68.8963 47.681 67.2954 46.9052 65.4225C46.1294 63.5496 45.9265 61.4886 46.3219 59.5003C46.7174 57.512 47.6937 55.6856 49.1272 54.2522C50.5606 52.8187 52.387 51.8424 54.3753 51.4469C56.3636 51.0515 58.4246 51.2544 60.2975 52.0302C62.1704 52.806 63.7713 54.1198 64.8976 55.8054C66.0238 57.491 66.625 59.4727 66.625 61.5C66.6216 64.2174 65.5406 66.8226 63.6191 68.7441C61.6976 70.6656 59.0924 71.7466 56.375 71.75Z" fill="white"/>
<path d="M20.5 23.0625C21.9152 23.0625 23.0625 21.9152 23.0625 20.5C23.0625 19.0848 21.9152 17.9375 20.5 17.9375C19.0848 17.9375 17.9375 19.0848 17.9375 20.5C17.9375 21.9152 19.0848 23.0625 20.5 23.0625Z" fill="white"/>
<path d="M20.5 43.5625C21.9152 43.5625 23.0625 42.4152 23.0625 41C23.0625 39.5848 21.9152 38.4375 20.5 38.4375C19.0848 38.4375 17.9375 39.5848 17.9375 41C17.9375 42.4152 19.0848 43.5625 20.5 43.5625Z" fill="white"/>
<path d="M20.5 64.0625C21.9152 64.0625 23.0625 62.9152 23.0625 61.5C23.0625 60.0848 21.9152 58.9375 20.5 58.9375C19.0848 58.9375 17.9375 60.0848 17.9375 61.5C17.9375 62.9152 19.0848 64.0625 20.5 64.0625Z" fill="white"/>
<path d="M12.8125 53.8125H30.75V48.6875H12.8125V33.3125H53.8125V41H58.9375V12.8125C58.9375 11.4533 58.3975 10.1497 57.4364 9.18858C56.4753 8.22745 55.1717 7.6875 53.8125 7.6875H12.8125C11.4533 7.6875 10.1497 8.22745 9.18858 9.18858C8.22745 10.1497 7.6875 11.4533 7.6875 12.8125V69.1875C7.6875 70.5467 8.22745 71.8503 9.18858 72.8114C10.1497 73.7725 11.4533 74.3125 12.8125 74.3125H30.75V69.1875H12.8125V53.8125ZM12.8125 12.8125H53.8125V28.1875H12.8125V12.8125Z" fill="white"/>
</g>
<defs>
<filter id="filter0_d_2469_448" x="-4" y="0" width="90" height="90" filterUnits="userSpaceOnUse" color-interpolation-filters="sRGB">
<feFlood flood-opacity="0" result="BackgroundImageFix"/>
<feColorMatrix in="SourceAlpha" type="matrix" values="0 0 0 0 0 0 0 0 0 0 0 0 0 0 0 0 0 0 127 0" result="hardAlpha"/>
<feOffset dy="4"/>
<feGaussianBlur stdDeviation="2"/>
<feColorMatrix type="matrix" values="0 0 0 0 0 0 0 0 0 0 0 0 0 0 0 0 0 0 0.25 0"/>
<feBlend mode="normal" in2="BackgroundImageFix" result="effect1_dropShadow_2469_448"/>
<feBlend mode="normal" in="SourceGraphic" in2="effect1_dropShadow_2469_448" result="shape"/>
</filter>
</defs>
</svg>
