<svg width="84" height="84" viewBox="0 0 84 84" fill="none" xmlns="http://www.w3.org/2000/svg">
<g clip-path="url(#clip0_2469_446)" filter="url(#filter0_d_2469_446)">
<path d="M13.5 52.25V42.75H4V0H61V9.5H70.5V28.5H65.75V14.25H18.25V47.5H46.75V52.25H13.5ZM13.5 38V9.5H56.25V4.75H8.75V38H13.5ZM23 42.75V33.25H27.75V42.75H23ZM32.5 42.75V23.75H37.25V42.75H32.5ZM42 42.75V28.5H46.75V42.75H42ZM65.75 33.25C67.7044 33.25 69.5475 33.6211 71.2793 34.3633C73.0111 35.1055 74.5202 36.1198 75.8066 37.4062C77.0931 38.6927 78.1198 40.2142 78.8867 41.9707C79.6536 43.7272 80.0247 45.5703 80 47.5C80 49.4792 79.6289 51.3223 78.8867 53.0293C78.1445 54.7363 77.1302 56.2454 75.8438 57.5566C74.5573 58.8678 73.0358 59.8945 71.2793 60.6367C69.5228 61.3789 67.6797 61.75 65.75 61.75C64.2656 61.75 62.8184 61.5273 61.4082 61.082C59.998 60.6367 58.6992 59.9811 57.5117 59.1152L41.2949 75.2949C40.8249 75.765 40.2682 76 39.625 76C38.9818 76 38.4251 75.765 37.9551 75.2949C37.485 74.8249 37.25 74.2682 37.25 73.625C37.25 72.9818 37.485 72.4251 37.9551 71.9551L54.1348 55.7383C53.2689 54.5508 52.6133 53.252 52.168 51.8418C51.7227 50.4316 51.5 48.9844 51.5 47.5C51.5 45.5456 51.8711 43.7025 52.6133 41.9707C53.3555 40.2389 54.3698 38.7298 55.6562 37.4434C56.9427 36.1569 58.4518 35.1302 60.1836 34.3633C61.9154 33.5964 63.7708 33.2253 65.75 33.25ZM65.75 57C67.0612 57 68.2858 56.7526 69.4238 56.2578C70.5619 55.763 71.5762 55.0827 72.4668 54.2168C73.3574 53.3509 74.0378 52.349 74.5078 51.2109C74.9779 50.0729 75.2253 48.8359 75.25 47.5C75.25 46.1888 75.0026 44.9642 74.5078 43.8262C74.013 42.6882 73.3327 41.6738 72.4668 40.7832C71.6009 39.8926 70.599 39.2122 69.4609 38.7422C68.3229 38.2721 67.0859 38.0247 65.75 38C64.4388 38 63.2142 38.2474 62.0762 38.7422C60.9382 39.237 59.9238 39.9173 59.0332 40.7832C58.1426 41.6491 57.4622 42.651 56.9922 43.7891C56.5221 44.9271 56.2747 46.1641 56.25 47.5C56.25 48.8112 56.4974 50.0358 56.9922 51.1738C57.487 52.3118 58.1673 53.3262 59.0332 54.2168C59.8991 55.1074 60.901 55.7878 62.0391 56.2578C63.1771 56.7279 64.4141 56.9753 65.75 57Z" fill="white"/>
</g>
<defs>
<filter id="filter0_d_2469_446" x="0" y="0" width="84" height="84" filterUnits="userSpaceOnUse" color-interpolation-filters="sRGB">
<feFlood flood-opacity="0" result="BackgroundImageFix"/>
<feColorMatrix in="SourceAlpha" type="matrix" values="0 0 0 0 0 0 0 0 0 0 0 0 0 0 0 0 0 0 127 0" result="hardAlpha"/>
<feOffset dy="4"/>
<feGaussianBlur stdDeviation="2"/>
<feColorMatrix type="matrix" values="0 0 0 0 0 0 0 0 0 0 0 0 0 0 0 0 0 0 0.25 0"/>
<feBlend mode="normal" in2="BackgroundImageFix" result="effect1_dropShadow_2469_446"/>
<feBlend mode="normal" in="SourceGraphic" in2="effect1_dropShadow_2469_446" result="shape"/>
</filter>
<clipPath id="clip0_2469_446">
<rect width="76" height="76" fill="white" transform="translate(4)"/>
</clipPath>
</defs>
</svg>
