<svg width="86" height="48" viewBox="0 0 86 48" fill="none" xmlns="http://www.w3.org/2000/svg">
<path d="M65.5386 1.4575C65.0711 0.995418 64.5161 0.628873 63.9053 0.378794C63.2945 0.128715 62.6398 0 61.9786 0C61.3174 0 60.6627 0.128715 60.0519 0.378794C59.4411 0.628873 58.8861 0.995418 58.4186 1.4575L16.8985 42.5054L21.6428 33.12L12.147 23.7381L24.015 12.0117L33.5108 21.3971L40.6273 14.3563L27.5768 1.4575C27.1093 0.995418 26.5543 0.628873 25.9435 0.378794C25.3326 0.128715 24.6779 0 24.0168 0C23.3556 0 22.7009 0.128715 22.0901 0.378794C21.4792 0.628873 20.9242 0.995418 20.4567 1.4575L1.47223 20.2213C1.00428 20.6831 0.633046 21.2316 0.379757 21.8353C0.126467 22.4391 -0.00390625 23.0863 -0.00390625 23.7399C-0.00390625 24.3935 0.126467 25.0407 0.379757 25.6445C0.633046 26.2482 1.00428 26.7967 1.47223 27.2585L16.8985 42.5054L20.4567 46.0188C20.9242 46.4808 21.4792 46.8474 22.0901 47.0975C22.7009 47.3475 23.3556 47.4763 24.0168 47.4763C24.6779 47.4763 25.3326 47.3475 25.9435 47.0975C26.5543 46.8474 27.1093 46.4808 27.5768 46.0188L69.1041 4.97792L65.5458 1.4575H65.5386ZM64.349 14.374L73.8448 23.7594L58.415 39.0063C57.9477 39.4681 57.577 40.0164 57.3242 40.6198C57.0713 41.2232 56.9411 41.87 56.9411 42.5231C56.9411 43.1763 57.0713 43.823 57.3242 44.4264C57.577 45.0299 57.9477 45.5782 58.415 46.04C58.8823 46.5019 59.437 46.8682 60.0475 47.1181C60.658 47.3681 61.3124 47.4967 61.9732 47.4967C62.6341 47.4967 63.2884 47.3681 63.8989 47.1181C64.5095 46.8682 65.0642 46.5019 65.5315 46.04L84.5196 27.2763C84.9875 26.8144 85.3587 26.2659 85.612 25.6622C85.8653 25.0584 85.9957 24.4112 85.9957 23.7576C85.9957 23.104 85.8653 22.4568 85.612 21.853C85.3587 21.2493 84.9875 20.7008 84.5196 20.239L69.0933 4.99563L64.349 14.374Z" fill="black"/>
</svg>
