<svg width="36" height="43" viewBox="0 0 36 43" fill="none" xmlns="http://www.w3.org/2000/svg">
<path d="M7.71184 41.2585C7.50222 40.2552 7.07938 38.2521 7.02742 38.2521C-1.8897 32.9219 -0.83441 23.6894 2.12005 18.413C2.75251 25.06 14.5184 29.6521 7.65988 37.7773C7.60613 37.883 7.97701 39.1479 8.29234 40.3089C9.66476 37.9869 11.7234 35.1919 11.6177 34.9268C3.17534 14.3512 29.5558 12.7674 35.0419 0C37.5234 12.3446 33.777 31.4438 12.5673 36.2992C12.4598 36.3529 8.71517 42.9463 8.55751 43C8.55751 42.8943 6.97367 42.9462 7.18509 42.4195C7.2908 42.1024 7.50222 41.6813 7.71184 41.2585ZM7.44847 36.2992C10.1395 33.187 6.97367 27.8568 5.07451 26.1171C8.29234 31.657 8.08272 34.8748 7.44847 36.2992Z" fill="black"/>
</svg>
