<svg width="58" height="56" viewBox="0 0 58 56" fill="none" xmlns="http://www.w3.org/2000/svg">
<path d="M34.6714 7.54786C35.5158 5.18159 36.4059 2.83187 37.3411 0.5C41.5011 3.46214 45.2154 7.83571 46.6036 14.0571C46.7382 14.6575 46.7253 15.2816 46.5661 15.8759C46.4068 16.4702 46.1058 17.0171 45.6889 17.4696C41.3757 22.1543 35.9714 24.0904 30.8968 24.5686C30.8968 24.5686 31.4539 20.5989 32.1736 16.7686L28.0739 15.6682C26.1884 15.1641 24.2179 15.0619 22.2903 15.3682C20.3627 15.6746 18.521 16.3826 16.8846 17.4464L16.6896 17.5671L19.1132 13.6486C20.6873 11.1011 23.0404 9.12881 25.8236 8.02404C28.6068 6.91928 31.672 6.7409 34.5646 7.51536L34.6714 7.54786ZM7.99821 40.215C5.49414 40.0095 2.99427 39.7557 0.5 39.4536C2.28286 34.6714 5.54214 29.9543 11.1925 27.0014C11.7382 26.7151 12.3452 26.5655 12.9614 26.5655C13.5777 26.5655 14.1847 26.7151 14.7304 27.0014C20.3807 29.9543 23.64 34.6714 25.4229 39.4536C25.4229 39.4536 21.4439 39.9457 17.5579 40.2429V44.4818C17.5577 46.4343 17.9681 48.365 18.7623 50.1487C19.5566 51.9324 20.717 53.5291 22.1682 54.8354L22.3354 54.9886L17.9246 53.6654C15.0551 52.8045 12.5395 51.0414 10.7514 48.6377C8.96318 46.2339 7.99771 43.3177 7.99821 40.3218V40.215ZM51.6271 47.0725C53.7629 50.1832 55.75 53.3775 55.75 53.3775C50.9121 54.9932 45.1921 55.425 39.3421 52.89C38.7768 52.6459 38.2791 52.2683 37.8918 51.7895C37.5044 51.3108 37.239 50.7453 37.1182 50.1414C35.8646 43.8921 37.485 38.3904 40.0804 33.9936C40.0804 33.9936 42.9589 36.7793 45.6379 39.6207L48.9343 36.9511C50.4533 35.7233 51.6971 34.1898 52.585 32.45C53.4728 30.7103 53.9849 28.8033 54.0879 26.8529L54.1018 26.6254L55.8475 30.8968C56.9809 33.6683 57.1911 36.7312 56.4468 39.6315C55.7024 42.5318 54.0433 45.115 51.7154 46.9982L51.6271 47.0725Z" fill="black"/>
<path d="M34.6714 7.54786C35.5158 5.18159 36.4059 2.83187 37.3411 0.5C41.5011 3.46214 45.2154 7.83571 46.6036 14.0571C46.7382 14.6575 46.7253 15.2816 46.5661 15.8759C46.4068 16.4702 46.1058 17.0171 45.6889 17.4696C41.3757 22.1543 35.9714 24.0904 30.8968 24.5686C30.8968 24.5686 31.4539 20.5989 32.1736 16.7686L28.0739 15.6682C26.1884 15.1641 24.2179 15.0619 22.2903 15.3682C20.3627 15.6746 18.521 16.3826 16.8846 17.4464L16.6896 17.5671L19.1132 13.6486C20.6873 11.1011 23.0404 9.12881 25.8236 8.02404C28.6068 6.91928 31.672 6.7409 34.5646 7.51536L34.6714 7.54786ZM7.99821 40.215C4.23286 39.9086 0.5 39.4489 0.5 39.4489C2.2875 34.6668 5.54679 29.9496 11.1971 26.9968C11.7422 26.7112 12.3484 26.5621 12.9637 26.5621C13.5791 26.5621 14.1853 26.7112 14.7304 26.9968C20.3807 29.9496 23.6446 34.6668 25.4275 39.4489C25.4275 39.4489 21.4486 39.9411 17.5579 40.2382V44.4771C17.5577 46.4297 17.9681 48.3604 18.7623 50.1441C19.5566 51.9277 20.717 53.5245 22.1682 54.8307L22.34 54.9839L17.9293 53.6607C15.0588 52.8007 12.5423 51.038 10.7532 48.6341C8.96415 46.2303 7.99801 43.3136 7.99821 40.3171V40.215ZM51.6271 47.0725C53.7629 50.1832 55.75 53.3775 55.75 53.3775C50.9121 54.9932 45.1921 55.425 39.3421 52.89C38.7768 52.6459 38.2791 52.2683 37.8918 51.7895C37.5044 51.3108 37.239 50.7453 37.1182 50.1414C35.8646 43.8921 37.485 38.3904 40.0804 33.9936C40.0804 33.9936 42.9589 36.7793 45.6379 39.6207L48.9343 36.9511C50.4533 35.7233 51.6971 34.1897 52.585 32.45C53.4728 30.7103 53.9849 28.8033 54.0879 26.8529L54.1018 26.6254L55.8475 30.8968C56.9809 33.6683 57.1911 36.7312 56.4468 39.6315C55.7024 42.5318 54.0433 45.115 51.7154 46.9982L51.6271 47.0725Z" stroke="#92FE9D" stroke-linecap="round" stroke-linejoin="round"/>
</svg>
