<svg width="60" height="66" viewBox="0 0 60 66" fill="none" xmlns="http://www.w3.org/2000/svg">
<path d="M51 6.00021H41.106C40.8089 5.55847 40.4884 5.13287 40.146 4.7252L40.116 4.6892C37.911 2.12292 34.8103 0.494238 31.446 0.135205C30.4904 -0.0450683 29.5096 -0.0450683 28.554 0.135205C25.1897 0.494238 22.0889 2.12292 19.884 4.6892L19.854 4.7252C19.5117 5.1319 19.1912 5.55649 18.894 5.99721V6.00021H9C6.61378 6.00259 4.32598 6.95156 2.63867 8.63888C0.95136 10.3262 0.00238264 12.614 0 15.0002V57.0002C0.00238264 59.3864 0.95136 61.6742 2.63867 63.3615C4.32598 65.0488 6.61378 65.9978 9 66.0002H51C53.3862 65.9978 55.674 65.0488 57.3613 63.3615C59.0486 61.6742 59.9976 59.3864 60 57.0002V15.0002C59.9976 12.614 59.0486 10.3262 57.3613 8.63888C55.674 6.95156 53.3862 6.00259 51 6.00021ZM54 57.0002C54 57.7959 53.6839 58.5589 53.1213 59.1215C52.5587 59.6841 51.7957 60.0002 51 60.0002H9C8.20435 60.0002 7.44129 59.6841 6.87868 59.1215C6.31607 58.5589 6 57.7959 6 57.0002V15.0002C6 14.2046 6.31607 13.4415 6.87868 12.8789C7.44129 12.3163 8.20435 12.0002 9 12.0002H22.65C22.9943 10.3048 23.9141 8.78049 25.2536 7.68564C26.5931 6.59078 28.27 5.99269 30 5.99269C31.73 5.99269 33.4069 6.59078 34.7464 7.68564C36.0859 8.78049 37.0057 10.3048 37.35 12.0002H51C51.7957 12.0002 52.5587 12.3163 53.1213 12.8789C53.6839 13.4415 54 14.2046 54 15.0002V57.0002Z" fill="black"/>
</svg>
