<svg width="69" height="71" viewBox="0 0 69 71" fill="none" xmlns="http://www.w3.org/2000/svg">
<g filter="url(#filter0_d_3253_679)">
<path d="M28.75 14.375L34.5 8.625M23 46L46 23M34.5 60.375L40.25 54.625M47.4375 54.625C49.3437 54.625 51.1719 53.8677 52.5198 52.5198C53.8677 51.1719 54.625 49.3437 54.625 47.4375C54.625 45.5313 53.8677 43.7031 52.5198 42.3552C51.1719 41.0073 49.3437 40.25 47.4375 40.25C45.5313 40.25 43.7031 41.0073 42.3552 42.3552C41.0073 43.7031 40.25 45.5313 40.25 47.4375C40.25 49.3437 41.0073 51.1719 42.3552 52.5198C43.7031 53.8677 45.5313 54.625 47.4375 54.625ZM21.5625 28.75C23.4687 28.75 25.2969 27.9927 26.6448 26.6448C27.9927 25.2969 28.75 23.4687 28.75 21.5625C28.75 19.6563 27.9927 17.8281 26.6448 16.4802C25.2969 15.1323 23.4687 14.375 21.5625 14.375C19.6563 14.375 17.8281 15.1323 16.4802 16.4802C15.1323 17.8281 14.375 19.6563 14.375 21.5625C14.375 23.4687 15.1323 25.2969 16.4802 26.6448C17.8281 27.9927 19.6563 28.75 21.5625 28.75ZM15.8125 60.375C17.7187 60.375 19.5469 59.6177 20.8948 58.2698C22.2427 56.9219 23 55.0937 23 53.1875C23 51.2813 22.2427 49.4531 20.8948 48.1052C19.5469 46.7573 17.7187 46 15.8125 46C13.9063 46 12.0781 46.7573 10.7302 48.1052C9.38225 49.4531 8.625 51.2813 8.625 53.1875C8.625 55.0937 9.38225 56.9219 10.7302 58.2698C12.0781 59.6177 13.9063 60.375 15.8125 60.375ZM53.1875 23C55.0937 23 56.9219 22.2427 58.2698 20.8948C59.6177 19.5469 60.375 17.7187 60.375 15.8125C60.375 13.9063 59.6177 12.0781 58.2698 10.7302C56.9219 9.38225 55.0937 8.625 53.1875 8.625C51.2813 8.625 49.4531 9.38225 48.1052 10.7302C46.7573 12.0781 46 13.9063 46 15.8125C46 17.7187 46.7573 19.5469 48.1052 20.8948C49.4531 22.2427 51.2813 23 53.1875 23Z" stroke="white" stroke-width="4" stroke-linecap="round" stroke-linejoin="round"/>
</g>
<defs>
<filter id="filter0_d_3253_679" x="-4" y="0" width="77" height="77" filterUnits="userSpaceOnUse" color-interpolation-filters="sRGB">
<feFlood flood-opacity="0" result="BackgroundImageFix"/>
<feColorMatrix in="SourceAlpha" type="matrix" values="0 0 0 0 0 0 0 0 0 0 0 0 0 0 0 0 0 0 127 0" result="hardAlpha"/>
<feOffset dy="4"/>
<feGaussianBlur stdDeviation="2"/>
<feComposite in2="hardAlpha" operator="out"/>
<feColorMatrix type="matrix" values="0 0 0 0 0 0 0 0 0 0 0 0 0 0 0 0 0 0 0.25 0"/>
<feBlend mode="normal" in2="BackgroundImageFix" result="effect1_dropShadow_3253_679"/>
<feBlend mode="normal" in="SourceGraphic" in2="effect1_dropShadow_3253_679" result="shape"/>
</filter>
</defs>
</svg>
