<svg width="83" height="83" viewBox="0 0 83 83" fill="none" xmlns="http://www.w3.org/2000/svg">
<path d="M41.5003 6.91699C22.4311 6.91699 6.91699 22.4311 6.91699 41.5003V55.8282C6.91699 59.3695 10.0191 62.2503 13.8337 62.2503H17.292C18.2092 62.2503 19.0888 61.886 19.7374 61.2374C20.386 60.5888 20.7503 59.7092 20.7503 58.792V41.0058C20.7503 40.0886 20.386 39.2089 19.7374 38.5604C19.0888 37.9118 18.2092 37.5475 17.292 37.5475H14.1518C16.0747 24.1637 27.5909 13.8337 41.5003 13.8337C55.4097 13.8337 66.926 24.1637 68.8488 37.5475H65.7087C64.7915 37.5475 63.9118 37.9118 63.2632 38.5604C62.6147 39.2089 62.2503 40.0886 62.2503 41.0058V62.2503C62.2503 66.0649 59.1482 69.167 55.3337 69.167H48.417V65.7087H34.5837V76.0837H55.3337C62.9627 76.0837 69.167 69.8794 69.167 62.2503C72.9815 62.2503 76.0837 59.3695 76.0837 55.8282V41.5003C76.0837 22.4311 60.5696 6.91699 41.5003 6.91699Z" fill="white"/>
</svg>
