<svg width="603" height="611" viewBox="0 0 603 611" fill="none" xmlns="http://www.w3.org/2000/svg">
<mask id="mask0_341_618" style="mask-type:alpha" maskUnits="userSpaceOnUse" x="36" y="0" width="567" height="611">
<mask id="path-1-outside-1_341_618" maskUnits="userSpaceOnUse" x="35.3125" y="-0.883789" width="567" height="612" fill="black">
<rect fill="white" x="35.3125" y="-0.883789" width="567" height="612"/>
<path d="M319.231 152.203L337.018 0.116211L336.879 153.404L372.174 4.92054L354.387 157.008L406.635 14.3791L371.34 163.013L439.707 28.4918L387.32 171.12L470.834 46.9585L402.328 181.48L499.459 69.6289L416.085 193.641L525.445 95.9026L428.174 207.603L548.095 125.479L438.596 223.217L567.132 157.908L447.211 240.033L582.278 192.59L453.742 257.899L593.256 229.073L458.189 276.515L599.926 266.757L460.412 295.433L602.149 305.041L460.412 314.65L599.926 343.326L458.189 333.717L593.256 381.01L453.742 352.334L582.278 417.643L447.211 370.2L567.132 452.324L438.596 387.015L548.095 484.753L428.174 402.479L525.445 514.33L416.085 416.442L499.459 540.604L402.328 428.753L470.834 563.124L387.32 438.962L439.707 581.591L371.34 447.219L406.635 595.703L354.387 453.075L372.174 605.312L336.879 456.678L337.018 610.116L319.231 457.879L301.444 610.116L301.444 456.678L266.149 605.312L284.075 453.075L231.826 595.703L267.122 447.219L198.754 581.591L251.142 438.962L167.628 563.124L236.134 428.753L138.863 540.604L222.377 416.442L113.017 514.33L210.288 402.479L90.3672 484.753L199.866 387.015L71.3299 452.324L191.251 370.2L56.1835 417.643L184.72 352.334L45.2058 381.01L180.273 333.717L38.5358 343.326L178.05 314.65L36.3125 305.041L178.05 295.433L38.5358 266.757L180.273 276.515L45.2058 229.073L184.72 257.899L56.1835 192.59L191.251 240.033L71.3299 157.908L199.866 223.217L90.3672 125.479L210.288 207.603L113.017 95.9026L222.377 193.641L138.863 69.6289L236.134 181.48L167.628 46.9585L251.142 171.12L198.754 28.4918L267.122 163.013L231.826 14.3791L284.075 157.008L266.149 4.92054L301.444 153.404V0.116211L319.231 152.203Z"/>
</mask>
<path d="M319.231 152.203L337.018 0.116211L336.879 153.404L372.174 4.92054L354.387 157.008L406.635 14.3791L371.34 163.013L439.707 28.4918L387.32 171.12L470.834 46.9585L402.328 181.48L499.459 69.6289L416.085 193.641L525.445 95.9026L428.174 207.603L548.095 125.479L438.596 223.217L567.132 157.908L447.211 240.033L582.278 192.59L453.742 257.899L593.256 229.073L458.189 276.515L599.926 266.757L460.412 295.433L602.149 305.041L460.412 314.65L599.926 343.326L458.189 333.717L593.256 381.01L453.742 352.334L582.278 417.643L447.211 370.2L567.132 452.324L438.596 387.015L548.095 484.753L428.174 402.479L525.445 514.33L416.085 416.442L499.459 540.604L402.328 428.753L470.834 563.124L387.32 438.962L439.707 581.591L371.34 447.219L406.635 595.703L354.387 453.075L372.174 605.312L336.879 456.678L337.018 610.116L319.231 457.879L301.444 610.116L301.444 456.678L266.149 605.312L284.075 453.075L231.826 595.703L267.122 447.219L198.754 581.591L251.142 438.962L167.628 563.124L236.134 428.753L138.863 540.604L222.377 416.442L113.017 514.33L210.288 402.479L90.3672 484.753L199.866 387.015L71.3299 452.324L191.251 370.2L56.1835 417.643L184.72 352.334L45.2058 381.01L180.273 333.717L38.5358 343.326L178.05 314.65L36.3125 305.041L178.05 295.433L38.5358 266.757L180.273 276.515L45.2058 229.073L184.72 257.899L56.1835 192.59L191.251 240.033L71.3299 157.908L199.866 223.217L90.3672 125.479L210.288 207.603L113.017 95.9026L222.377 193.641L138.863 69.6289L236.134 181.48L167.628 46.9585L251.142 171.12L198.754 28.4918L267.122 163.013L231.826 14.3791L284.075 157.008L266.149 4.92054L301.444 153.404V0.116211L319.231 152.203Z" stroke="#00FF9F" stroke-opacity="0.5" stroke-width="2" stroke-miterlimit="10" mask="url(#path-1-outside-1_341_618)"/>
</mask>
<g mask="url(#mask0_341_618)">
<rect x="-668.131" y="-35.7656" width="1187.7" height="661.636" rx="45" fill="black"/>
<rect x="-667.131" y="-34.7656" width="1185.7" height="659.636" rx="44" stroke="#00FF9F" stroke-opacity="0.5" stroke-width="2"/>
</g>
<path d="M83.3393 442.645L123.137 466.088L83.3393 489.72L61.5684 532.652L39.7974 489.72L0.000101156 466.088L39.7974 442.645L61.5684 399.524L83.3393 442.645Z" fill="#00FF9F" fill-opacity="0.85"/>
<path opacity="0.5" d="M189.028 229.398L260.143 271.29L189.028 313.518L150.125 390.235L111.222 313.518L40.1066 271.29L111.222 229.398L150.125 152.344L189.028 229.398Z" fill="#2BC20E"/>
</svg>
