<svg width="68" height="49" viewBox="0 0 68 49" fill="none" xmlns="http://www.w3.org/2000/svg">
<path d="M66.5 24.25C66.5 24.25 56.75 47 34 47C11.25 47 1.5 24.25 1.5 24.25C1.5 24.25 11.25 1.5 34 1.5C55.125 1.5 66.5 24.25 66.5 24.25Z" stroke="black" stroke-width="3" stroke-linejoin="round"/>
<path d="M32.9509 13.4504C33.0633 13.2739 33.2185 13.1286 33.4019 13.0279C33.5854 12.9273 33.7913 12.8745 34.0006 12.8745C34.2099 12.8745 34.4158 12.9273 34.5993 13.0279C34.7827 13.1286 34.9379 13.2739 35.0504 13.4504L36.4673 15.6766C38.03 18.1378 40.1162 20.224 42.5773 21.7866L44.8003 23.2004C44.9768 23.3128 45.1221 23.468 45.2228 23.6515C45.3234 23.8349 45.3762 24.0408 45.3762 24.2501C45.3762 24.4594 45.3234 24.6653 45.2228 24.8488C45.1221 25.0323 44.9768 25.1874 44.8003 25.2999L42.5741 26.7169C40.113 28.2795 38.0267 30.3657 36.4641 32.8269L35.0504 35.0499C34.9379 35.2264 34.7827 35.3716 34.5993 35.4723C34.4158 35.5729 34.2099 35.6257 34.0006 35.6257C33.7913 35.6257 33.5854 35.5729 33.4019 35.4723C33.2185 35.3716 33.0633 35.2264 32.9509 35.0499L31.5339 32.8236C29.9712 30.3625 27.885 28.2763 25.4239 26.7136L23.2009 25.2999C23.0244 25.1874 22.8791 25.0323 22.7784 24.8488C22.6778 24.6653 22.625 24.4594 22.625 24.2501C22.625 24.0408 22.6778 23.8349 22.7784 23.6515C22.8791 23.468 23.0244 23.3128 23.2009 23.2004L25.4271 21.7834C27.8882 20.2207 29.9745 18.1345 31.5371 15.6734L32.9509 13.4504Z" stroke="black" stroke-width="3" stroke-linejoin="round"/>
</svg>
