<svg width="55" height="55" viewBox="0 0 55 55" fill="none" xmlns="http://www.w3.org/2000/svg">
<path fill-rule="evenodd" clip-rule="evenodd" d="M38.2267 35.64C41.5311 31.7346 43.3409 26.7825 43.3333 21.6667C43.3333 9.7 33.6333 0 21.6667 0C9.7 0 0 9.7 0 21.6667C0 33.6333 9.7 43.3333 21.6667 43.3333C26.9917 43.3333 31.8667 41.4133 35.64 38.2267L35 41.9067L47.5233 54.43L54.43 47.5233L41.9067 35L38.2267 35.64ZM21.6667 38.3333C30.8717 38.3333 38.3333 30.8717 38.3333 21.6667C38.3333 12.4617 30.8717 5 21.6667 5C12.4617 5 5 12.4617 5 21.6667C5 30.8717 12.4617 38.3333 21.6667 38.3333Z" fill="black"/>
</svg>
